<svg width="295" height="202" viewBox="0 0 295 202" fill="none" xmlns="http://www.w3.org/2000/svg">
<path d="M269.041 44.9004C284.973 58.4879 293.636 75.6191 294.681 95.9966C295.843 116.473 289.18 135.039 274.808 151.794L232.441 201.182L155.922 135.923L183.273 104.039L231.882 145.496L246.898 127.991C254.084 119.614 257.425 110.555 256.804 100.715C256.183 90.8759 251.574 82.3987 242.969 75.0595C234.363 67.7203 225.25 64.4944 215.405 65.4079C205.667 66.1962 197.209 70.8912 189.916 79.3935L132.641 146.162C124.06 156.164 114.477 163.58 103.775 168.309C103.114 168.611 102.345 169.038 101.567 169.241C94.9416 172.034 87.9315 173.633 80.4382 174.387C75.2966 174.982 70.3515 174.878 65.5046 174.425C51.9743 173.062 39.5246 167.857 28.1552 158.81L23.7362 155.041C9.16376 141.747 1.19838 125.211 0.188899 105.73C-0.973007 85.2533 5.69036 66.6872 20.0627 49.9327L62.4291 0.544203L138.948 65.8037L111.598 97.6874L63.1046 56.3299L48.0887 73.8347C40.9025 82.212 37.5618 91.2708 38.1828 101.11C38.8038 110.95 43.4126 119.427 52.0181 126.766C60.6235 134.105 69.7371 137.331 79.5821 136.418C89.32 135.629 97.7775 130.935 105.071 122.432L162.346 55.664C176.718 38.9094 194.08 29.4678 214.548 27.4384C234.909 25.5339 253.109 31.313 269.041 44.9004Z" fill="url(#paint0_linear_9893_3619)"/>
<defs>
<linearGradient id="paint0_linear_9893_3619" x1="48.6466" y1="16.6111" x2="245.739" y2="185.681" gradientUnits="userSpaceOnUse">
<stop stop-color="#B5DFFF"/>
<stop offset="0.322917" stop-color="#B5DFFF" stop-opacity="0.677083"/>
<stop offset="1" stop-color="#B5DFFF" stop-opacity="0"/>
</linearGradient>
</defs>
</svg>
