<svg width="1920" height="968" viewBox="0 0 1440 968" fill="none" xmlns="http://www.w3.org/2000/svg">
<path d="M1510.5 283.5C1661.38 363.251 1921.5 175.5 2008 -48V700H-379V86.5C-198.451 -134.377 -79 414 263.5 253C707.921 44.0898 710.712 315.433 886 390.5C1105.5 484.5 1005 16.3072 1510.5 283.5Z" fill="#F5FAFF"/>
<path d="M106 319.5C-44.8798 399.251 -292.5 175.5 -379 -48V700H2008V298.704C1827.45 77.8271 1403 132.5 1273 245C1122.09 375.595 824.189 523.458 711 370C555 158.5 351 190 106 319.5Z" fill="#DBEDFC"/>
<path d="M154.377 314.431C16.1844 379.417 -204.537 267.474 -360 132V967.5H1735V353.832C1576.54 135.778 1281.11 239.408 1119.15 314.431C957.186 389.455 816.682 515.781 676.253 422.919C571.778 353.832 437.31 181.383 154.377 314.431Z" fill="url(#paint0_linear_9893_3608)"/>
<defs>
<linearGradient id="paint0_linear_9893_3608" x1="687.25" y1="312.812" x2="688.187" y2="723.179" gradientUnits="userSpaceOnUse">
<stop stop-color="#45A3DF"/>
<stop offset="1" stop-color="#4495CE"/>
</linearGradient>
</defs>
</svg>
