<svg width="32" height="32" viewBox="0 0 32 32" fill="none" xmlns="http://www.w3.org/2000/svg">
<path fill-rule="evenodd" clip-rule="evenodd" d="M30.2443 6.1482C29.8563 5.16034 29.3449 4.32242 28.5072 3.48449C27.6695 2.64657 26.8319 2.135 25.8443 1.74691C24.892 1.37646 23.7986 1.1295 22.1938 1.05012C20.589 0.979554 20.0776 0.961914 15.995 0.961914C11.9124 0.961914 11.401 0.979554 9.7962 1.05012C8.20021 1.1295 7.10682 1.37646 6.1457 1.75573C5.15813 2.14382 4.32045 2.65539 3.48278 3.49332C2.6451 4.33124 2.13368 5.16916 1.74571 6.15702C1.37537 7.1096 1.12847 8.20331 1.04911 9.79977C0.978573 11.405 0.960938 11.9166 0.960938 16.0004C0.960938 20.0841 0.978573 20.5957 1.04911 22.201C1.12847 23.8063 1.37537 24.9 1.75452 25.8526C2.1425 26.8404 2.65392 27.6783 3.4916 28.5163C4.32927 29.3542 5.16695 29.8658 6.15452 30.2538C7.10682 30.6243 8.20021 30.8801 9.80502 30.9506C11.4098 31.0212 11.9212 31.0388 16.0038 31.0388C20.0864 31.0388 20.5978 31.0212 22.2026 30.9506C23.7986 30.8801 24.892 30.6243 25.8531 30.2538C26.8407 29.8658 27.6783 29.3542 28.516 28.5163C29.3537 27.6783 29.8651 26.8404 30.2531 25.8526C30.6234 24.9 30.8791 23.8063 30.9497 22.201C31.0202 20.5957 31.0379 20.0841 31.0379 16.0004C31.0379 11.9166 31.0202 11.405 30.9497 9.79977C30.8703 8.20331 30.6146 7.1096 30.2443 6.1482ZM15.995 23.7269C11.7273 23.7269 8.27075 20.2694 8.27075 16.0004C8.27075 11.7314 11.7273 8.27387 15.995 8.27387C20.2627 8.27387 23.7192 11.7314 23.7192 16.0004C23.7192 20.2694 20.2627 23.7269 15.995 23.7269ZM24.0278 9.78213C23.0315 9.78213 22.2202 8.97067 22.2202 7.97398C22.2202 6.9773 23.0315 6.16584 24.0278 6.16584C25.0242 6.16584 25.8355 6.9773 25.8355 7.97398C25.8266 8.97067 25.0242 9.78213 24.0278 9.78213ZM21.0122 16.0004C21.0122 18.7699 18.7725 21.0103 16.0038 21.0103C13.2351 21.0103 10.9954 18.7699 10.9954 16.0004C10.9954 13.2308 13.2351 10.9905 16.0038 10.9905C18.7637 10.9905 21.0122 13.2308 21.0122 16.0004Z" fill="#B5DFFF"/>
</svg>
