<svg width="48" height="48" viewBox="0 0 48 48" fill="none" xmlns="http://www.w3.org/2000/svg">
<path fill-rule="evenodd" clip-rule="evenodd" d="M45.9672 9.00526C45.3616 7.46334 44.5633 6.15545 43.2558 4.84757C41.9483 3.53969 40.6409 2.74119 39.0994 2.13544C37.613 1.55721 35.9063 1.17173 33.4014 1.04783C30.8965 0.937691 30.0983 0.910156 23.7259 0.910156C17.3536 0.910156 16.5553 0.937691 14.0504 1.04783C11.5593 1.17173 9.85268 1.55721 8.3525 2.1492C6.81103 2.75496 5.50353 3.55346 4.19603 4.86134C2.88853 6.16922 2.09026 7.4771 1.48469 9.01903C0.906634 10.5059 0.521265 12.213 0.397397 14.7049C0.287292 17.2105 0.259766 18.009 0.259766 24.3832C0.259766 30.7574 0.287292 31.5559 0.397397 34.0615C0.521265 36.5672 0.906634 38.2743 1.49845 39.7612C2.10403 41.3031 2.90229 42.611 4.20979 43.9188C5.51729 45.2267 6.82479 46.0252 8.36626 46.631C9.85268 47.2092 11.5593 47.6085 14.0642 47.7186C16.5691 47.8287 17.3674 47.8563 23.7397 47.8563C30.112 47.8563 30.9103 47.8287 33.4152 47.7186C35.9063 47.6085 37.613 47.2092 39.1131 46.631C40.6546 46.0252 41.9621 45.2267 43.2696 43.9188C44.5771 42.611 45.3754 41.3031 45.981 39.7612C46.559 38.2743 46.9581 36.5672 47.0682 34.0615C47.1783 31.5559 47.2059 30.7574 47.2059 24.3832C47.2059 18.009 47.1783 17.2105 47.0682 14.7049C46.9444 12.213 46.5452 10.5059 45.9672 9.00526ZM23.7259 36.4433C17.0646 36.4433 11.6694 31.0465 11.6694 24.3832C11.6694 17.7199 17.0646 12.3232 23.7259 12.3232C30.3873 12.3232 35.7825 17.7199 35.7825 24.3832C35.7825 31.0465 30.3873 36.4433 23.7259 36.4433ZM36.2642 14.6773C34.7089 14.6773 33.4427 13.4108 33.4427 11.8551C33.4427 10.2994 34.7089 9.0328 36.2642 9.0328C37.8194 9.0328 39.0856 10.2994 39.0856 11.8551C39.0718 13.4108 37.8194 14.6773 36.2642 14.6773ZM31.5572 24.3832C31.5572 28.7061 28.0613 32.203 23.7397 32.203C19.4181 32.203 15.9222 28.7061 15.9222 24.3832C15.9222 20.0603 19.4181 16.5634 23.7397 16.5634C28.0476 16.5634 31.5572 20.0603 31.5572 24.3832Z" fill="#83BCDC"/>
</svg>
