<svg width="180" height="118" viewBox="0 0 180 118" fill="none" xmlns="http://www.w3.org/2000/svg">
<path d="M165.781 20.1968C174.948 27.8994 179.582 38.0491 179.484 50.477C179.453 62.9612 174.749 74.5764 165.438 85.3789L137.992 117.222L93.9667 80.2269L111.685 59.6699L139.653 83.1714L149.38 71.8852C154.036 66.484 156.385 60.8132 156.362 54.8167C156.339 48.8202 153.851 43.81 148.899 39.6495C143.948 35.489 138.541 33.8647 132.543 34.8011C126.614 35.6569 121.32 38.8538 116.595 44.3357L79.4911 87.3843C73.9325 93.8336 67.8592 98.7383 61.2043 102.042C60.7925 102.252 60.3113 102.543 59.8326 102.697C55.7177 104.66 51.4124 105.907 46.8446 106.656C43.7076 107.217 40.7147 107.343 37.7939 107.252C29.6438 106.936 22.2865 104.229 15.7217 99.1296L13.1792 96.9931C4.826 89.4178 0.59284 79.6056 0.680466 67.725C0.711482 55.2408 5.41581 43.6256 14.7265 32.8231L42.1724 0.979979L86.198 37.9751L68.4798 58.532L40.5791 35.0868L30.8514 46.373C26.1961 51.7742 23.8465 57.445 23.8696 63.4415C23.8927 69.438 26.3811 74.4481 31.3323 78.6087C36.2835 82.7692 41.6902 84.3935 47.6889 83.4571C53.6181 82.6013 58.9116 79.4044 63.6365 73.9225L100.74 30.8739C110.051 20.0714 120.911 13.6287 133.387 11.6021C145.793 9.65614 156.615 12.4942 165.781 20.1968Z" fill="url(#paint0_linear_9893_32417)"/>
<defs>
<linearGradient id="paint0_linear_9893_32417" x1="33.2438" y1="11.3391" x2="145.707" y2="108.272" gradientUnits="userSpaceOnUse">
<stop stop-color="#B5DFFF"/>
<stop offset="0.322917" stop-color="#B5DFFF" stop-opacity="0.677083"/>
<stop offset="1" stop-color="#B5DFFF" stop-opacity="0"/>
</linearGradient>
</defs>
</svg>
