<svg width="55" height="44" viewBox="0 0 55 44" fill="none" xmlns="http://www.w3.org/2000/svg">
<path fill-rule="evenodd" clip-rule="evenodd" d="M54.7489 3.94837C54.6132 5.7708 53.4942 12.1414 52.3921 19.019L48.9162 39.4302C48.9162 39.4302 48.645 42.4253 46.2712 42.9324C43.9144 43.4554 40.0147 41.11 39.3195 40.587C38.76 40.1909 28.892 34.3433 25.2805 31.4908C24.314 30.7143 23.195 29.1454 25.4161 27.3388C30.4179 23.0442 36.4032 17.7196 40.0147 14.3441C41.6763 12.7911 43.3549 9.14624 36.4032 13.5676L16.8028 25.9126C16.8028 25.9126 14.5816 27.212 10.4106 26.0393C6.23959 24.8667 1.37341 23.3136 1.37341 23.3136C1.37341 23.3136 -1.9668 21.3644 3.7302 19.2884L36.1319 6.8167C39.3365 5.51724 50.1709 1.36527 50.1709 1.36527C50.1709 1.36527 55.1728 -0.457147 54.7489 3.94837Z" fill="#83BCDC"/>
</svg>
