<svg width="34" height="34" viewBox="0 0 34 34" fill="none" xmlns="http://www.w3.org/2000/svg">
<path fill-rule="evenodd" clip-rule="evenodd" d="M32.6785 6.91934C32.6002 7.96032 31.9543 11.5992 31.3182 15.5278L29.3119 27.1868C29.3119 27.1868 29.1553 28.8977 27.7852 29.1873C26.4248 29.486 24.1739 28.1463 23.7727 27.8476C23.4497 27.6213 17.7539 24.2811 15.6693 22.6518C15.1115 22.2082 14.4656 21.3121 15.7476 20.2801C18.6347 17.827 22.0894 14.7855 24.1739 12.8575C25.133 11.9704 26.1019 9.8884 22.0894 12.4139L10.776 19.4654C10.776 19.4654 9.49399 20.2077 7.08648 19.5379C4.67898 18.868 1.87022 17.9809 1.87022 17.9809C1.87022 17.9809 -0.0577463 16.8675 3.23056 15.6817L21.9328 8.55775C23.7825 7.81549 30.0361 5.44386 30.0361 5.44386C30.0361 5.44386 32.9232 4.40288 32.6785 6.91934Z" fill="#B5DFFF"/>
</svg>
