<svg width="42" height="42" viewBox="0 0 42 42" fill="none" xmlns="http://www.w3.org/2000/svg">
<rect width="42" height="42" rx="6" fill="url(#paint0_linear_9893_32636)"/>
<path d="M19.6035 32.4912C19.6035 33.0435 20.0512 33.4912 20.6035 33.4912C21.1558 33.4912 21.6035 33.0435 21.6035 32.4912H19.6035ZM21.3106 9.59542C20.9201 9.2049 20.2869 9.2049 19.8964 9.59542L13.5324 15.9594C13.1419 16.3499 13.1419 16.9831 13.5324 17.3736C13.923 17.7641 14.5561 17.7641 14.9467 17.3736L20.6035 11.7167L26.2604 17.3736C26.6509 17.7641 27.2841 17.7641 27.6746 17.3736C28.0651 16.9831 28.0651 16.3499 27.6746 15.9594L21.3106 9.59542ZM21.6035 32.4912L21.6035 10.3025H19.6035L19.6035 32.4912H21.6035Z" fill="white"/>
<defs>
<linearGradient id="paint0_linear_9893_32636" x1="21" y1="0" x2="21" y2="42" gradientUnits="userSpaceOnUse">
<stop stop-color="#F1924E"/>
<stop offset="1" stop-color="#ED7F32"/>
</linearGradient>
</defs>
</svg>
