<svg width="173" height="114" viewBox="0 0 173 114" fill="none" xmlns="http://www.w3.org/2000/svg">
<path d="M160.114 20.6739C168.765 28.2485 172.997 38.1116 172.621 50.0973C172.307 62.1384 167.514 73.2672 158.303 83.5393L131.152 113.819L89.5994 77.4386L107.127 57.8911L133.524 81.0019L143.147 70.2699C147.752 65.1339 150.144 59.7014 150.258 53.9171C150.372 48.1329 148.089 43.261 143.416 39.1696C138.743 35.0782 133.574 33.426 127.776 34.2342C122.048 34.9658 116.878 37.9656 112.204 43.1783L75.4982 84.1132C69.9992 90.2458 64.0397 94.8804 57.5566 97.9619C57.1554 98.158 56.6854 98.4307 56.221 98.5715C52.2141 100.4 48.0401 101.535 43.6247 102.185C40.5914 102.676 37.7066 102.75 34.8962 102.616C27.0557 102.183 20.0327 99.4551 13.8273 94.4326L11.4276 92.3316C3.55629 84.8927 -0.296974 75.3613 0.057271 63.9034C0.370717 51.8623 5.16439 40.7335 14.3752 30.4614L41.5263 0.181844L83.0786 36.5621L65.5506 56.1096L39.2174 33.0541L29.5942 43.7861C24.9888 48.9221 22.5975 54.3546 22.4836 60.1389C22.3696 65.9231 24.6519 70.795 29.325 74.8864C33.998 78.9778 39.1673 80.63 44.9647 79.8218C50.6934 79.0902 55.8632 76.0904 60.5374 70.8777L97.243 29.9428C106.454 19.6708 117.057 13.6285 129.116 11.8712C141.107 10.1906 151.462 13.0993 160.114 20.6739Z" fill="url(#paint0_linear_10075_37300)"/>
<defs>
<linearGradient id="paint0_linear_10075_37300" x1="32.6936" y1="10.0323" x2="138.856" y2="105.227" gradientUnits="userSpaceOnUse">
<stop stop-color="#B5DFFF"/>
<stop offset="0.322917" stop-color="#B5DFFF" stop-opacity="0.677083"/>
<stop offset="1" stop-color="#B5DFFF" stop-opacity="0"/>
</linearGradient>
</defs>
</svg>
