<svg width="18" height="21" viewBox="0 0 18 21" fill="none" xmlns="http://www.w3.org/2000/svg">
<path d="M10.9167 12.9889H5.75V15.4H13.75V17.4222H5.75V21H2.75V17.4222H0V15.4H2.75V12.9889H0V10.4222H2.75V0H10.9167C12.8333 0 14.5 0.622222 15.9167 1.94444C17.3333 3.26667 18 4.74444 18 6.53333C18 8.32222 17.3333 9.87778 15.9167 11.1222C14.5 12.3667 12.9167 12.9889 10.9167 12.9889ZM5.75 2.64444V10.5H10.9167C12 10.5 13 10.1111 13.8333 9.33333C14.6667 8.55556 15.0833 7.62222 15.0833 6.53333C15.0833 5.44444 14.6667 4.51111 13.9167 3.73333C13.0833 2.95556 12.1667 2.56667 11 2.56667H5.75V2.64444Z" fill="#585858"/>
</svg>
