<svg width="32" height="32" viewBox="0 0 32 32" fill="none" xmlns="http://www.w3.org/2000/svg">
<rect width="32" height="32" rx="6" fill="url(#paint0_linear_10075_37458)"/>
<path d="M14.6973 24.7549C14.6973 25.3072 15.145 25.7549 15.6973 25.7549C16.2496 25.7549 16.6973 25.3072 16.6973 24.7549H14.6973ZM16.4044 7.14211C16.0138 6.75159 15.3807 6.75159 14.9902 7.14211L8.6262 13.5061C8.23567 13.8966 8.23567 14.5298 8.6262 14.9203C9.01672 15.3108 9.64989 15.3108 10.0404 14.9203L15.6973 9.26344L21.3541 14.9203C21.7446 15.3108 22.3778 15.3108 22.7683 14.9203C23.1589 14.5298 23.1589 13.8966 22.7683 13.5061L16.4044 7.14211ZM16.6973 24.7549L16.6973 7.84922H14.6973L14.6973 24.7549H16.6973Z" fill="white"/>
<defs>
<linearGradient id="paint0_linear_10075_37458" x1="16" y1="0" x2="16" y2="32" gradientUnits="userSpaceOnUse">
<stop stop-color="#F1924E"/>
<stop offset="1" stop-color="#ED7F32"/>
</linearGradient>
</defs>
</svg>
