<svg width="375" height="870" viewBox="0 0 375 870" fill="none" xmlns="http://www.w3.org/2000/svg">
<path d="M373.519 129.562C404.632 160.731 458.271 87.3515 476.107 0V292.344H-16.1089V52.5673C21.1215 -33.7591 45.7532 180.566 116.379 117.641C208.022 35.9919 208.597 142.042 244.743 171.381C290.006 208.119 269.282 25.1335 373.519 129.562Z" fill="#F5FAFF"/>
<path d="M83.9011 143.632C52.7886 174.801 1.72754 87.3515 -16.1094 0V292.344H476.107V135.504C438.877 49.1776 351.352 70.5457 324.545 114.515C293.426 165.555 231.997 223.346 208.656 163.369C176.488 80.7074 134.422 93.0186 83.9011 143.632Z" fill="#DBEDFC"/>
<path d="M93.8768 141.651C65.3805 167.049 19.8661 123.298 -12.1914 70.3501V870H419.812V157.05C387.136 71.8267 326.217 112.329 292.819 141.651C259.422 170.972 230.449 220.345 201.491 184.051C179.948 157.05 152.219 89.6506 93.8768 141.651Z" fill="url(#paint0_linear_10075_37277)"/>
<defs>
<linearGradient id="paint0_linear_10075_37277" x1="203.759" y1="141.018" x2="204.453" y2="301.401" gradientUnits="userSpaceOnUse">
<stop stop-color="#45A3DF"/>
<stop offset="1" stop-color="#4495CE"/>
</linearGradient>
</defs>
</svg>
