<svg width="180" height="180" viewBox="0 0 180 180" fill="none" xmlns="http://www.w3.org/2000/svg">
<path d="M34.4813 71.0391H156.958V151.591C156.958 152.308 156.816 153.018 156.54 153.679C156.264 154.34 155.86 154.94 155.35 155.443C154.841 155.946 154.237 156.343 153.574 156.61C152.91 156.877 152.201 157.01 151.486 157H39.8549C38.4209 156.996 37.0454 156.429 36.0244 155.42C35.5217 154.918 35.1227 154.321 34.8504 153.664C34.5781 153.007 34.4378 152.303 34.4375 151.591L34.4813 71.0391Z" fill="#E8F0F9"/>
<path d="M148.839 71.0391V151.591C148.839 152.308 148.697 153.018 148.421 153.679C148.145 154.34 147.741 154.94 147.232 155.443C146.723 155.946 146.119 156.343 145.455 156.61C144.792 156.877 144.082 157.01 143.367 157H151.499C152.214 157.01 152.924 156.877 153.587 156.61C154.251 156.343 154.854 155.946 155.364 155.443C155.873 154.94 156.277 154.34 156.553 153.679C156.829 153.018 156.971 152.308 156.971 151.591V71.0391H148.839Z" fill="#D4DEED"/>
<path d="M156.957 71.0394H34.4805V54.2993C34.4798 53.5894 34.6197 52.8864 34.8921 52.2311C35.1645 51.5758 35.564 50.9812 36.0674 50.4818C37.0866 49.4684 38.4623 48.8972 39.8978 48.8911H151.529C152.967 48.891 154.347 49.4583 155.371 50.4704C156.395 51.4825 156.981 52.8579 157.001 54.2993L156.957 71.0394Z" fill="#306694"/>
<path d="M151.538 48.8696H143.406C144.844 48.8695 146.225 49.4368 147.249 50.4489C148.273 51.461 148.858 52.8365 148.878 54.2778V71.0399H156.999V54.2998C156.979 52.8584 156.393 51.4829 155.369 50.4708C154.345 49.4588 152.965 48.8914 151.527 48.8916L151.538 48.8696Z" fill="white" fill-opacity="0.24"/>
<path d="M49.6621 144.56V27.7847C49.6621 27.2867 49.7601 26.7937 49.9506 26.3338C50.141 25.8739 50.4201 25.4562 50.7719 25.1046C51.1236 24.753 51.5412 24.4745 52.0005 24.2849C52.4599 24.0954 52.952 23.9986 53.4488 24H137.993C138.996 24 139.959 24.398 140.67 25.1072C141.382 25.8163 141.784 26.7789 141.79 27.7847V144.56C141.79 145.056 141.693 145.548 141.506 146.008C141.112 146.934 140.374 147.669 139.448 148.059C138.986 148.247 138.492 148.344 137.993 148.344H53.4488C52.9535 148.343 52.463 148.246 52.0042 148.059C51.5414 147.87 51.121 147.59 50.7675 147.236C50.4181 146.883 50.1395 146.466 49.9467 146.008C49.759 145.548 49.6624 145.056 49.6621 144.56Z" fill="white"/>
<path d="M137.992 24.0001H132.574C133.071 23.9959 133.564 24.0907 134.025 24.279C134.485 24.4673 134.903 24.7454 135.256 25.0971C135.608 25.4475 135.888 25.8653 136.076 26.3258C136.272 26.7834 136.372 27.276 136.372 27.7738V144.56C136.373 145.058 136.273 145.551 136.076 146.008C135.691 146.936 134.955 147.673 134.03 148.059C133.567 148.247 133.073 148.344 132.574 148.345H137.992C138.491 148.344 138.985 148.247 139.447 148.059C140.373 147.67 141.111 146.934 141.505 146.008C141.692 145.548 141.789 145.057 141.789 144.56V27.7848C141.783 26.779 141.381 25.8164 140.669 25.1073C139.958 24.3982 138.995 24.0001 137.992 24.0001Z" fill="#F2F2F2"/>
<path d="M93.8004 131.747C109.304 131.747 121.872 119.149 121.872 103.609C121.872 88.0685 109.304 75.4707 93.8004 75.4707C78.2967 75.4707 65.7285 88.0685 65.7285 103.609C65.7285 119.149 78.2967 131.747 93.8004 131.747Z" fill="#E97522"/>
<path d="M94.4423 75.3564C92.9026 75.358 91.3656 75.4828 89.8457 75.7294C96.3989 76.8258 102.352 80.2164 106.646 85.2983C110.94 90.3802 113.296 96.8239 113.296 103.483C113.296 110.143 110.94 116.587 106.646 121.669C102.352 126.75 96.3989 130.141 89.8457 131.237C91.3646 131.493 92.9021 131.622 94.4423 131.621C101.79 131.476 108.788 128.448 113.933 123.188C119.078 117.928 121.96 110.855 121.96 103.489C121.96 96.1225 119.078 89.0498 113.933 83.7898C108.788 78.5298 101.79 75.5019 94.4423 75.3564Z" fill="white" fill-opacity="0.26"/>
<path d="M117.538 52.1823H70.0508C69.5457 52.1823 69.0614 51.9812 68.7042 51.6232C68.3471 51.2653 68.1465 50.7798 68.1465 50.2735V46.6863C68.1465 46.1791 68.3468 45.6925 68.7036 45.3327C69.0604 44.973 69.5447 44.7695 70.0508 44.7666H117.538C118.046 44.7666 118.533 44.9689 118.892 45.3289C119.251 45.6889 119.453 46.1772 119.453 46.6863V50.2735C119.453 50.5251 119.403 50.7742 119.307 51.0065C119.21 51.2388 119.069 51.4497 118.891 51.6271C118.713 51.8045 118.502 51.9449 118.27 52.0402C118.037 52.1354 117.789 52.1837 117.538 52.1823Z" fill="#6E6E6E"/>
<path d="M117.197 44.7666H112.633C113.88 44.7666 114.887 45.5016 114.887 46.4011V50.5587C114.887 51.4583 113.88 52.1823 112.633 52.1823H117.197C118.444 52.1823 119.451 51.4583 119.451 50.5587V46.4011C119.451 45.5235 118.444 44.7666 117.197 44.7666Z" fill="#30302F"/>
<path d="M112.271 75.526C111.97 75.5279 111.674 75.4442 111.417 75.2846C111.233 75.1732 111.071 75.026 110.944 74.8518C110.816 74.6775 110.724 74.4795 110.673 74.2693C110.622 74.0591 110.613 73.8408 110.647 73.6272C110.681 73.4136 110.757 73.2088 110.87 73.0248L112.917 69.657C113.062 69.4153 113.268 69.2155 113.513 69.0771C113.759 68.9387 114.036 68.8664 114.318 68.8672H129.355C129.79 68.8672 130.208 69.0406 130.516 69.3491C130.824 69.6577 130.997 70.0763 130.997 70.5127C130.997 70.9491 130.824 71.3676 130.516 71.6762C130.208 71.9848 129.79 72.1582 129.355 72.1582H115.248L113.672 74.7471C113.526 74.9881 113.32 75.1873 113.075 75.3256C112.829 75.4639 112.553 75.5367 112.271 75.5369V75.526Z" fill="#83BCDC"/>
<path d="M73.2672 138.373H58.2409C58.0094 138.4 57.7748 138.378 57.5526 138.307C57.3304 138.237 57.1256 138.12 56.9516 137.964C56.7776 137.809 56.6384 137.619 56.5431 137.405C56.4477 137.192 56.3984 136.961 56.3984 136.728C56.3984 136.494 56.4477 136.263 56.5431 136.05C56.6384 135.837 56.7776 135.646 56.9516 135.491C57.1256 135.336 57.3304 135.219 57.5526 135.148C57.7748 135.078 58.0094 135.055 58.2409 135.082H72.3479L73.9129 132.504C74.1393 132.13 74.5046 131.862 74.9285 131.758C75.3523 131.654 75.7999 131.723 76.1729 131.95C76.5459 132.177 76.8137 132.543 76.9173 132.968C77.021 133.393 76.952 133.842 76.7256 134.216L74.6681 137.594C74.5233 137.837 74.318 138.037 74.0723 138.176C73.8266 138.314 73.5491 138.386 73.2672 138.384V138.373Z" fill="#E97522"/>
<path d="M75.3271 75.5252C75.044 75.5258 74.7654 75.4535 74.5182 75.3152C74.271 75.1769 74.0634 74.9772 73.9153 74.7354L72.3502 72.1465H58.2432C57.8078 72.1465 57.3903 71.9731 57.0824 71.6645C56.7745 71.3559 56.6016 70.9374 56.6016 70.501C56.6016 70.0646 56.7745 69.6461 57.0824 69.3375C57.3903 69.0289 57.8078 68.8555 58.2432 68.8555H73.2696C73.5514 68.8536 73.8289 68.9255 74.0746 69.064C74.3203 69.2025 74.5257 69.4029 74.6704 69.6453L76.7279 73.0241C76.8794 73.2735 76.9619 73.5588 76.9671 73.8507C76.9722 74.1426 76.8998 74.4307 76.7572 74.6853C76.6146 74.9399 76.407 75.1518 76.1557 75.2994C75.9043 75.4471 75.6184 75.525 75.3271 75.5252Z" fill="#208DBE"/>
<path d="M129.355 138.373H114.318C114.036 138.374 113.759 138.302 113.514 138.163C113.268 138.025 113.063 137.825 112.917 137.583L110.871 134.205C110.749 134.02 110.665 133.813 110.625 133.595C110.585 133.378 110.589 133.154 110.637 132.938C110.685 132.722 110.776 132.518 110.905 132.338C111.033 132.158 111.196 132.006 111.385 131.891C111.574 131.776 111.783 131.7 112.002 131.668C112.22 131.636 112.443 131.648 112.657 131.704C112.87 131.761 113.07 131.86 113.245 131.995C113.419 132.131 113.565 132.3 113.672 132.493L115.248 135.071H129.355C129.758 135.118 130.13 135.311 130.399 135.615C130.669 135.918 130.818 136.31 130.818 136.717C130.818 137.123 130.669 137.515 130.399 137.819C130.13 138.122 129.758 138.315 129.355 138.362V138.373Z" fill="#208DBE"/>
<path d="M129.354 78.8833H122.219C121.816 78.8366 121.444 78.6431 121.175 78.3397C120.905 78.0363 120.756 77.6441 120.756 77.2378C120.756 76.8314 120.905 76.4392 121.175 76.1358C121.444 75.8324 121.816 75.639 122.219 75.5923H129.354C129.757 75.639 130.128 75.8324 130.398 76.1358C130.668 76.4392 130.817 76.8314 130.817 77.2378C130.817 77.6441 130.668 78.0363 130.398 78.3397C130.128 78.6431 129.757 78.8366 129.354 78.8833Z" fill="#83BCDC"/>
<path d="M65.4093 78.883H58.2409C58.0094 78.9098 57.7748 78.8873 57.5526 78.8168C57.3304 78.7464 57.1256 78.6296 56.9516 78.4743C56.7776 78.3189 56.6384 78.1283 56.5431 77.9152C56.4477 77.7021 56.3984 77.4711 56.3984 77.2375C56.3984 77.0039 56.4477 76.773 56.5431 76.5598C56.6384 76.3467 56.7776 76.1562 56.9516 76.0008C57.1256 75.8454 57.3304 75.7286 57.5526 75.6582C57.7748 75.5877 58.0094 75.5652 58.2409 75.592H65.4093C65.812 75.6387 66.1836 75.8322 66.4533 76.1356C66.723 76.439 66.872 76.8311 66.872 77.2375C66.872 77.6439 66.723 78.0361 66.4533 78.3395C66.1836 78.6429 65.812 78.8363 65.4093 78.883Z" fill="#208DBE"/>
<path d="M129.357 131.637H122.222C121.786 131.637 121.369 131.464 121.061 131.155C120.753 130.847 120.58 130.428 120.58 129.992C120.58 129.555 120.753 129.137 121.061 128.828C121.369 128.52 121.786 128.346 122.222 128.346H129.357C129.793 128.346 130.21 128.52 130.518 128.828C130.826 129.137 130.999 129.555 130.999 129.992C130.999 130.428 130.826 130.847 130.518 131.155C130.21 131.464 129.793 131.637 129.357 131.637Z" fill="#208DBE"/>
<path d="M65.4116 131.637H58.2432C57.8078 131.637 57.3903 131.464 57.0824 131.155C56.7745 130.847 56.6016 130.428 56.6016 129.992C56.6016 129.555 56.7745 129.137 57.0824 128.828C57.3903 128.52 57.8078 128.346 58.2432 128.346H65.4116C65.847 128.346 66.2646 128.52 66.5724 128.828C66.8803 129.137 67.0533 129.555 67.0533 129.992C67.0533 130.428 66.8803 130.847 66.5724 131.155C66.2646 131.464 65.847 131.637 65.4116 131.637Z" fill="#E97522"/>
<path d="M110.84 60.5517H76.7491C76.3137 60.5517 75.8961 60.3784 75.5882 60.0698C75.2804 59.7612 75.1074 59.3427 75.1074 58.9062C75.1074 58.4698 75.2804 58.0513 75.5882 57.7427C75.8961 57.4341 76.3137 57.2607 76.7491 57.2607H110.84C111.276 57.2607 111.693 57.4341 112.001 57.7427C112.309 58.0513 112.482 58.4698 112.482 58.9062C112.482 59.3427 112.309 59.7612 112.001 60.0698C111.693 60.3784 111.276 60.5517 110.84 60.5517Z" fill="#585858"/>
<path d="M102.07 67.5395H85.5225C85.0871 67.5395 84.6696 67.3662 84.3617 67.0576C84.0538 66.749 83.8809 66.3304 83.8809 65.894C83.8809 65.4576 84.0538 65.0391 84.3617 64.7305C84.6696 64.4219 85.0871 64.2485 85.5225 64.2485H102.07C102.505 64.2485 102.923 64.4219 103.231 64.7305C103.539 65.0391 103.712 65.4576 103.712 65.894C103.712 66.3304 103.539 66.749 103.231 67.0576C102.923 67.3662 102.505 67.5395 102.07 67.5395Z" fill="#585858"/>
<path d="M79.1756 36.0128L78.913 34.5538L80.0074 33.4568C80.0748 33.3901 80.1239 33.3069 80.1496 33.2155C80.177 33.1224 80.177 33.0234 80.1496 32.9303C80.1155 32.8406 80.059 32.7613 79.9855 32.6999C79.9169 32.6351 79.8278 32.5963 79.7338 32.5902L78.2125 32.3598L77.5231 30.9886C77.4824 30.9026 77.4178 30.8302 77.337 30.7801C77.2555 30.7265 77.1609 30.6962 77.0634 30.6924C76.9654 30.6931 76.87 30.7237 76.7898 30.7801C76.7032 30.8262 76.634 30.8994 76.5928 30.9886L75.9252 32.3598L74.4149 32.5902C74.3182 32.5987 74.2264 32.637 74.1523 32.6999C74.0855 32.7649 74.0332 32.8434 73.999 32.9303C73.9717 33.0234 73.9717 33.1224 73.999 33.2155C74.0262 33.3116 74.0838 33.3963 74.1632 33.4568L75.2576 34.5538L74.995 36.0567C74.9727 36.1467 74.9727 36.2409 74.995 36.3309C75.0302 36.4229 75.0909 36.5029 75.1701 36.5613C75.2462 36.6176 75.3381 36.6483 75.4327 36.6491C75.5219 36.6762 75.6171 36.6762 75.7063 36.6491L77.0634 35.947L78.4095 36.6491C78.4941 36.703 78.5945 36.7262 78.6941 36.7149C78.7918 36.7129 78.8869 36.6824 78.9677 36.6271C79.0492 36.5712 79.1106 36.4904 79.1428 36.3968C79.1701 36.3037 79.1701 36.2046 79.1428 36.1115L79.1756 36.0128Z" fill="#E97522"/>
<path d="M87.9541 32.5792L86.4438 32.3598L85.7543 30.9886C85.7206 30.8981 85.6542 30.8237 85.5683 30.7801C85.4881 30.7237 85.3926 30.6931 85.2947 30.6924C85.1969 30.6944 85.1018 30.7249 85.021 30.7801C84.9403 30.8302 84.8757 30.9026 84.835 30.9886L84.1565 32.3598L82.6462 32.5902C82.5532 32.6009 82.4656 32.6391 82.3944 32.6999C82.3205 32.7586 82.2669 32.8392 82.2412 32.9303C82.2139 33.0234 82.2139 33.1224 82.2412 33.2155C82.2625 33.3088 82.3122 33.3931 82.3835 33.4568L83.4779 34.5538L83.2262 36.0567C83.1984 36.146 83.1984 36.2416 83.2262 36.3309C83.2654 36.4206 83.3255 36.4996 83.4013 36.5613C83.4815 36.6178 83.5769 36.6484 83.6749 36.6491C83.7643 36.675 83.8592 36.675 83.9485 36.6491L85.2947 35.947L86.6517 36.6491C86.7408 36.6769 86.8363 36.6769 86.9253 36.6491C87.0197 36.6469 87.1112 36.6163 87.188 36.5613C87.2638 36.4996 87.3239 36.4206 87.3631 36.3309C87.3853 36.2409 87.3853 36.1467 87.3631 36.0567L87.1333 34.5538L88.2277 33.4568C88.2952 33.3901 88.3442 33.3069 88.37 33.2155C88.3973 33.1224 88.3973 33.0234 88.37 32.9303C88.3359 32.8406 88.2793 32.7613 88.2058 32.6999C88.1358 32.6372 88.0476 32.5988 87.9541 32.5902V32.5792Z" fill="#E97522"/>
<path d="M96.1947 32.5783L94.6844 32.3589L93.9949 30.9876C93.9533 30.9012 93.888 30.8285 93.8065 30.7779C93.7251 30.7274 93.631 30.7012 93.5353 30.7024C93.4384 30.6991 93.3428 30.726 93.2617 30.7792C93.1809 30.8293 93.1163 30.9016 93.0756 30.9876L92.3861 32.3589L90.8759 32.5892C90.7791 32.5978 90.6874 32.6361 90.6132 32.6989C90.5464 32.764 90.4942 32.8425 90.46 32.9293C90.4326 33.0224 90.4326 33.1214 90.46 33.2145C90.4794 33.3038 90.5208 33.3867 90.5804 33.4559L91.6748 34.5529L91.4121 36.0558C91.3794 36.1442 91.3794 36.2415 91.4121 36.33C91.4436 36.424 91.5051 36.505 91.5872 36.5604C91.6634 36.6166 91.7553 36.6474 91.8499 36.6481C91.9391 36.6753 92.0343 36.6753 92.1235 36.6481L93.4696 35.9461L94.8267 36.6481C94.9158 36.676 95.0112 36.676 95.1003 36.6481C95.1949 36.6474 95.2868 36.6166 95.363 36.5604C95.4421 36.5019 95.5029 36.422 95.5381 36.33C95.5603 36.2399 95.5603 36.1458 95.5381 36.0558L95.363 34.5529L96.4574 33.4559C96.5287 33.3922 96.5784 33.3078 96.5996 33.2145C96.627 33.1214 96.627 33.0224 96.5996 32.9293C96.5654 32.8425 96.5132 32.764 96.4464 32.6989C96.3723 32.6361 96.2805 32.5978 96.1838 32.5892L96.1947 32.5783Z" fill="#E97522"/>
<path d="M104.427 32.5789L102.916 32.3595L102.249 30.9883C102.206 30.9029 102.14 30.831 102.059 30.7809C101.978 30.7307 101.885 30.7041 101.789 30.7041C101.694 30.7041 101.6 30.7307 101.519 30.7809C101.438 30.831 101.372 30.9029 101.33 30.9883L100.64 32.3595L99.1298 32.5899C99.033 32.5984 98.9413 32.6367 98.8671 32.6996C98.8003 32.7646 98.7481 32.8431 98.7139 32.93C98.6865 33.0231 98.6865 33.1221 98.7139 33.2152C98.7397 33.3066 98.7887 33.3898 98.8562 33.4565L99.9506 34.5535L99.6879 36.0564C99.6657 36.1465 99.6657 36.2406 99.6879 36.3306C99.7264 36.4208 99.7865 36.4999 99.863 36.561C99.9392 36.6173 100.031 36.648 100.126 36.6488C100.215 36.6766 100.31 36.6766 100.399 36.6488L101.745 35.9467L103.103 36.6488C103.192 36.6759 103.287 36.6759 103.376 36.6488C103.471 36.648 103.563 36.6173 103.639 36.561C103.718 36.5026 103.779 36.4226 103.814 36.3306C103.836 36.2406 103.836 36.1465 103.814 36.0564L103.617 34.5535L104.711 33.4565C104.783 33.3928 104.832 33.3085 104.854 33.2152C104.881 33.1221 104.881 33.0231 104.854 32.93C104.819 32.8431 104.767 32.7646 104.7 32.6996C104.626 32.6367 104.534 32.5984 104.438 32.5899L104.427 32.5789Z" fill="#E97522"/>
<path d="M112.667 32.5783L111.157 32.3589L110.489 30.9876C110.448 30.8984 110.379 30.8252 110.292 30.7792C110.211 30.726 110.115 30.6991 110.018 30.7024C109.925 30.7007 109.834 30.7275 109.756 30.7792C109.669 30.8252 109.6 30.8984 109.559 30.9876L108.869 32.3589L107.37 32.5892C107.273 32.5978 107.181 32.6361 107.107 32.6989C107.033 32.7577 106.98 32.8383 106.954 32.9293C106.927 33.0224 106.927 33.1214 106.954 33.2145C106.976 33.3052 107.021 33.3885 107.085 33.4559L108.18 34.5529L107.917 36.0557C107.895 36.1458 107.895 36.2399 107.917 36.33C107.959 36.418 108.019 36.4964 108.092 36.5604C108.173 36.6156 108.268 36.6461 108.366 36.6481C108.455 36.674 108.55 36.674 108.64 36.6481L109.986 35.9461L111.332 36.6481C111.425 36.6749 111.523 36.6749 111.616 36.6481C111.711 36.6459 111.802 36.6154 111.879 36.5604C111.955 36.4987 112.015 36.4197 112.054 36.33C112.076 36.2399 112.076 36.1458 112.054 36.0557L111.846 34.5529L112.941 33.4559C113.008 33.3891 113.057 33.306 113.083 33.2145C113.105 33.1207 113.105 33.0231 113.083 32.9293C113.049 32.8397 112.992 32.7604 112.919 32.6989C112.848 32.6381 112.76 32.5999 112.667 32.5892V32.5783Z" fill="#E97522"/>
<path d="M22.3099 67.7484C26.1622 76.5244 38.2227 104.103 40.6523 113.493C40.7886 114.555 41.2168 115.557 41.889 116.389C45.2514 120.217 49.5134 123.142 54.2888 124.902C54.5682 124.991 54.8626 125.023 55.1546 124.996C55.4465 124.968 55.7301 124.883 55.9883 124.743C56.2466 124.604 56.4743 124.415 56.658 124.185C56.8417 123.956 56.9776 123.693 57.0577 123.41C58.3066 118.464 58.3066 113.283 57.0577 108.337C56.8693 107.598 56.4921 106.922 55.9632 106.374C49.9987 100.077 32.6521 72.1254 28.0227 64.6878C27.5506 64.0724 26.8767 63.644 26.12 63.4785C25.3633 63.313 24.5726 63.4209 23.8876 63.7833C23.2026 64.1456 22.6675 64.739 22.3768 65.4585C22.0861 66.1781 22.0585 66.9775 22.2989 67.7155L22.3099 67.7484Z" fill="#30302F"/>
<path d="M28.7883 72.6303C32.1701 80.408 41.6696 102.567 43.6833 110.246C43.7358 110.448 43.7262 110.66 43.6559 110.856C43.5855 111.052 43.4578 111.222 43.2893 111.343C42.3686 112.023 41.4879 112.755 40.6518 113.537C38.5505 105.376 29.445 84.05 24.9141 73.6395C25.6911 73.102 26.5119 72.5974 27.3437 72.1367C27.4694 72.0666 27.6084 72.0238 27.7516 72.0109C27.8949 71.9981 28.0392 72.0155 28.1753 72.062C28.3115 72.1085 28.4363 72.1831 28.5419 72.281C28.6475 72.3789 28.7314 72.4979 28.7883 72.6303Z" fill="#6E6E6E"/>
<path d="M56.5133 121.928C56.7462 122.032 56.9359 122.213 57.0498 122.441C57.1636 122.67 57.1945 122.93 57.1372 123.179C57.1066 123.265 57.081 123.353 57.0605 123.442C56.977 123.722 56.8386 123.982 56.6534 124.208C56.4682 124.433 56.24 124.619 55.9821 124.755C55.7242 124.891 55.4418 124.974 55.1516 124.999C54.8613 125.024 54.5689 124.991 54.2917 124.901C52.5789 124.318 50.9348 123.55 49.3887 122.609C49.7817 121.62 50.3957 120.734 51.1835 120.02C51.3487 119.86 51.5622 119.761 51.7902 119.737C52.0182 119.713 52.2477 119.766 52.4421 119.888C53.7381 120.684 55.1002 121.367 56.5133 121.928Z" fill="#6E6E6E"/>
<path d="M44.2671 101.382C44.1614 101.526 44.0223 101.641 43.8619 101.719C43.7016 101.796 43.5248 101.833 43.3469 101.827C43.169 101.82 42.9954 101.77 42.841 101.681C42.6867 101.593 42.5564 101.467 42.4613 101.316L39.5392 95.7655C39.4149 95.6451 39.3208 95.497 39.2646 95.3331C39.2084 95.1693 39.1917 94.9944 39.2158 94.8229C39.24 94.6513 39.3044 94.488 39.4037 94.3461C39.503 94.2043 39.6344 94.0881 39.7872 94.007C39.9399 93.9259 40.1096 93.8822 40.2825 93.8795C40.4553 93.8768 40.6263 93.9152 40.7815 93.9915C40.9367 94.0678 41.0716 94.1799 41.1753 94.3185C41.2789 94.4572 41.3484 94.6185 41.3779 94.7892L44.3109 100.373C44.4069 100.54 44.4575 100.729 44.4575 100.921C44.4575 101.114 44.4069 101.303 44.3109 101.47L44.2671 101.382Z" fill="white"/>
<path d="M39.1454 91.597C39.0396 91.7406 38.9006 91.8561 38.7402 91.9336C38.5799 92.0111 38.4031 92.0482 38.2252 92.0417C38.0473 92.0352 37.8736 91.9854 37.7193 91.8964C37.565 91.8074 37.4346 91.6821 37.3396 91.5312L36.7048 90.3136C36.687 90.0953 36.7347 89.8767 36.8419 89.6859C36.949 89.495 37.1107 89.3407 37.3062 89.2428C37.5016 89.1448 37.7217 89.1078 37.9383 89.1363C38.155 89.1649 38.3581 89.2578 38.5216 89.4031L39.1563 90.6207C39.2619 90.7841 39.318 90.9746 39.318 91.1692C39.318 91.3638 39.2619 91.5543 39.1563 91.7177L39.1454 91.597Z" fill="white"/>
<path d="M55.3523 105.726C56.1537 106.429 56.7384 107.346 57.0377 108.37C57.811 111.548 58.1134 114.823 57.9352 118.089C56.2093 117.744 54.4174 118.005 52.8608 118.828C51.3042 119.651 50.0778 120.986 49.3878 122.609C46.5961 120.918 44.0698 118.822 41.891 116.389C41.3874 115.821 41.037 115.134 40.8732 114.392C40.8732 114.118 40.7419 113.822 40.6543 113.493C44.8184 109.698 49.8758 107.026 55.3523 105.726Z" fill="#208DBE"/>
<path d="M42.5914 111.848C42.7243 111.754 42.8761 111.692 43.0359 111.665C43.1958 111.638 43.3596 111.646 43.5157 111.691C43.6717 111.735 43.816 111.813 43.9382 111.92C44.0604 112.027 44.1573 112.159 44.2221 112.308C44.4024 112.846 44.6932 113.339 45.0757 113.756C46.7582 115.622 48.6411 117.296 50.6901 118.748C50.8057 118.838 50.902 118.951 50.9731 119.08C51.0442 119.209 51.0887 119.351 51.1041 119.497C51.1194 119.643 51.1052 119.791 51.0622 119.932C51.0193 120.073 50.9486 120.204 50.8543 120.316C50.2206 120.977 49.7223 121.756 49.3877 122.609C46.5961 120.918 44.0698 118.822 41.891 116.389C41.3874 115.821 41.037 115.134 40.8732 114.393C40.8732 114.118 40.7419 113.822 40.6543 113.493C41.2672 112.934 41.9129 112.396 42.5914 111.848Z" fill="#83BCDC"/>
<path d="M22.3107 67.7487C22.0702 67.0107 22.0978 66.2113 22.3885 65.4917C22.6792 64.7722 23.2144 64.1788 23.8993 63.8165C24.5843 63.4541 25.375 63.3462 26.1317 63.5117C26.8884 63.6772 27.5624 64.1055 28.0345 64.721C28.0345 64.721 29.3368 66.915 31.4162 70.206C29.1295 71.1065 26.9493 72.2581 24.9154 73.6395L22.3107 67.7487Z" fill="#418CBA"/>
<path d="M22.4747 64.8197C22.6439 64.5554 22.8824 64.3429 23.1641 64.2054C23.4458 64.0679 23.7598 64.0108 24.0717 64.0403C24.3836 64.0697 24.6814 64.1846 24.9325 64.3724C25.1836 64.5602 25.3783 64.8136 25.4953 65.1049C25.4953 65.1049 27.1041 68.6921 27.9578 70.7545C28.0511 70.996 28.0562 71.2629 27.9721 71.5079C27.8879 71.7528 27.72 71.96 27.4981 72.0928C26.6007 72.5864 25.7361 73.124 24.9043 73.6944L22.3106 67.8035C22.0812 67.3336 21.9759 66.8125 22.0046 66.2902C22.0334 65.7678 22.1952 65.2615 22.4747 64.8197Z" fill="#83BCDC"/>
<path d="M111.512 96.6593C111.424 96.4389 111.289 96.2404 111.117 96.0775L103.141 88.0749C102.974 87.9085 102.776 87.7768 102.559 87.6874C102.341 87.5981 102.109 87.5529 101.874 87.5544C101.8 87.5441 101.725 87.5441 101.651 87.5544C101.577 87.5441 101.502 87.5441 101.428 87.5544H99.2083C98.9113 87.5537 98.6188 87.6274 98.357 87.7687C98.0944 87.9158 97.869 88.1219 97.6982 88.371C97.1843 88.9393 96.5583 89.3933 95.8603 89.7039C95.1622 90.0146 94.4074 90.1751 93.6442 90.1751C92.881 90.1751 92.1262 90.0146 91.4281 89.7039C90.73 89.3933 90.104 88.9393 89.5901 88.371C89.4257 88.1201 89.2031 87.9133 88.9415 87.7687C88.6797 87.6274 88.3871 87.5537 88.0901 87.5544H85.6577C85.3848 87.5151 85.1066 87.5431 84.8469 87.636C84.5899 87.7289 84.3552 87.875 84.1577 88.0647L76.1813 96.0571C76.0207 96.2273 75.8904 96.4241 75.7962 96.6389C75.7046 96.8588 75.6564 97.0946 75.6543 97.333C75.6553 97.5683 75.7036 97.8009 75.7962 98.0169C75.887 98.2366 76.0176 98.4374 76.1813 98.609L80.5394 102.967C80.8812 103.302 81.3396 103.489 81.8165 103.488C82.0513 103.49 82.284 103.444 82.5014 103.355C82.7188 103.266 82.9166 103.134 83.0834 102.967L84.0969 101.947V118.003C84.0966 118.477 84.2824 118.932 84.6137 119.269C84.9545 119.606 85.4127 119.797 85.8908 119.799H101.428C101.664 119.796 101.897 119.751 102.117 119.667C102.338 119.575 102.538 119.44 102.705 119.269C103.036 118.931 103.225 118.478 103.232 118.003V101.977L104.246 102.998C104.585 103.33 105.039 103.516 105.512 103.519C105.988 103.518 106.444 103.327 106.779 102.988L111.127 98.6294C111.297 98.4647 111.432 98.2667 111.523 98.0475C111.611 97.827 111.656 97.5912 111.654 97.3534C111.655 97.1147 111.607 96.8784 111.512 96.6593Z" fill="white"/>
</svg>
