<svg width="180" height="180" viewBox="0 0 180 180" fill="none" xmlns="http://www.w3.org/2000/svg">
<path d="M16 70.4546H143.708V153.429C143.709 154.16 143.563 154.884 143.279 155.559C142.995 156.234 142.578 156.847 142.053 157.361C140.991 158.405 139.556 158.994 138.059 159H21.7058C20.209 158.994 18.7745 158.405 17.7118 157.361C17.1766 156.852 16.7495 156.241 16.4555 155.566C16.1616 154.891 16.0067 154.164 16 153.429V70.4546Z" fill="#E8F0F9"/>
<path d="M135.229 70.4546V153.429C135.208 154.914 134.598 156.331 133.53 157.373C132.462 158.416 131.023 159 129.523 159H138.105C139.602 158.994 141.036 158.405 142.099 157.361C142.624 156.847 143.041 156.234 143.325 155.559C143.609 154.884 143.754 154.16 143.754 153.429V70.4546H135.229Z" fill="#D2E2EB"/>
<path d="M143.708 70.4548H16V53.1886C16.0003 52.4559 16.1466 51.7303 16.4306 51.0536C16.7145 50.3769 17.1305 49.7623 17.6547 49.245C18.1888 48.7234 18.8215 48.3112 19.5166 48.032C20.2118 47.7528 20.9557 47.6121 21.7058 47.6178H138.105C139.6 47.6211 141.035 48.2054 142.099 49.245C142.623 49.7623 143.039 50.3769 143.323 51.0536C143.607 51.7303 143.754 52.4559 143.754 53.1886L143.708 70.4548Z" fill="#306694"/>
<path d="M138.107 47.6177H129.582C130.328 47.6073 131.068 47.7436 131.76 48.0189C132.451 48.2941 133.081 48.7028 133.612 49.2212C134.143 49.7395 134.564 50.3572 134.852 51.0383C135.14 51.7194 135.288 52.4503 135.288 53.1886V70.4547H143.767V53.1886C143.766 52.4558 143.62 51.7302 143.336 51.0535C143.052 50.3768 142.636 49.7622 142.112 49.2449C141.045 48.2025 139.606 47.618 138.107 47.6177Z" fill="white" fill-opacity="0.12"/>
<path d="M31.8281 146.186V25.8999C31.8281 25.387 31.9303 24.8792 32.1289 24.4054C32.3275 23.9317 32.6185 23.5015 32.9853 23.1393C33.3521 22.7772 33.7874 22.4902 34.2664 22.295C34.7454 22.0997 35.2586 22 35.7766 22.0015H123.932C124.978 22.0015 125.982 22.4115 126.724 23.1419C127.466 23.8724 127.886 24.8639 127.892 25.8999V146.186C127.893 146.699 127.788 147.207 127.584 147.678C127.182 148.634 126.415 149.393 125.45 149.791C124.968 149.985 124.452 150.085 123.932 150.085H35.7766C35.2601 150.083 34.7487 149.984 34.2702 149.791C33.7877 149.596 33.3493 149.308 32.9807 148.943C32.6127 148.583 32.3217 148.152 32.1248 147.678C31.9292 147.204 31.8284 146.698 31.8281 146.186Z" fill="white"/>
<path d="M123.932 22.0013H118.227C118.745 21.997 119.259 22.0946 119.739 22.2886C120.219 22.4826 120.655 22.769 121.022 23.1313C121.39 23.4922 121.681 23.9225 121.878 24.3969C122.078 24.869 122.179 25.3765 122.175 25.8885V146.186C122.18 146.698 122.079 147.206 121.878 147.678C121.501 148.615 120.773 149.371 119.847 149.791C119.365 149.985 118.85 150.084 118.329 150.085H124.035C124.555 150.084 125.071 149.985 125.553 149.791C126.518 149.393 127.285 148.633 127.687 147.678C127.891 147.207 127.996 146.699 127.995 146.186V25.8998C127.992 25.3781 127.884 24.8622 127.677 24.3824C127.471 23.9025 127.169 23.4683 126.791 23.1053C126.413 22.7422 125.965 22.4576 125.474 22.268C124.983 22.0785 124.459 21.9878 123.932 22.0013Z" fill="#F2F2F2"/>
<path d="M76.3347 71.4043H41.5633C40.8231 71.3991 40.1144 71.1071 39.5891 70.5907C39.0881 70.0663 38.8137 69.3689 38.8245 68.6471V31.6063C38.8273 30.8827 39.1149 30.1886 39.6264 29.6716C40.1378 29.1546 40.8327 28.8555 41.5633 28.8379H76.3347C77.0753 28.8409 77.7847 29.1335 78.3084 29.652C78.8321 30.1706 79.1276 30.873 79.1306 31.6063V68.6471C79.1261 69.3769 78.8308 70.0754 78.309 70.5907C77.7818 71.1029 77.0733 71.3909 76.3347 71.393V71.4043Z" fill="#464547"/>
<path d="M65.0712 35.256L64.7288 35.5837V35.256H63.1084C62.6256 35.8861 61.9951 36.3903 61.2713 36.725C60.5476 37.0597 59.7524 37.2148 58.9545 37.177C58.1567 37.2148 57.3615 37.0597 56.6377 36.725C55.914 36.3903 55.2835 35.8861 54.8007 35.256H53.1346V35.5611L52.7922 35.2334L46.8125 41.1432L50.0648 44.3523L53.1118 41.3579V56.3414H64.7517V41.3579L67.7986 44.3523L71.0509 41.1432L65.0712 35.256Z" fill="white"/>
<path d="M64.763 57.675H53.1345C52.7754 57.6705 52.432 57.5288 52.1759 57.2795C52.0522 57.1561 51.9542 57.0098 51.8876 56.8488C51.821 56.6879 51.7871 56.5155 51.7879 56.3416V44.6011L51.0348 45.3243C50.9102 45.4469 50.7624 45.5439 50.5998 45.6099C50.4373 45.6758 50.2632 45.7093 50.0876 45.7085C49.901 45.7096 49.7162 45.672 49.5452 45.598C49.3742 45.524 49.2208 45.4154 49.0948 45.2791L45.8196 42.07C45.6975 41.9463 45.6007 41.8005 45.5343 41.6406C45.4665 41.4795 45.4316 41.3066 45.4316 41.1321C45.4316 40.9575 45.4665 40.7847 45.5343 40.6236C45.6007 40.4636 45.6975 40.3178 45.8196 40.1942L51.7994 34.307C51.9451 34.1656 52.1204 34.0575 52.3129 33.9906C52.5125 33.951 52.7181 33.951 52.9177 33.9906H54.8006C55.0234 33.992 55.2425 34.0462 55.4397 34.1488C55.6338 34.2584 55.8013 34.4089 55.9304 34.5895C56.3153 35.0057 56.7834 35.338 57.305 35.5654C57.8266 35.7928 58.3903 35.9102 58.9602 35.9102C59.5301 35.9102 60.0938 35.7928 60.6154 35.5654C61.137 35.338 61.6051 35.0057 61.99 34.5895C62.116 34.4062 62.2842 34.2552 62.4807 34.1488C62.6774 34.0449 62.8969 33.9906 63.1198 33.9906H65.0711C65.2468 33.9898 65.4209 34.0233 65.5834 34.0893C65.7459 34.1552 65.8937 34.2522 66.0183 34.3748L71.9866 40.262C72.1122 40.3852 72.2129 40.5309 72.2833 40.6914C72.3511 40.8525 72.386 41.0253 72.386 41.1999C72.386 41.3744 72.3511 41.5473 72.2833 41.7084C72.2129 41.8689 72.1122 42.0146 71.9866 42.1378L68.7343 45.3469C68.6097 45.4695 68.4619 45.5665 68.2994 45.6325C68.1368 45.6984 67.9628 45.7319 67.7871 45.7311C67.6115 45.7319 67.4374 45.6984 67.2749 45.6325C67.1124 45.5665 66.9646 45.4695 66.84 45.3469L66.121 44.6011V56.3416C66.1223 56.5163 66.0873 56.6894 66.0183 56.8501C65.9545 57.0142 65.8529 57.1612 65.7216 57.2795C65.5974 57.4065 65.4483 57.5071 65.2835 57.5751C65.1187 57.6431 64.9416 57.6771 64.763 57.675ZM54.4925 55.0308H63.4507V41.3581C63.451 41.0962 63.5304 40.8404 63.6789 40.6236C63.8278 40.4062 64.0382 40.2371 64.2837 40.1377C64.5351 40.0434 64.8087 40.0238 65.0711 40.0812C65.3314 40.1364 65.5694 40.2661 65.7558 40.4541L67.8442 42.5107L69.1679 41.2112L64.8772 36.9625C64.6624 36.9881 64.4448 36.9529 64.2495 36.8608C64.1139 36.8033 63.9871 36.7272 63.8729 36.6348H63.7588C62.4643 37.8667 60.7385 38.5548 58.9431 38.5548C57.1476 38.5548 55.4219 37.8667 54.1273 36.6348H54.0132C53.9018 36.7311 53.7744 36.8076 53.6366 36.8608C53.4373 36.9392 53.2232 36.9739 53.009 36.9625L48.7182 41.1886L50.0762 42.5333L52.1759 40.4202C52.3584 40.2292 52.5988 40.1022 52.8606 40.0586C53.1226 39.9822 53.4023 39.9901 53.6595 40.0812C53.903 40.184 54.1125 40.3523 54.2643 40.5671C54.4094 40.7848 54.4849 41.0408 54.4811 41.3016V54.9743L54.4925 55.0308Z" fill="white"/>
<path d="M118.853 32.9736H91.7156C91.1761 32.95 90.666 32.7237 90.2891 32.3408C89.9086 31.9582 89.6953 31.4428 89.6953 30.9058C89.6953 30.3688 89.9086 29.8533 90.2891 29.4707C90.666 29.0878 91.1761 28.8615 91.7156 28.8379H118.853C119.392 28.8615 119.902 29.0878 120.279 29.4707C120.66 29.8533 120.873 30.3688 120.873 30.9058C120.873 31.4428 120.66 31.9582 120.279 32.3408C119.902 32.7237 119.392 32.95 118.853 32.9736Z" fill="#83BCDC"/>
<path d="M118.852 42.5896H86.0667C85.7867 42.5947 85.5082 42.5487 85.245 42.454C84.98 42.3536 84.7391 42.1997 84.5375 42.002C84.3327 41.8107 84.1696 41.58 84.0582 41.324C83.9538 41.0691 83.8996 40.7968 83.8984 40.5217C83.9006 40.2431 83.9548 39.9673 84.0582 39.7081C84.2724 39.1967 84.6829 38.7903 85.1994 38.5781C85.4609 38.4775 85.7406 38.4314 86.021 38.4426H118.852C119.392 38.4657 119.903 38.693 120.279 39.0777C120.655 39.4624 120.867 39.9752 120.872 40.5104C120.869 41.0466 120.656 41.5608 120.279 41.9455C119.904 42.3326 119.393 42.563 118.852 42.5896Z" fill="#83BCDC"/>
<path d="M118.852 52.1946H86.0667C85.7867 52.1997 85.5082 52.1537 85.245 52.059C84.9827 51.9586 84.7424 51.809 84.5375 51.6183C84.3324 51.4228 84.1694 51.1884 84.0582 50.929C83.9538 50.6741 83.8996 50.4018 83.8984 50.1267C83.9006 49.8481 83.9548 49.5722 84.0582 49.3131C84.2724 48.8017 84.6829 48.3953 85.1994 48.1831C85.4609 48.0825 85.7406 48.0364 86.021 48.0475H118.852C119.392 48.0711 119.902 48.2974 120.279 48.6803C120.659 49.0629 120.873 49.5784 120.873 50.1154C120.873 50.6524 120.659 51.1679 120.279 51.5505C119.902 51.9334 119.392 52.1597 118.852 52.1833V52.1946Z" fill="#83BCDC"/>
<path d="M118.854 61.7996H86.068C85.7876 61.8108 85.5079 61.7646 85.2464 61.664C84.7299 61.4519 84.3195 61.0455 84.1052 60.534C83.892 60.0122 83.892 59.4287 84.1052 58.9069C84.3195 58.3954 84.7299 57.989 85.2464 57.7769C85.5079 57.6763 85.7876 57.6301 86.068 57.6413H118.854C119.393 57.6649 119.903 57.8911 120.28 58.2741C120.661 58.6567 120.874 59.1721 120.874 59.7091C120.874 60.2461 120.661 60.7616 120.28 61.1442C119.903 61.5271 119.393 61.7534 118.854 61.777V61.7996Z" fill="#E97522" fill-opacity="0.76"/>
<path d="M118.854 80.862H40.8661C40.5857 80.8742 40.3058 80.828 40.0445 80.7264C39.7774 80.6357 39.5352 80.4848 39.3369 80.2857C39.1224 80.1043 38.9476 79.8813 38.8234 79.6304C38.7106 79.3757 38.6523 79.1005 38.6523 78.8224C38.6523 78.5443 38.7106 78.2692 38.8234 78.0145C38.9349 77.7585 39.098 77.5278 39.3027 77.3365C39.501 77.1374 39.7432 76.9866 40.0102 76.8958C40.2715 76.7942 40.5514 76.7481 40.8319 76.7602H118.854C119.393 76.7738 119.905 76.997 120.28 77.3817C120.661 77.7662 120.875 78.2836 120.875 78.8224C120.875 79.3613 120.661 79.8786 120.28 80.2631C119.902 80.6395 119.39 80.8544 118.854 80.862Z" fill="#83BCDC"/>
<path d="M118.853 90.478H40.8655C40.5851 90.4901 40.3052 90.4439 40.0438 90.3424C39.7788 90.2475 39.5375 90.0972 39.3363 89.9017C39.1341 89.7082 38.9714 89.478 38.857 89.2237C38.7439 88.9671 38.6855 88.6901 38.6855 88.4101C38.6855 88.1301 38.7439 87.8531 38.857 87.5965C38.9714 87.3422 39.1341 87.112 39.3363 86.9185C39.5375 86.723 39.7788 86.5727 40.0438 86.4778C40.3052 86.3763 40.5851 86.3301 40.8655 86.3422H118.853C119.392 86.3658 119.903 86.5921 120.279 86.975C120.66 87.3576 120.873 87.8731 120.873 88.4101C120.873 88.9471 120.66 89.4626 120.279 89.8452C119.903 90.2281 119.392 90.4544 118.853 90.478Z" fill="#83BCDC"/>
<path d="M118.854 100.095H40.8662C40.5863 100.1 40.3077 100.054 40.0446 99.959C39.7768 99.8642 39.5346 99.7095 39.337 99.507C39.1212 99.3223 38.9464 99.0953 38.8235 98.8403C38.7102 98.5878 38.6518 98.3144 38.6523 98.038C38.6519 97.758 38.7102 97.481 38.8235 97.2244C38.9379 96.9701 39.1006 96.7399 39.3028 96.5465C39.5011 96.3474 39.7433 96.1965 40.0103 96.1058C40.2716 96.0042 40.5515 95.958 40.832 95.9702H118.854C119.394 95.9933 119.904 96.2206 120.28 96.6053C120.656 96.9901 120.868 97.5028 120.874 98.038C120.87 98.5743 120.657 99.0884 120.28 99.4731C119.903 99.856 119.393 100.082 118.854 100.106V100.095Z" fill="#83BCDC"/>
<path d="M118.853 109.699H40.8652C40.5847 109.711 40.3048 109.665 40.0435 109.563C39.7785 109.468 39.5372 109.318 39.336 109.122C39.1313 108.931 38.9682 108.7 38.8567 108.444C38.7434 108.188 38.6851 107.911 38.6856 107.631C38.685 107.354 38.7434 107.081 38.8567 106.829C38.9682 106.573 39.1313 106.342 39.336 106.151C39.5365 105.952 39.7778 105.797 40.0435 105.699C40.3078 105.608 40.5856 105.562 40.8652 105.563H118.853C119.392 105.587 119.902 105.813 120.279 106.196C120.66 106.578 120.873 107.094 120.873 107.631C120.873 108.168 120.66 108.683 120.279 109.066C120.096 109.26 119.875 109.416 119.63 109.525C119.385 109.633 119.121 109.692 118.853 109.699Z" fill="#83BCDC"/>
<path d="M104.715 119.304H40.8662C40.5858 119.316 40.3059 119.27 40.0446 119.168C39.7775 119.077 39.5353 118.927 39.337 118.727C39.1199 118.539 38.945 118.308 38.8235 118.049C38.7102 117.793 38.6519 117.516 38.6523 117.236C38.6518 116.959 38.7102 116.686 38.8235 116.434C38.935 116.178 39.0981 115.947 39.3028 115.756C39.5033 115.557 39.7446 115.402 40.0103 115.304C40.2746 115.213 40.5523 115.167 40.832 115.168H104.737C105.021 115.167 105.302 115.213 105.57 115.304C105.833 115.408 106.074 115.561 106.278 115.756C106.483 115.944 106.643 116.176 106.746 116.434C106.859 116.686 106.918 116.959 106.917 117.236C106.917 117.516 106.859 117.793 106.746 118.049C106.643 118.307 106.483 118.539 106.278 118.727C106.076 118.922 105.835 119.072 105.57 119.168C105.305 119.27 105.022 119.316 104.737 119.304H104.715Z" fill="#4DA6DD"/>
<path d="M118.854 119.315H40.8662C40.5858 119.328 40.3059 119.281 40.0446 119.18C39.7795 119.085 39.5382 118.935 39.3371 118.739C39.1197 118.547 38.9448 118.312 38.8235 118.05C38.7092 117.798 38.6508 117.524 38.6524 117.248C38.6519 116.967 38.7102 116.69 38.8235 116.434C38.9379 116.18 39.1006 115.949 39.3028 115.756C39.504 115.56 39.7453 115.41 40.0104 115.315C40.2717 115.214 40.5516 115.167 40.832 115.18H118.854C119.393 115.203 119.903 115.43 120.28 115.812C120.661 116.195 120.874 116.711 120.874 117.248C120.874 117.785 120.661 118.3 120.28 118.683C119.903 119.065 119.393 119.292 118.854 119.315Z" fill="#83BCDC"/>
<path d="M104.714 128.92H40.8655C40.5851 128.933 40.3052 128.886 40.0438 128.785C39.7788 128.69 39.5375 128.54 39.3363 128.344C39.1341 128.151 38.9714 127.92 38.857 127.666C38.7439 127.409 38.6855 127.132 38.6855 126.852C38.6855 126.572 38.7439 126.296 38.857 126.039C38.9714 125.785 39.1341 125.554 39.3363 125.361C39.5375 125.165 39.7788 125.015 40.0438 124.92C40.3052 124.819 40.5851 124.772 40.8655 124.785H104.771C105.055 124.773 105.339 124.819 105.604 124.92C105.866 125.021 106.107 125.17 106.312 125.361C106.514 125.552 106.673 125.783 106.779 126.039C106.893 126.296 106.951 126.572 106.951 126.852C106.951 127.132 106.893 127.409 106.779 127.666C106.673 127.922 106.514 128.153 106.312 128.344C106.107 128.535 105.866 128.684 105.604 128.785C105.339 128.886 105.055 128.932 104.771 128.92H104.714Z" fill="#83BCDC"/>
<path d="M118.853 71.4043H86.0669C85.7926 71.4043 85.521 71.3508 85.2677 71.2469C85.0143 71.143 84.7841 70.9906 84.5902 70.7986C84.3963 70.6066 84.2424 70.3786 84.1375 70.1278C84.0325 69.8769 83.9785 69.608 83.9785 69.3364C83.9785 69.0649 84.0325 68.796 84.1375 68.5451C84.2424 68.2942 84.3963 68.0662 84.5902 67.8742C84.7841 67.6822 85.0143 67.5299 85.2677 67.426C85.521 67.322 85.7926 67.2686 86.0669 67.2686H118.853C119.127 67.2686 119.398 67.322 119.652 67.426C119.905 67.5299 120.135 67.6822 120.329 67.8742C120.523 68.0662 120.677 68.2942 120.782 68.5451C120.887 68.796 120.941 69.0649 120.941 69.3364C120.941 69.608 120.887 69.8769 120.782 70.1278C120.677 70.3786 120.523 70.6066 120.329 70.7986C120.135 70.9906 119.905 71.143 119.652 71.2469C119.398 71.3508 119.127 71.4043 118.853 71.4043Z" fill="#E97522" fill-opacity="0.76"/>
<path d="M47.7126 66.624L47.5072 65.4941L48.3631 64.6692C48.416 64.615 48.4551 64.5492 48.4772 64.4771C48.494 64.4051 48.49 64.3299 48.4658 64.2599C48.4416 64.19 48.3981 64.1283 48.3403 64.0816C48.287 64.0317 48.219 64 48.1463 63.9912L47.0051 63.8217L46.4117 62.6804C46.3788 62.6116 46.3275 62.553 46.2633 62.5109C46.1971 62.4743 46.1224 62.4551 46.0465 62.4551C45.9706 62.4551 45.896 62.4743 45.8297 62.5109C45.7645 62.5551 45.7099 62.613 45.6699 62.6804L45.145 63.7539L44.0038 63.9234C43.927 63.9298 43.8547 63.9616 43.7984 64.0138C43.7381 64.0592 43.6941 64.1226 43.6729 64.1946C43.6559 64.2652 43.6559 64.3387 43.6729 64.4093C43.695 64.4814 43.7341 64.5472 43.787 64.6014L44.6543 65.4263L44.4489 66.5562C44.4262 66.626 44.4262 66.7011 44.4489 66.7709C44.471 66.8427 44.52 66.9033 44.5858 66.9404C44.6432 66.9893 44.7156 67.0172 44.7912 67.0195C44.8617 67.042 44.9376 67.042 45.0081 67.0195L46.0693 66.4658L47.1306 67.0195C47.2014 67.0399 47.2766 67.0399 47.3475 67.0195C47.4265 67.0171 47.5026 66.9893 47.5643 66.9404C47.6284 66.8984 47.6797 66.8398 47.7126 66.7709C47.7301 66.6966 47.7301 66.6193 47.7126 66.5449V66.624Z" fill="#E97522"/>
<path d="M54.6176 63.958L53.4764 63.7885L52.883 62.6811C52.8537 62.61 52.8015 62.5505 52.7347 62.5116C52.6722 62.4757 52.6015 62.4562 52.5292 62.4551C52.4532 62.4548 52.3784 62.4743 52.3124 62.5116C52.2483 62.5536 52.197 62.6123 52.1641 62.6811L51.6277 63.7546L50.4866 63.9241C50.4138 63.9328 50.3458 63.9645 50.2926 64.0145C50.2322 64.0599 50.1882 64.1232 50.167 64.1953C50.1501 64.2658 50.1501 64.3394 50.167 64.4099C50.1891 64.482 50.2282 64.5479 50.2811 64.602L51.137 65.4269L50.9316 66.5569C50.9146 66.6275 50.9146 66.701 50.9316 66.7716C50.9609 66.8393 51.0082 66.8979 51.0686 66.9411C51.131 66.9887 51.2067 67.0163 51.2854 67.0202C51.3561 67.0413 51.4315 67.0413 51.5022 67.0202L52.5635 66.4665L53.6248 67.0202C53.6951 67.0435 53.7712 67.0435 53.8416 67.0202C53.9168 67.0162 53.9888 66.9885 54.047 66.9411C54.1073 66.8979 54.1546 66.8393 54.1839 66.7716C54.2009 66.701 54.2009 66.6275 54.1839 66.5569L53.9785 65.4269L54.8344 64.602C54.8913 64.551 54.9312 64.484 54.9485 64.4099C54.9771 64.3412 54.9771 64.264 54.9485 64.1953C54.9319 64.1241 54.8917 64.0604 54.8344 64.0145C54.7758 63.966 54.7046 63.9347 54.629 63.9241L54.6176 63.958Z" fill="#E97522"/>
<path d="M61.0863 63.9577L59.9452 63.7882L59.3632 62.6808C59.3295 62.6155 59.2781 62.5607 59.2148 62.5226C59.1514 62.4783 59.0756 62.4546 58.998 62.4546C58.9204 62.4546 58.8447 62.4783 58.7812 62.5226C58.7179 62.5607 58.6665 62.6155 58.6328 62.6808L58.0965 63.7543L56.9553 63.9238C56.8785 63.9302 56.8062 63.962 56.7499 64.0142C56.6906 64.0594 56.6467 64.1216 56.6242 64.1923C56.6018 64.2631 56.6018 64.3389 56.6244 64.4097C56.6423 64.481 56.6776 64.547 56.7271 64.6018L57.583 65.4266L57.389 66.5566C57.3756 66.6291 57.3835 66.7038 57.4119 66.772C57.4402 66.8401 57.4877 66.8987 57.5487 66.9408C57.6061 66.9897 57.6786 67.0176 57.7541 67.0199C57.8246 67.0424 57.9005 67.0424 57.971 67.0199L59.0322 66.4662L60.0935 67.0199C60.1642 67.041 60.2396 67.041 60.3104 67.0199C60.3859 67.0176 60.4584 66.9897 60.5158 66.9408C60.5768 66.8987 60.6243 66.8401 60.6526 66.772C60.6809 66.7038 60.6889 66.6291 60.6755 66.5566L60.4815 65.4266L61.3374 64.6018C61.3903 64.5476 61.4294 64.4818 61.4515 64.4097C61.4685 64.3391 61.4685 64.2655 61.4515 64.195C61.4303 64.1229 61.3863 64.0596 61.326 64.0142C61.2698 63.962 61.1974 63.9302 61.1206 63.9238L61.0863 63.9577Z" fill="#E97522"/>
<path d="M67.5707 63.958L66.4295 63.7885L65.8475 62.6811C65.8212 62.611 65.7678 62.5541 65.6992 62.5229C65.6399 62.4789 65.5679 62.4551 65.4938 62.4551C65.4162 62.455 65.3405 62.4787 65.277 62.5229C65.2137 62.561 65.1623 62.6157 65.1286 62.6811L64.5808 63.7546L63.4397 63.9241C63.3669 63.9328 63.2989 63.9645 63.2457 64.0145C63.1854 64.0599 63.1414 64.1232 63.1202 64.1952C63.1032 64.2658 63.1032 64.3394 63.1202 64.4099C63.1423 64.482 63.1814 64.5479 63.2343 64.602L64.0901 65.4269L63.8847 66.5569C63.8678 66.6275 63.8678 66.701 63.8847 66.7716C63.9148 66.8422 63.9667 66.9016 64.0331 66.9411C64.093 66.9855 64.164 67.0129 64.2385 67.0202C64.3099 67.0362 64.384 67.0362 64.4553 67.0202L65.5166 66.4665L66.5779 67.0202C66.6408 67.0606 66.7141 67.0821 66.789 67.0821C66.8639 67.0821 66.9373 67.0606 67.0001 67.0202C67.0633 66.9801 67.1114 66.9205 67.1371 66.8507C67.154 66.7801 67.154 66.7066 67.1371 66.636L66.9431 65.506L67.7989 64.6811C67.8484 64.6263 67.8837 64.5604 67.9016 64.489C67.9242 64.4183 67.9243 64.3425 67.9018 64.2717C67.8794 64.201 67.8355 64.1388 67.7761 64.0936C67.7185 64.0434 67.6469 64.0119 67.5707 64.0032V63.958Z" fill="#E97522"/>
<path d="M74.0398 63.958L72.8987 63.7885L72.3281 62.6811C72.2981 62.6133 72.2458 62.5575 72.1797 62.5229C72.1162 62.4787 72.0405 62.455 71.9629 62.4551C71.8888 62.4551 71.8168 62.4789 71.7575 62.5229C71.6889 62.5541 71.6355 62.611 71.6092 62.6811L71.0614 63.7546L69.9202 63.9241C69.8441 63.9328 69.7724 63.9643 69.7148 64.0145C69.6579 64.0629 69.6146 64.1252 69.5893 64.1952C69.5666 64.2651 69.5666 64.3401 69.5893 64.4099C69.6072 64.4813 69.6425 64.5472 69.692 64.602L70.5593 65.4269L70.3539 66.5569C70.3312 66.6267 70.3312 66.7018 70.3539 66.7716C70.3832 66.8393 70.4305 66.8979 70.4908 66.9411C70.5517 66.9837 70.6223 67.0108 70.6962 67.0202C70.7673 67.0384 70.8419 67.0384 70.913 67.0202L71.9743 66.4665L73.0356 67.0202C73.1063 67.0412 73.1817 67.0412 73.2524 67.0202C73.328 67.0178 73.4005 66.9899 73.4578 66.9411C73.5237 66.904 73.5727 66.8433 73.5948 66.7716C73.6167 66.7017 73.6167 66.6268 73.5948 66.5569L73.3894 65.4269L74.2453 64.602C74.2982 64.5479 74.3373 64.482 74.3594 64.4099C74.3763 64.3394 74.3763 64.2658 74.3594 64.1952C74.3382 64.1232 74.2942 64.0599 74.2338 64.0145C74.1776 63.9623 74.1052 63.9304 74.0284 63.9241L74.0398 63.958Z" fill="#E97522"/>
<path d="M161.807 102.422C161.684 102.422 161.562 102.398 161.449 102.352C161.335 102.305 161.232 102.237 161.145 102.151C160.749 101.758 160.434 101.292 160.22 100.78C160.005 100.267 159.895 99.7171 159.895 99.162C159.895 98.6069 160.005 98.0572 160.22 97.5444C160.434 97.0316 160.749 96.5656 161.145 96.1732L173.378 84.0598C173.603 83.8373 173.782 83.5731 173.904 83.2822C174.025 82.9914 174.088 82.6796 174.088 82.3648C174.088 82.05 174.025 81.7382 173.904 81.4474C173.782 81.1565 173.603 80.8923 173.378 80.6698L170.971 78.2856C170.884 78.1965 170.817 78.0916 170.772 77.9767C170.726 77.8618 170.704 77.7392 170.707 77.6159C170.71 77.4926 170.737 77.371 170.787 77.2581C170.837 77.1452 170.909 77.0432 170.999 76.9578C171.089 76.8725 171.195 76.8056 171.311 76.7608C171.427 76.7161 171.551 76.6944 171.675 76.697C171.8 76.6996 171.923 76.7265 172.037 76.7761C172.151 76.8257 172.254 76.8971 172.34 76.9861L174.748 79.3704C175.549 80.1649 175.999 81.2419 175.999 82.3648C175.999 83.4877 175.549 84.5647 174.748 85.3593L162.457 97.4726C162.232 97.6951 162.054 97.9593 161.932 98.2502C161.81 98.541 161.748 98.8528 161.748 99.1676C161.748 99.4825 161.81 99.7942 161.932 100.085C162.054 100.376 162.232 100.64 162.457 100.863C162.544 100.947 162.612 101.047 162.659 101.158C162.706 101.268 162.73 101.387 162.73 101.507C162.73 101.627 162.706 101.745 162.659 101.856C162.612 101.966 162.544 102.067 162.457 102.151C162.285 102.323 162.051 102.42 161.807 102.422Z" fill="#30302F"/>
<path d="M174.85 71.0197L170.685 66.8839C170.286 66.4758 169.746 66.2316 169.172 66.2002C168.599 66.1688 168.035 66.3524 167.593 66.7144L162.537 70.6807C161.877 71.2048 161.244 71.7631 160.643 72.353L152.415 80.5002L151.799 81.472L160.129 89.7095L161.111 89.1106L169.339 80.9635C169.934 80.368 170.498 79.7419 171.028 79.0877L175.033 74.0819C175.397 73.6423 175.581 73.083 175.547 72.5154C175.513 71.9478 175.264 71.4138 174.85 71.0197Z" fill="#E97522"/>
<path d="M174.851 71.0199L172.866 69.0537C173.032 69.4477 173.089 69.8786 173.031 70.3018C172.973 70.7249 172.802 71.125 172.535 71.4606L168.392 76.6359C167.843 77.3117 167.256 77.9568 166.635 78.5681L157.928 87.1899L160.119 89.7097L161.1 89.1109L169.328 80.9637C169.924 80.3682 170.488 79.7421 171.017 79.0879L175.022 74.0821C175.387 73.6425 175.57 73.0832 175.536 72.5156C175.502 71.9481 175.254 71.414 174.84 71.0199H174.851Z" fill="white" fill-opacity="0.32"/>
<path d="M129.147 106.976L123.944 112.117C122.98 113.084 121.81 113.826 120.52 114.287L117.462 115.349C117.374 115.381 117.295 115.433 117.23 115.499C117.164 115.566 117.115 115.646 117.085 115.733L113 127.655C112.981 127.719 112.979 127.787 112.996 127.852C113.013 127.917 113.047 127.977 113.095 128.024C113.143 128.072 113.203 128.105 113.268 128.122C113.334 128.138 113.403 128.137 113.468 128.118L125.553 124.152C125.64 124.123 125.72 124.074 125.786 124.01C125.851 123.945 125.9 123.866 125.929 123.779L127.07 120.751C127.536 119.473 128.285 118.315 129.261 117.361L134.454 112.208L129.147 106.976Z" fill="#6E6E6E"/>
<path d="M132.171 109.97L126.979 115.123C126.003 116.077 125.254 117.235 124.788 118.513L123.647 121.541C123.618 121.63 123.567 121.71 123.499 121.775C123.432 121.84 123.349 121.888 123.259 121.914L113.833 125.022L113 127.654C112.981 127.719 112.979 127.787 112.996 127.852C113.013 127.917 113.047 127.976 113.095 128.024C113.143 128.071 113.203 128.105 113.268 128.121C113.334 128.138 113.403 128.137 113.468 128.118L125.553 124.151C125.64 124.123 125.72 124.074 125.786 124.009C125.851 123.944 125.9 123.865 125.929 123.779L127.07 120.75C127.536 119.473 128.285 118.314 129.261 117.36L134.454 112.208L132.171 109.97Z" fill="#30302F"/>
<path d="M121.252 121.711C122.222 121.711 123.009 120.932 123.009 119.971C123.009 119.01 122.222 118.23 121.252 118.23C120.281 118.23 119.494 119.01 119.494 119.971C119.494 120.932 120.281 121.711 121.252 121.711Z" fill="white"/>
<path d="M142.441 107.586L150.588 99.5295C151.102 99.0097 151.593 98.4786 152.061 97.9136L158.52 90.0942L151.422 83.0205L143.525 89.4162C142.954 89.8795 142.383 90.3654 141.893 90.8739L133.756 98.9419C133.177 99.5083 132.632 100.108 132.124 100.739L131.132 101.97V103.168L129.99 103.417L126.955 107.168C126.842 107.294 126.779 107.457 126.779 107.626C126.779 107.795 126.842 107.957 126.955 108.083L133.186 114.242C133.313 114.354 133.477 114.416 133.648 114.416C133.818 114.416 133.983 114.354 134.11 114.242L137.899 111.236L138.287 110.31L139.359 110.084L140.603 109.1C141.24 108.598 141.846 108.058 142.418 107.485L142.441 107.586Z" fill="#E97522"/>
<path d="M155.964 87.54L149.516 95.3821C149.059 95.9498 148.567 96.4894 148.044 96.998L139.907 105.055C139.332 105.629 138.722 106.168 138.082 106.671L131.098 112.196L133.22 114.287C133.348 114.399 133.512 114.461 133.682 114.461C133.853 114.461 134.017 114.399 134.145 114.287L137.933 111.281L138.321 110.354L139.394 110.128L140.638 109.145C141.274 108.643 141.88 108.103 142.452 107.529L150.6 99.4726C151.114 98.9528 151.604 98.4217 152.072 97.8568L158.531 90.0373L155.964 87.54Z" fill="white" fill-opacity="0.32"/>
<path d="M163.086 102.987C164.535 102.987 165.71 101.823 165.71 100.388C165.71 98.9527 164.535 97.7891 163.086 97.7891C161.636 97.7891 160.461 98.9527 160.461 100.388C160.461 101.823 161.636 102.987 163.086 102.987Z" fill="#6E6E6E"/>
<path d="M164.943 98.5573C164.588 98.2081 164.139 97.9663 163.65 97.8602C163.161 97.7542 162.652 97.7882 162.182 97.9584C162.536 98.0907 162.858 98.2947 163.129 98.5573C163.617 99.046 163.891 99.7058 163.891 100.393C163.891 101.081 163.617 101.741 163.129 102.23C162.855 102.488 162.534 102.692 162.182 102.829C162.742 103.03 163.355 103.037 163.92 102.848C164.484 102.659 164.967 102.284 165.289 101.787C165.61 101.29 165.751 100.699 165.688 100.112C165.626 99.5252 165.363 98.9768 164.943 98.5573Z" fill="#585858"/>
<path d="M152.415 80.5005L148.889 83.9921C148.802 84.0772 148.733 84.1784 148.686 84.2899C148.639 84.4015 148.615 84.5211 148.615 84.6419C148.615 84.7627 148.639 84.8823 148.686 84.9938C148.733 85.1053 148.802 85.2065 148.889 85.2916L156.26 92.6026C156.347 92.6887 156.451 92.757 156.564 92.8036C156.678 92.8502 156.799 92.8742 156.922 92.8742C157.045 92.8742 157.167 92.8502 157.281 92.8036C157.394 92.757 157.497 92.6887 157.584 92.6026L161.11 89.1109L152.415 80.5005Z" fill="#6E6E6E"/>
<path d="M158.555 86.5796L154.367 90.7266L156.262 92.6024C156.348 92.6885 156.452 92.7568 156.565 92.8034C156.679 92.85 156.8 92.874 156.923 92.874C157.046 92.874 157.168 92.85 157.282 92.8034C157.395 92.7568 157.498 92.6885 157.585 92.6024L161.111 89.1107L158.555 86.5796Z" fill="#30302F"/>
<path d="M129.971 103.462L137.959 111.372L139.42 110.242L131.169 102.072L129.971 103.462Z" fill="#6E6E6E"/>
<path d="M135.377 108.806L137.922 111.337L139.382 110.207L136.826 107.688L135.377 108.806Z" fill="#585858"/>
</svg>
