<svg width="180" height="180" viewBox="0 0 180 180" fill="none" xmlns="http://www.w3.org/2000/svg">
<path d="M95.4303 79.3281H142.36L155 135.4V139.024H129.732L118.895 113.692L91.8255 177L73.7676 171.581L95.4303 79.3281Z" fill="#434343"/>
<path d="M138.745 91.983H145.206L142.361 79.3281H131.535V84.7468C131.535 86.664 132.294 88.5028 133.646 89.8595C134.998 91.2162 136.832 91.98 138.745 91.983Z" fill="#30302F"/>
<path d="M106.268 84.7468V79.3281H95.4309L92.4609 91.983H99.0697C100.981 91.977 102.812 91.2119 104.161 89.8555C105.51 88.4991 106.268 86.662 106.268 84.7468Z" fill="#585858"/>
<path d="M118.895 79.3281V113.692L122.511 108.273V79.3281H118.895Z" fill="#30302F"/>
<path d="M154.999 139.024H118.895V155.303L136.952 158.915L154.999 142.636V139.024Z" fill="#30302F"/>
<path d="M142.362 72.0923H95.4316V79.3285H142.362V72.0923Z" fill="#E97522"/>
<path d="M109.872 72.0923H106.268V79.3285H109.872V72.0923Z" fill="#EE7E3B"/>
<path d="M135.14 72.0923H131.535V79.3285H135.14V72.0923Z" fill="#EE7E3B"/>
<path d="M124.574 72.0923H117.354V79.3285H124.574V72.0923Z" fill="#D7E5ED"/>
<path d="M126.276 49.225L111.369 34.2413L95.8163 31.4127C94.9175 31.238 93.986 31.407 93.2054 31.8864C92.4249 32.3658 91.8519 33.1209 91.5993 34.0028C89.933 40.1485 83.6643 44.6356 76.2053 44.6356C68.7464 44.6356 62.5117 40.0235 60.834 33.9914C60.5747 33.1138 60.0004 32.3635 59.2217 31.8852C58.443 31.4069 57.5151 31.2346 56.6171 31.4014L41.0417 34.2413L26.0898 49.225C25.7443 49.571 25.4702 49.9818 25.2832 50.434C25.0962 50.8862 25 51.3709 25 51.8604C25 52.3499 25.0962 52.8346 25.2832 53.2868C25.4702 53.739 25.7443 54.1499 26.0898 54.4959L34.8977 63.3225C35.243 63.6687 35.653 63.9434 36.1042 64.1308C36.5555 64.3182 37.0392 64.4146 37.5276 64.4146C38.0161 64.4146 38.4997 64.3182 38.951 64.1308C39.4022 63.9434 39.8122 63.6687 40.1575 63.3225L44.5558 58.9035V118.815H93.7871L107.855 104.775V58.9035L112.253 63.3225C112.598 63.6687 113.008 63.9434 113.46 64.1308C113.911 64.3182 114.395 64.4146 114.883 64.4146C115.372 64.4146 115.855 64.3182 116.306 64.1308C116.758 63.9434 117.168 63.6687 117.513 63.3225L126.276 54.4959C126.621 54.1499 126.895 53.739 127.082 53.2868C127.269 52.8346 127.365 52.3499 127.365 51.8604C127.365 51.3709 127.269 50.8862 127.082 50.434C126.895 49.9818 126.621 49.571 126.276 49.225Z" fill="#83BCDC"/>
<path d="M93.7863 118.815L107.854 104.774H96.8017C95.9959 104.774 95.2232 105.095 94.6535 105.666C94.0837 106.237 93.7637 107.011 93.7637 107.818L93.7863 118.815Z" fill="#6DB8E8"/>
<path d="M57.1275 34.6162C59.2132 42.0683 66.8989 47.7368 76.1716 47.7368C85.4443 47.7368 93.1753 42.1932 95.2271 34.6276C95.406 33.9938 95.7238 33.408 96.1571 32.9128C96.5905 32.4176 97.1286 32.0254 97.7323 31.7649L95.7825 31.4127C94.8837 31.238 93.9523 31.407 93.1717 31.8864C92.3911 32.3658 91.8181 33.1209 91.5656 34.0028C89.8992 40.1485 83.6305 44.6356 76.1716 44.6356C68.7126 44.6356 62.512 40.0235 60.8343 33.9914C60.575 33.1138 60.0006 32.3635 59.2219 31.8852C58.4432 31.4069 57.5154 31.2346 56.6173 31.4014L54.6562 31.7649C55.2541 32.0256 55.7863 32.417 56.2139 32.9103C56.6414 33.4036 56.9536 33.9865 57.1275 34.6162Z" fill="#474748"/>
<path d="M76.2065 89.8701C84.3578 89.8701 90.9657 83.2481 90.9657 75.0796C90.9657 66.911 84.3578 60.2891 76.2065 60.2891C68.0552 60.2891 61.4473 66.911 61.4473 75.0796C61.4473 83.2481 68.0552 89.8701 76.2065 89.8701Z" fill="white"/>
<path d="M76.2056 85.6674C82.0404 85.6674 86.7705 80.9273 86.7705 75.08C86.7705 69.2328 82.0404 64.4927 76.2056 64.4927C70.3707 64.4927 65.6406 69.2328 65.6406 75.08C65.6406 80.9273 70.3707 85.6674 76.2056 85.6674Z" fill="#ED6E24"/>
<path d="M72.2829 18.1217H62.1714C61.8765 18.1197 61.5849 18.184 61.3181 18.3098C61.0513 18.4356 60.8161 18.6198 60.6297 18.8487C60.4407 19.0786 60.3051 19.3476 60.2326 19.6364C60.16 19.9252 60.1524 20.2265 60.2103 20.5186L61.0831 24.9149C61.2701 25.8306 61.7696 26.6525 62.4958 27.2392C63.2219 27.8259 64.1293 28.1408 65.062 28.1297H69.4943C70.4178 28.1297 71.313 27.8096 72.0278 27.2237C72.7427 26.6377 73.2333 25.822 73.4165 24.9149L74.3007 20.5186C74.3584 20.2233 74.3493 19.9187 74.274 19.6273C74.1986 19.336 74.059 19.0653 73.8653 18.8353C73.6717 18.6052 73.4289 18.4217 73.1551 18.2982C72.8812 18.1747 72.5831 18.1144 72.2829 18.1217Z" fill="#30302F"/>
<path d="M63.7812 18.0537L72.4645 26.7553L74.2782 19.2011L70.3673 18.1673L63.7812 18.0537Z" fill="#4F4F4F"/>
<path d="M90.2629 18.1211H80.1513C79.8552 18.1202 79.5626 18.1854 79.2947 18.312C79.0268 18.4386 78.7904 18.6233 78.6027 18.8528C78.4149 19.0823 78.2805 19.3508 78.2091 19.6388C78.1378 19.9268 78.1313 20.2272 78.1902 20.518L79.0744 24.9143C79.2552 25.8205 79.7436 26.636 80.4566 27.222C81.1696 27.8081 82.0631 28.1287 82.9853 28.1291H87.4289C88.3505 28.1265 89.243 27.8052 89.9555 27.2195C90.6681 26.6338 91.157 25.8195 91.3398 24.9143L92.224 20.518C92.2807 20.2274 92.2727 19.9278 92.2006 19.6407C92.1284 19.3535 91.9938 19.0859 91.8065 18.8569C91.6191 18.6279 91.3836 18.4432 91.1168 18.316C90.8499 18.1888 90.5584 18.1223 90.2629 18.1211Z" fill="#30302F"/>
<path d="M82.2344 18.0537L90.9176 26.7553L92.7313 19.2011L88.8205 18.1673L82.2344 18.0537Z" fill="#4F4F4F"/>
<path d="M77.7105 21.5295C77.2571 21.2618 76.7404 21.1205 76.2142 21.1205C75.6879 21.1205 75.1712 21.2618 74.7178 21.5295C74.6044 21.6054 74.4767 21.6573 74.3425 21.6818C74.2083 21.7063 74.0705 21.703 73.9377 21.672C73.8048 21.6411 73.6797 21.5832 73.5701 21.5018C73.4604 21.4205 73.3686 21.3175 73.3003 21.1992C73.2319 21.0809 73.1885 20.9498 73.1727 20.8141C73.1569 20.6783 73.1691 20.5407 73.2085 20.4098C73.2478 20.279 73.3136 20.1576 73.4016 20.0532C73.4896 19.9488 73.5981 19.8635 73.7203 19.8028C74.4758 19.3562 75.337 19.1206 76.2142 19.1206C77.0913 19.1206 77.9525 19.3562 78.708 19.8028C78.8302 19.8635 78.9387 19.9488 79.0267 20.0532C79.1148 20.1576 79.1805 20.279 79.2199 20.4098C79.2592 20.5407 79.2714 20.6783 79.2556 20.8141C79.2398 20.9498 79.1964 21.0809 79.1281 21.1992C79.0597 21.3175 78.9679 21.4205 78.8583 21.5018C78.7486 21.5832 78.6235 21.6411 78.4907 21.672C78.3578 21.703 78.22 21.7063 78.0858 21.6818C77.9516 21.6573 77.8239 21.6054 77.7105 21.5295Z" fill="#6E6E6E"/>
<path d="M72.2864 17.1218H62.1748H61.9595L64.6007 5.76199C64.636 5.61571 64.7037 5.47929 64.7989 5.36291C64.8941 5.24653 65.0143 5.15319 65.1505 5.08985C65.2867 5.02651 65.4355 4.99481 65.5856 4.99711C65.7358 4.9994 65.8835 5.03564 66.0177 5.10312L67.7861 5.98919C68.0183 6.08008 68.276 6.08056 68.5085 5.99055C68.741 5.90053 68.9315 5.72654 69.0424 5.50283C69.1533 5.27912 69.1766 5.0219 69.1077 4.78182C69.0389 4.54175 68.8828 4.33621 68.6703 4.20569L66.9019 3.31963C66.5 3.11712 66.0577 3.00801 65.6079 3.00042C65.1581 2.99284 64.7124 3.08697 64.3039 3.27582C63.8954 3.46466 63.5347 3.74336 63.2485 4.09119C62.9623 4.43903 62.7581 4.84704 62.651 5.28488L59.5449 18.6895C59.2049 19.3051 59.0963 20.0225 59.2389 20.7115L60.1117 25.1078C60.3433 26.2501 60.9642 27.2761 61.8681 28.0098C62.7719 28.7436 63.9023 29.1393 65.0655 29.1292H69.4978C70.6532 29.1288 71.7729 28.7282 72.6674 27.9954C73.5619 27.2626 74.1761 26.2424 74.4062 25.1078L75.2677 20.7115C75.3536 20.2726 75.3409 19.82 75.2304 19.3866C75.1198 18.9533 74.9144 18.55 74.6288 18.2062C74.3433 17.8624 73.9849 17.5867 73.5797 17.3992C73.1745 17.2116 72.7327 17.1168 72.2864 17.1218ZM73.2613 20.3139L72.3884 24.7102C72.2525 25.3909 71.8859 26.0036 71.3509 26.4446C70.8158 26.8855 70.1452 27.1276 69.4524 27.1298H65.0655C64.3722 27.1298 63.7004 26.8885 63.1649 26.4471C62.6294 26.0058 62.2634 25.3919 62.1295 24.7102L61.2566 20.3707L61.4607 19.496C61.5548 19.3863 61.6713 19.2981 61.8023 19.2373C61.9333 19.1766 62.0758 19.1447 62.2202 19.1439H72.3317C72.4726 19.1514 72.6102 19.1888 72.7355 19.2535C72.8609 19.3183 72.9711 19.4089 73.059 19.5195C73.1468 19.6301 73.2103 19.758 73.2451 19.895C73.28 20.0319 73.2855 20.1747 73.2613 20.3139Z" fill="#6E6E6E"/>
<path d="M92.8918 18.701L89.7744 5.28503C89.666 4.84818 89.4607 4.44142 89.174 4.0949C88.8872 3.74838 88.5263 3.47099 88.118 3.28331C87.7097 3.09564 87.2645 3.00248 86.8153 3.01076C86.3662 3.01904 85.9247 3.12854 85.5235 3.33114L83.7551 4.2172C83.5333 4.34417 83.3685 4.55158 83.2948 4.79669C83.221 5.0418 83.2439 5.30592 83.3588 5.53461C83.4736 5.7633 83.6716 5.93913 83.912 6.02584C84.1523 6.11256 84.4167 6.10356 84.6507 6.0007L86.419 5.11463C86.5521 5.0491 86.6979 5.01375 86.8461 5.0111C86.9943 5.00845 87.1413 5.03856 87.2766 5.0993C87.4119 5.16003 87.5321 5.2499 87.6288 5.3625C87.7255 5.4751 87.7963 5.60767 87.836 5.75078L90.4773 17.1106H90.2619H80.1504C79.5082 17.1108 78.8832 17.3188 78.3685 17.7036C77.8538 18.0884 77.4769 18.6295 77.2937 19.2463C76.9223 19.1576 76.542 19.1118 76.1602 19.1099V21.1093C76.5485 21.1057 76.9338 21.179 77.2937 21.3251L78.0419 25.0966C78.2715 26.2293 78.8841 27.248 79.7763 27.9806C80.6685 28.7132 81.7855 29.1149 82.939 29.118H87.3826C88.536 29.1149 89.6531 28.7132 90.5453 27.9806C91.4374 27.248 92.05 26.2293 92.2797 25.0966L93.1525 20.7003C93.3013 20.0238 93.2091 19.3164 92.8918 18.701ZM90.3639 24.7103C90.228 25.3911 89.8614 26.0038 89.3264 26.4447C88.7914 26.8857 88.1207 27.1278 87.4279 27.13H82.9843C82.2916 27.1278 81.6209 26.8857 81.0858 26.4447C80.5508 26.0038 80.1843 25.3911 80.0483 24.7103L79.1981 20.4845C79.2035 20.4621 79.2035 20.4387 79.1981 20.4163V20.3141C79.1769 20.1734 79.1863 20.0299 79.2255 19.8931C79.2648 19.7564 79.333 19.6298 79.4256 19.522C79.5181 19.4141 79.6328 19.3276 79.7618 19.2682C79.8908 19.2089 80.0311 19.1781 80.173 19.1781H90.2846C90.4292 19.1774 90.5722 19.2086 90.7034 19.2694C90.8347 19.3303 90.951 19.4193 91.044 19.5303L91.2481 20.405L90.3639 24.7103Z" fill="#6E6E6E"/>
<path d="M55.5977 151.248C56.0346 151.977 56.626 152.602 57.3301 153.078C58.0343 153.553 58.8339 153.868 59.6728 154.001C60.5116 154.133 61.3692 154.079 62.185 153.843C63.0008 153.606 63.7549 153.194 64.3942 152.634C67.5723 149.746 70.9022 147.031 74.3697 144.5C75.3976 143.784 76.2375 142.829 76.8178 141.718C77.3981 140.606 77.7016 139.37 77.7025 138.116C77.7025 136.616 77.7705 137.775 71.105 114.26C71.0828 114.167 71.0419 114.08 70.9847 114.003C70.9276 113.926 70.8554 113.862 70.7727 113.814C70.6899 113.766 70.5983 113.736 70.5034 113.725C70.4085 113.713 70.3124 113.722 70.2208 113.749L61.3109 116.396L62.4445 144.364L55.5977 151.248Z" fill="#C8E2F1"/>
<path d="M63.7009 124.631L73.3137 121.893L72.5089 119.087L62.8848 121.814L63.7009 124.631Z" fill="#E97522"/>
<path d="M59.8023 113.726L49.09 116.895C48.913 116.947 48.7627 117.065 48.6706 117.225C48.634 117.309 48.6152 117.4 48.6152 117.492C48.6152 117.584 48.634 117.675 48.6706 117.759L53.5223 135.935C53.5603 136.056 53.5645 136.186 53.5346 136.31C53.5046 136.434 53.4416 136.548 53.3522 136.639L46.0066 144.284C45.024 145.3 44.455 146.646 44.411 148.06C44.3669 149.474 44.8511 150.854 45.7686 151.929C46.266 152.522 46.8767 153.01 47.5647 153.363C48.2527 153.716 49.0042 153.928 49.775 153.986C50.5458 154.044 51.3205 153.948 52.0536 153.702C52.7866 153.456 53.4632 153.066 54.0437 152.554L59.0881 148.237C60.6223 146.935 62.2357 145.7 63.9285 144.534C65.256 143.612 66.2626 142.297 66.8074 140.774C67.3522 139.25 67.4078 137.594 66.9665 136.037L60.6638 114.283C60.6416 114.19 60.6007 114.102 60.5435 114.025C60.4864 113.949 60.4142 113.884 60.3315 113.836C60.2487 113.789 60.1571 113.758 60.0622 113.747C59.9673 113.736 59.8712 113.744 59.7796 113.772L59.8023 113.726Z" fill="#DAF4FF"/>
<path d="M62.8967 121.893L50.654 125.381L49.8945 122.564L62.0918 119.087L62.8967 121.893Z" fill="#E97522"/>
</svg>
