<svg width="180" height="180" viewBox="0 0 180 180" fill="none" xmlns="http://www.w3.org/2000/svg">
<path d="M113.498 29.7295H49.1537C48.2005 29.7295 47.4277 30.5015 47.4277 31.4537V61.4588C47.4277 62.4111 48.2005 63.1831 49.1537 63.1831H113.498C114.451 63.1831 115.224 62.4111 115.224 61.4588V31.4537C115.224 30.5015 114.451 29.7295 113.498 29.7295Z" fill="#83BCDC"/>
<g opacity="0.5">
<path opacity="0.5" d="M115.225 31.4533C115.225 30.996 115.043 30.5574 114.719 30.234C114.396 29.9107 113.957 29.729 113.499 29.729H105.562L104.731 36.6149L104.232 40.8566L101.995 59.8979C101.995 60.0097 101.995 60.1214 101.973 60.2331C101.972 60.619 102.047 61.0012 102.194 61.3581C102.341 61.715 102.556 62.0394 102.829 62.313C103.101 62.5865 103.425 62.8038 103.781 62.9524C104.138 63.1009 104.52 63.1779 104.906 63.1789H113.48C113.937 63.1769 114.374 62.9945 114.697 62.6714C115.02 62.3484 115.201 61.911 115.202 61.4546V31.4533H115.225Z" fill="#A5B3C9"/>
</g>
<path d="M110.242 34.019H52.4029C52.0261 34.019 51.7207 34.3242 51.7207 34.7006V58.2108C51.7207 58.5872 52.0261 58.8923 52.4029 58.8923H110.242C110.619 58.8923 110.925 58.5872 110.925 58.2108V34.7006C110.925 34.3242 110.619 34.019 110.242 34.019Z" fill="white"/>
<path d="M110.94 34.6813C110.938 34.5913 110.918 34.5027 110.88 34.4206C110.843 34.3386 110.79 34.2647 110.724 34.2033C110.659 34.142 110.581 34.0943 110.496 34.0632C110.412 34.0321 110.322 34.0182 110.232 34.0222H105.035L104.73 36.629L104.23 40.8559L102.105 58.8991H110.232C110.324 58.9021 110.416 58.8865 110.502 58.8532C110.588 58.8199 110.667 58.7695 110.733 58.7052C110.799 58.6409 110.851 58.5639 110.887 58.4788C110.923 58.3938 110.941 58.3024 110.94 58.2102V34.6813Z" fill="#CED8E8"/>
<path d="M147.447 144.532C147.082 144.488 146.729 144.374 146.408 144.194C146.088 144.014 145.805 143.773 145.578 143.484C145.35 143.195 145.182 142.865 145.083 142.511C144.983 142.157 144.955 141.787 144.998 141.422L147.134 123.271L147.597 119.227L148.368 112.668H158.597L159.376 119.23L159.838 123.278L161.982 141.426C161.994 141.532 162 141.639 162.001 141.746C162.002 142.114 161.93 142.478 161.79 142.819C161.65 143.159 161.444 143.468 161.185 143.729C160.925 143.989 160.617 144.197 160.277 144.338C159.937 144.48 159.573 144.553 159.205 144.554H147.764C147.658 144.552 147.553 144.545 147.447 144.532Z" fill="#D2E2EB"/>
<g opacity="0.5">
<path opacity="0.8" d="M158.991 141.744C158.991 142.487 158.696 143.2 158.17 143.726C157.645 144.251 156.932 144.547 156.188 144.548H159.2C159.307 144.548 159.414 144.541 159.52 144.53C159.886 144.487 160.239 144.372 160.56 144.193C160.881 144.014 161.163 143.773 161.391 143.484C161.619 143.196 161.787 142.865 161.887 142.512C161.987 142.158 162.016 141.789 161.973 141.424L159.833 123.272L159.371 119.228L158.596 112.67H155.58L156.37 119.232L156.833 123.28L158.972 141.427C158.986 141.532 158.992 141.638 158.991 141.744Z" fill="white"/>
</g>
<path d="M154.246 108.895C153.873 107.51 153.959 104.545 156.785 103.354C158.037 102.821 158.947 101.652 158.876 100.773C158.805 99.894 157.791 99.1789 156.035 98.7656C153.322 98.1325 151.756 96.6317 151.845 94.7473C151.942 92.7102 154.231 90.3379 159.088 89.6676C159.201 89.6487 159.316 89.6525 159.427 89.6786C159.538 89.7047 159.643 89.7527 159.735 89.8197C159.827 89.8868 159.905 89.9715 159.964 90.069C160.023 90.1665 160.062 90.2748 160.079 90.3875C160.095 90.5002 160.089 90.6151 160.061 90.7255C160.032 90.8358 159.982 90.9394 159.913 91.0302C159.844 91.1209 159.758 91.197 159.659 91.254C159.56 91.311 159.451 91.3477 159.338 91.362C155.61 91.8648 153.612 93.4997 153.545 94.8478C153.497 95.8421 154.567 96.7099 156.419 97.127C159.845 97.9314 160.498 99.6705 160.58 100.643C160.74 102.527 159.126 104.233 157.448 104.944C155.312 105.841 155.83 108.221 155.901 108.493C155.955 108.711 155.92 108.941 155.805 109.134C155.69 109.327 155.504 109.467 155.286 109.524C155.217 109.542 155.145 109.551 155.074 109.551C154.882 109.551 154.696 109.486 154.546 109.367C154.395 109.248 154.29 109.082 154.246 108.895Z" fill="#306694"/>
<path d="M151.2 108.929L148.68 99.8308C148.643 99.7213 148.628 99.6054 148.637 99.4901C148.646 99.3748 148.679 99.2626 148.733 99.1602C148.786 99.0578 148.86 98.9674 148.95 98.8945C149.04 98.8216 149.144 98.7677 149.255 98.7361C149.366 98.7045 149.483 98.6958 149.598 98.7107C149.713 98.7255 149.823 98.7635 149.923 98.8223C150.023 98.8812 150.109 98.9597 150.177 99.053C150.246 99.1463 150.294 99.2526 150.32 99.3653L152.844 108.471C152.874 108.578 152.883 108.691 152.869 108.802C152.855 108.912 152.82 109.02 152.765 109.117C152.71 109.214 152.636 109.299 152.548 109.368C152.46 109.437 152.359 109.487 152.251 109.517C152.176 109.538 152.098 109.548 152.02 109.547C151.835 109.547 151.654 109.487 151.506 109.376C151.358 109.264 151.251 109.107 151.2 108.929Z" fill="#306694"/>
<path d="M160.146 110.689C160.145 111.216 159.935 111.721 159.562 112.093C159.189 112.465 158.683 112.674 158.155 112.674H148.668C148.141 112.674 147.635 112.465 147.262 112.093C146.889 111.721 146.679 111.216 146.678 110.689C146.678 110.161 146.887 109.656 147.261 109.283C147.634 108.91 148.14 108.7 148.668 108.7H158.163C158.69 108.702 159.194 108.913 159.566 109.285C159.937 109.658 160.146 110.163 160.146 110.689Z" fill="#D2E2EB"/>
<path d="M147.596 119.232H159.372L159.849 123.281H147.115L147.596 119.232Z" fill="#E97522"/>
<path d="M156.831 123.281H159.846L159.369 119.232H156.354L156.831 123.281Z" fill="#EE7E3B"/>
<g opacity="0.5">
<path opacity="0.8" d="M146.686 110.822C146.716 111.326 146.938 111.799 147.306 112.145C147.673 112.491 148.16 112.684 148.665 112.684H158.174C158.435 112.682 158.693 112.629 158.934 112.527C159.174 112.426 159.392 112.278 159.575 112.092C159.758 111.906 159.903 111.686 160.001 111.445C160.099 111.203 160.148 110.945 160.146 110.684C160.144 110.158 159.934 109.655 159.561 109.284C159.187 108.913 158.682 108.706 158.156 108.707H157.999V110.811L146.686 110.822Z" fill="white"/>
</g>
<path d="M50.1278 138.798V146.831C50.1322 146.997 50.1035 147.162 50.0431 147.317C49.9828 147.471 49.8921 147.612 49.7765 147.731C49.6608 147.85 49.5225 147.945 49.3696 148.01C49.2168 148.075 49.0525 148.108 48.8864 148.109H36.4582C36.2942 148.108 36.132 148.075 35.9808 148.011C35.8297 147.947 35.6926 147.855 35.5773 147.738C35.462 147.622 35.3709 147.483 35.309 147.332C35.2472 147.18 35.2158 147.018 35.2168 146.854V138.798C35.2158 138.635 35.2472 138.472 35.309 138.32C35.3709 138.169 35.462 138.031 35.5773 137.914C35.6926 137.798 35.8297 137.705 35.9808 137.641C36.132 137.578 36.2942 137.544 36.4582 137.543H48.8864C49.0504 137.544 49.2126 137.578 49.3638 137.641C49.5149 137.705 49.652 137.798 49.7673 137.914C49.8826 138.031 49.9737 138.169 50.0356 138.32C50.0974 138.472 50.1288 138.635 50.1278 138.798ZM130.9 137.543H118.476C118.312 137.544 118.15 137.578 117.999 137.641C117.847 137.705 117.71 137.798 117.595 137.914C117.48 138.031 117.389 138.169 117.327 138.32C117.265 138.472 117.234 138.635 117.235 138.798V146.831C117.233 146.995 117.264 147.158 117.326 147.31C117.387 147.462 117.479 147.6 117.594 147.717C117.709 147.833 117.847 147.926 117.998 147.99C118.149 148.053 118.312 148.086 118.476 148.086H130.9C131.065 148.086 131.227 148.053 131.379 147.99C131.53 147.926 131.668 147.834 131.784 147.717C131.899 147.6 131.991 147.462 132.053 147.31C132.115 147.158 132.146 146.996 132.145 146.831V138.798C132.146 138.635 132.114 138.472 132.052 138.321C131.99 138.169 131.898 138.031 131.782 137.915C131.667 137.799 131.529 137.707 131.378 137.644C131.227 137.58 131.064 137.548 130.9 137.547V137.543Z" fill="#306694"/>
<path d="M136.12 86.0765V113.694C136.123 114.357 135.863 114.993 135.397 115.463C134.931 115.934 134.297 116.201 133.634 116.204H86.411C86.083 116.203 85.7586 116.136 85.4563 116.009C85.1541 115.882 84.8798 115.696 84.6493 115.463C84.4187 115.23 84.2364 114.954 84.1127 114.65C83.989 114.347 83.9263 114.022 83.9283 113.694C83.9313 114.357 83.6711 114.993 83.2049 115.463C82.7387 115.934 82.1046 116.201 81.4419 116.204H34.2189C33.5562 116.201 32.9221 115.934 32.4559 115.463C31.9897 114.993 31.7295 114.357 31.7325 113.694V86.0765C31.7286 85.4204 31.8541 84.7699 32.102 84.1623C32.3498 83.5546 32.715 83.0017 33.1769 82.5352C33.6387 82.0686 34.188 81.6976 34.7934 81.4432C35.3989 81.1888 36.0485 81.0561 36.7053 81.0527H78.9555C79.6123 81.0561 80.262 81.1888 80.8674 81.4432C81.4728 81.6976 82.0221 82.0686 82.484 82.5352C82.9458 83.0017 83.311 83.5546 83.5589 84.1623C83.8067 84.7699 83.9322 85.4204 83.9283 86.0765C83.9244 85.4207 84.0498 84.7705 84.2974 84.1631C84.545 83.5557 84.9099 83.003 85.3713 82.5365C85.8328 82.07 86.3816 81.6988 86.9866 81.4443C87.5916 81.1897 88.2409 81.0566 88.8974 81.0527H131.148C131.804 81.0561 132.454 81.1888 133.059 81.4432C133.665 81.6976 134.214 82.0686 134.676 82.5352C135.138 83.0017 135.503 83.5546 135.751 84.1623C135.999 84.7699 136.124 85.4204 136.12 86.0765Z" fill="#6C6B6B"/>
<path d="M136.12 86.0779V113.696C136.12 114.182 135.98 114.658 135.715 115.067C135.451 115.475 135.073 115.798 134.629 115.997V120.552H87.6597V120.619H80.2042V120.552H32.7277V115.711C32.4181 115.476 32.167 115.173 31.9943 114.826C31.8216 114.478 31.732 114.095 31.7324 113.707V110.124H58.0055C68.9874 110.124 77.8893 101.131 77.8893 90.0366V81.0615H78.9442C79.601 81.0649 80.2507 81.1976 80.8561 81.452C81.4615 81.7063 82.0109 82.0774 82.4727 82.544C82.9345 83.0105 83.2998 83.5634 83.5476 84.1711C83.7954 84.7787 83.921 85.4292 83.917 86.0853V105.097C83.9121 105.754 84.0372 106.406 84.2851 107.015C84.533 107.623 84.8988 108.177 85.3616 108.644C85.8243 109.111 86.3749 109.483 86.9817 109.737C87.5884 109.991 88.2394 110.122 88.8973 110.124H110.194C121.176 110.124 130.078 101.131 130.078 90.0366V81.0615H131.133C131.79 81.063 132.441 81.194 133.047 81.447C133.654 81.7 134.205 82.0701 134.668 82.5361C135.131 83.002 135.498 83.5547 135.747 84.1625C135.996 84.7702 136.123 85.4211 136.12 86.0779Z" fill="#30302F" fill-opacity="0.49"/>
<path d="M147.552 104.911V137.553C147.554 137.881 147.491 138.206 147.367 138.509C147.244 138.813 147.061 139.089 146.831 139.322C146.6 139.555 146.326 139.74 146.024 139.868C145.721 139.995 145.397 140.061 145.069 140.063H22.7991C22.4711 140.061 22.1467 139.995 21.8445 139.868C21.5422 139.74 21.268 139.555 21.0374 139.322C20.8069 139.089 20.6246 138.813 20.5008 138.509C20.3771 138.206 20.3145 137.881 20.3165 137.553V104.911C20.3145 104.584 20.3771 104.259 20.5008 103.955C20.6246 103.652 20.8069 103.376 21.0374 103.143C21.268 102.91 21.5422 102.724 21.8445 102.597C22.1467 102.47 22.4711 102.403 22.7991 102.401H32.7298C33.3926 102.405 34.0267 102.672 34.4928 103.142C34.959 103.613 35.2192 104.249 35.2162 104.911V122.363H132.641V104.911C132.638 104.249 132.898 103.613 133.364 103.142C133.83 102.672 134.464 102.405 135.127 102.401H145.069C145.397 102.403 145.721 102.47 146.024 102.597C146.326 102.724 146.6 102.91 146.831 103.143C147.061 103.376 147.244 103.652 147.367 103.955C147.491 104.259 147.554 104.584 147.552 104.911Z" fill="#8C8C8C"/>
<path d="M147.549 104.911V137.553C147.551 137.881 147.488 138.206 147.365 138.509C147.241 138.813 147.058 139.089 146.828 139.322C146.597 139.555 146.323 139.74 146.021 139.868C145.719 139.995 145.394 140.061 145.066 140.063H139.598C140.26 140.059 140.894 139.793 141.361 139.322C141.827 138.851 142.087 138.215 142.084 137.553V104.911C142.087 104.249 141.827 103.613 141.361 103.142C140.894 102.672 140.26 102.405 139.598 102.401H145.066C145.394 102.403 145.719 102.47 146.021 102.597C146.323 102.724 146.597 102.91 146.828 103.143C147.058 103.376 147.241 103.652 147.365 103.955C147.488 104.259 147.551 104.584 147.549 104.911Z" fill="#858585"/>
<path d="M136.279 118.846V126.38C136.281 127.042 136.021 127.679 135.555 128.149C135.089 128.62 134.455 128.886 133.792 128.89H86.5691C86.2411 128.888 85.9167 128.822 85.6145 128.695C85.3122 128.568 85.038 128.382 84.8074 128.149C84.5769 127.916 84.3946 127.64 84.2708 127.336C84.1471 127.033 84.0845 126.708 84.0864 126.38C84.0894 127.042 83.8292 127.679 83.3631 128.149C82.8969 128.62 82.2628 128.886 81.6 128.89H34.3771C33.7143 128.886 33.0802 128.62 32.614 128.149C32.1478 127.679 31.8877 127.042 31.8907 126.38V118.846C31.8877 118.184 32.1478 117.548 32.614 117.078C33.0802 116.607 33.7143 116.34 34.3771 116.336H81.6C82.2628 116.34 82.8969 116.607 83.3631 117.078C83.8292 117.548 84.0894 118.184 84.0864 118.846C84.0845 118.519 84.1471 118.194 84.2708 117.89C84.3946 117.587 84.5769 117.311 84.8074 117.078C85.038 116.845 85.3122 116.659 85.6145 116.532C85.9167 116.405 86.2411 116.338 86.5691 116.336H133.792C134.455 116.34 135.089 116.607 135.555 117.078C136.021 117.548 136.281 118.184 136.279 118.846Z" fill="#30302F" fill-opacity="0.49"/>
<path d="M80.3989 118.815V126.254C80.4009 126.578 80.3377 126.899 80.2129 127.199C80.0882 127.499 79.9044 127.772 79.6719 128.002C79.4395 128.232 79.163 128.415 78.8584 128.541C78.5537 128.666 78.2268 128.731 77.8964 128.733H36.8736C36.2066 128.729 35.5684 128.466 35.0992 128.001C34.63 127.536 34.3681 126.908 34.3711 126.254V118.815C34.3681 118.161 34.63 117.533 35.0992 117.068C35.5684 116.604 36.2066 116.34 36.8736 116.336H77.8964C78.2268 116.338 78.5537 116.403 78.8584 116.529C79.163 116.654 79.4395 116.837 79.6719 117.067C79.9044 117.297 80.0882 117.57 80.2129 117.87C80.3377 118.17 80.4009 118.491 80.3989 118.815ZM130.426 116.336H89.4033C89.0732 116.338 88.7467 116.404 88.4425 116.53C88.1383 116.655 87.8623 116.838 87.6302 117.068C87.3982 117.299 87.2147 117.571 87.0902 117.871C86.9657 118.171 86.9026 118.491 86.9046 118.815V126.254C86.9046 126.905 87.1674 127.529 87.6356 127.991C88.1037 128.453 88.7393 128.714 89.4033 128.718H130.426C130.757 128.716 131.083 128.651 131.388 128.526C131.693 128.4 131.969 128.217 132.202 127.987C132.434 127.757 132.618 127.484 132.743 127.184C132.867 126.884 132.931 126.563 132.929 126.239V118.815C132.931 118.491 132.867 118.17 132.743 117.87C132.618 117.57 132.434 117.297 132.202 117.067C131.969 116.837 131.693 116.654 131.388 116.529C131.083 116.403 130.757 116.338 130.426 116.336Z" fill="#6E6E6E"/>
<path d="M39.9211 47.2852C39.9203 47.4103 39.9328 47.5351 39.9584 47.6576L42.0683 58.0217C42.0925 58.1494 42.1299 58.2742 42.1801 58.3941L35.0266 59.8465L32.7676 48.7376L39.9211 47.2852Z" fill="#30302F"/>
<path d="M34.4285 69.24L24.7774 71.2026C24.4604 71.2673 24.1338 71.2689 23.8162 71.2073C23.4985 71.1457 23.1962 71.0221 22.9265 70.8436C22.6567 70.6651 22.4249 70.4352 22.2442 70.1671C22.0635 69.8989 21.9376 69.5978 21.8735 69.281L17.0498 45.6218C16.985 45.3049 16.9834 44.9783 17.045 44.6608C17.1067 44.3432 17.2303 44.0409 17.409 43.7712C17.5876 43.5014 17.8177 43.2694 18.0861 43.0886C18.3546 42.9077 18.656 42.7814 18.9733 42.717L28.6244 40.7544C28.9425 40.6881 29.2705 40.6855 29.5896 40.7465C29.9087 40.8076 30.2126 40.9312 30.4836 41.1102C30.7546 41.2892 30.9875 41.5201 31.1687 41.7895C31.35 42.0589 31.476 42.3615 31.5395 42.6798L36.3483 66.339C36.4781 66.9779 36.3489 67.6423 35.989 68.1861C35.6291 68.73 35.0679 69.1091 34.4285 69.24Z" fill="#6E6E6E"/>
<path d="M41.4932 45.3251L50.4658 43.504C50.7197 43.4519 50.9814 43.4505 51.2359 43.4999C51.4903 43.5493 51.7324 43.6486 51.9483 43.7919C52.1642 43.9352 52.3495 44.1198 52.4937 44.335C52.6378 44.5502 52.7379 44.7917 52.7882 45.0458L54.9018 55.4099C55.0052 55.922 54.9013 56.4541 54.6127 56.8896C54.3241 57.3252 53.8745 57.6288 53.3623 57.7338L44.3933 59.5586C43.8808 59.6619 43.3482 59.558 42.9122 59.2697C42.4762 58.9814 42.1723 58.5322 42.0672 58.0205L39.9573 47.6564C39.9045 47.4025 39.9023 47.1407 39.951 46.886C39.9996 46.6313 40.0981 46.3887 40.2408 46.1722C40.3834 45.9556 40.5675 45.7693 40.7824 45.6239C40.9973 45.4785 41.2389 45.377 41.4932 45.3251Z" fill="#6E6E6E"/>
<path d="M27.5514 40.9782L20.0661 42.5014L19.507 39.7641C19.4597 39.5111 19.5136 39.2496 19.6572 39.0358C19.8007 38.822 20.0225 38.673 20.2749 38.6208L25.8255 37.5036C26.0784 37.4503 26.3422 37.4985 26.5598 37.6379C26.7775 37.7773 26.9315 37.9966 26.9885 38.2484L27.5514 40.9782Z" fill="#E97522"/>
<path d="M32.7676 48.738L36.5214 47.9932L38.7804 59.0835L35.0266 59.8284L32.7676 48.738Z" fill="#30302F"/>
<path d="M33.3293 39.9087V39.9385C33.3178 40.1504 33.3892 40.3586 33.5282 40.519C33.6673 40.6795 33.8633 40.7798 34.0749 40.7988L36.5911 40.9515C36.8026 40.9619 37.01 40.8902 37.1698 40.7514C37.3296 40.6126 37.4295 40.4174 37.4485 40.2066V40.1768C37.4599 39.9649 37.3886 39.7568 37.2496 39.5963C37.1105 39.4359 36.9145 39.3356 36.7029 39.3166L34.1867 39.1602C33.9746 39.1498 33.7667 39.2219 33.6068 39.3616C33.4469 39.5012 33.3474 39.6973 33.3293 39.9087Z" fill="#83BCDC"/>
<path d="M32.1169 36.1145V36.0885C31.9753 35.9267 31.9029 35.7158 31.9155 35.5012C31.928 35.2867 32.0245 35.0856 32.184 34.9415L34.0777 33.2693C34.2395 33.1317 34.4484 33.0621 34.6605 33.0753C34.8726 33.0885 35.0712 33.1834 35.2147 33.3401C35.2919 33.4196 35.3522 33.5139 35.392 33.6173C35.4317 33.7207 35.45 33.8311 35.4459 33.9418C35.4417 34.0525 35.4151 34.1612 35.3676 34.2613C35.3202 34.3614 35.2529 34.4509 35.1699 34.5244L33.2762 36.2002C33.1109 36.342 32.8961 36.4125 32.6789 36.3965C32.4616 36.3804 32.2595 36.2791 32.1169 36.1145Z" fill="#83BCDC"/>
<path d="M28.5203 34.4794H28.4868C28.2756 34.4595 28.0801 34.359 27.9412 34.1987C27.8024 34.0385 27.7307 33.8309 27.7413 33.6191L27.8941 31.1091C27.9131 30.8984 28.0129 30.7032 28.1728 30.5643C28.3326 30.4255 28.5399 30.3538 28.7515 30.3643H28.785C28.9963 30.3842 29.1917 30.4847 29.3306 30.645C29.4695 30.8052 29.5411 31.0128 29.5306 31.2246L29.374 33.7234C29.3578 33.9355 29.2596 34.1329 29.1003 34.274C28.941 34.4151 28.733 34.4887 28.5203 34.4794Z" fill="#83BCDC"/>
<path d="M109.74 109.253L107.503 102.352C107.435 102.149 107.399 101.937 107.395 101.723L106.445 65.2266V68.932C106.443 70.2786 106.211 71.6149 105.759 72.8833L101.047 86.2901L102.404 88.3048C105.762 93.262 107.557 99.1109 107.556 105.097C107.556 106.529 107.413 107.957 107.131 109.361L105.789 115.997H107.906C108.436 115.997 108.944 115.787 109.319 115.413C109.693 115.038 109.904 114.53 109.904 114.001V110.277C109.904 109.929 109.848 109.584 109.74 109.253Z" fill="#E6B8B8"/>
<path d="M114.272 66.4384C113.669 61.8429 110.105 62.2824 109.501 57.6905C108.897 53.0987 112.461 52.6667 111.857 48.0749C111.253 43.4831 107.689 43.9188 107.085 39.327V36.5488H73.7146V39.327C73.1144 43.9263 69.5619 43.4868 68.9468 48.0749C68.3318 52.663 71.9029 53.0987 71.299 57.6905C70.6951 62.2824 67.1351 61.8504 66.5312 66.4384V67.5557C66.5528 68.603 66.9883 69.5994 67.7426 70.3271C68.4968 71.0548 69.5087 71.4549 70.5572 71.4399H109.698C110.89 71.4619 112.041 71.0106 112.899 70.1852C113.757 69.3599 114.253 68.2279 114.276 67.038V66.4645L114.272 66.4384Z" fill="#474748"/>
<path d="M105.885 51.6724C107.324 48.4771 98.8661 38.9434 96.6816 36.5488H94.8177L85.7221 40.2729L74.3301 43.2522C74.3301 43.2522 78.6654 53.419 78.1808 56.1525C77.6962 58.886 73.1633 63.4964 76.645 68.9671C77.2191 69.8795 78.3896 70.6914 79.9254 71.4176H107.928C110.877 66.0809 109.475 63.4815 107.555 61.1242C105.125 58.1374 104.23 55.3481 105.885 51.6724Z" fill="#30302F"/>
<path d="M89.5257 114.593H101.455L99.0128 132.394L97.149 142.36L97.354 144.315L96.4407 149.696C95.7953 149.39 95.0899 149.231 94.3755 149.231H91.6319C91.0999 149.232 90.5718 149.322 90.07 149.499L89.4922 144.307L89.9171 142.151L89.5108 132.301V114.593H89.5257Z" fill="#E6AFAC"/>
<path d="M87.8285 150.389L87.9738 150.102L89.5358 144.304L90.1098 149.517L90.546 151.644H96.0742L96.4805 149.678L97.3901 144.292L98.404 150.087L98.5233 150.374C98.6697 150.709 98.7458 151.07 98.747 151.435C98.7763 152.106 98.5381 152.761 98.0846 153.257C97.631 153.753 96.9992 154.048 96.3277 154.079H90.0651C89.6282 154.077 89.1992 153.963 88.8195 153.747C88.4398 153.531 88.1223 153.221 87.8975 152.846C87.6727 152.472 87.5482 152.046 87.5361 151.61C87.524 151.174 87.6247 150.741 87.8285 150.355V150.389Z" fill="#F9A7A7"/>
<path d="M87.5345 151.522C87.7171 150.564 89.32 145.395 89.5251 144.304L90.1029 149.518C91.9667 149.093 94.6768 148.985 96.4736 149.715L97.3869 144.33L98.3971 150.129C98.676 150.662 98.7889 151.266 98.7214 151.864C98.6444 152.474 98.3498 153.036 97.8917 153.446C97.4336 153.857 96.8428 154.088 96.2275 154.099C94.0282 153.745 87.3555 155.469 87.5307 151.522H87.5345Z" fill="#30302F"/>
<path d="M92.5818 121.471H80.627L83.0835 139.291L84.9288 149.257L84.7237 151.212L85.637 156.593C86.2824 156.287 86.9878 156.128 87.7022 156.128H90.4384C90.9702 156.13 91.498 156.221 92.0003 156.396L92.5781 151.204L92.1755 149.041L92.5781 139.19V121.471H92.5818Z" fill="#FFC2BF"/>
<path d="M101.315 60.8828H96.4245V57.3076C94.6892 58.0449 92.8229 58.4249 90.9373 58.4249C89.0516 58.4249 87.1853 58.0449 85.45 57.3076V60.8828H80.5592C77.7262 60.8828 75.4336 62.8305 75.4336 65.2362V68.9417C75.436 70.2839 75.6654 71.616 76.112 72.8818L80.8276 86.2886H101.028L105.762 72.8818C106.209 71.6174 106.437 70.2863 106.437 68.9454V65.2213C106.437 62.8267 104.145 60.8828 101.315 60.8828Z" fill="#FFC2BF"/>
<path d="M105.005 39.3274H104.916V38.024C104.916 34.3201 103.443 30.768 100.821 28.149C98.1998 25.5299 94.6442 24.0586 90.9367 24.0586C87.2293 24.0586 83.6736 25.5299 81.0521 28.149C78.4305 30.768 76.9577 34.3201 76.9577 38.024V39.3311H76.872C75.7608 39.3167 74.6886 39.74 73.8875 40.5094C73.0864 41.2788 72.6207 42.3324 72.5913 43.4422C72.5619 44.552 72.9711 45.6287 73.7304 46.4393C74.4897 47.25 75.5379 47.7293 76.6483 47.7737C76.7228 47.7737 76.7974 47.7737 76.872 47.7737C77.0239 47.7775 77.1759 47.77 77.3267 47.7513C78.0672 50.7987 79.8112 53.5091 82.2787 55.4474C84.7462 57.3857 87.7941 58.4394 90.933 58.4394C94.0719 58.4394 97.1198 57.3857 99.5873 55.4474C102.055 53.5091 103.799 50.7987 104.539 47.7513C104.688 47.7513 104.83 47.7737 104.998 47.7737C105.558 47.7962 106.116 47.7074 106.641 47.5124C107.166 47.3173 107.647 47.02 108.057 46.6376C108.466 46.2552 108.794 45.7953 109.024 45.2848C109.254 44.7743 109.379 44.2233 109.394 43.6638C109.409 43.1043 109.312 42.5475 109.109 42.0258C108.906 41.504 108.602 41.0278 108.213 40.6246C107.825 40.2215 107.36 39.8995 106.845 39.6775C106.331 39.4554 105.778 39.3377 105.218 39.3311H104.998L105.005 39.3274Z" fill="#FFCFCD"/>
<path d="M90.9454 58.4266C94.0851 58.4354 97.1359 57.3858 99.6044 55.4475C102.073 53.5093 103.815 50.7958 104.548 47.7459C104.697 47.7459 104.839 47.772 105.006 47.772C105.566 47.7945 106.125 47.7057 106.65 47.5107C107.175 47.3157 107.656 47.0183 108.065 46.6359C108.474 46.2535 108.803 45.7937 109.033 45.2831C109.262 44.7726 109.388 44.2216 109.403 43.6621C109.417 43.1027 109.32 42.5459 109.118 42.0241C108.915 41.5024 108.61 41.0261 108.222 40.6229C107.833 40.2198 107.368 39.8978 106.854 39.6758C106.34 39.4537 105.787 39.336 105.226 39.3294H104.917V38.026C104.89 35.6986 104.283 33.4147 103.149 31.3813C102.015 29.348 100.392 27.6294 98.4252 26.3815C96.4586 25.1336 94.2113 24.3958 91.8871 24.2351C89.5628 24.0743 87.2352 24.4956 85.1152 25.4609L86.4759 38.5697C93.8232 38.8937 95.5417 35.8623 95.5417 35.8623C95.5417 35.8623 102.401 37.0875 102.662 42.4726C102.923 47.8576 99.4037 58.4266 90.9454 58.4266Z" fill="#E6B8B8"/>
<g opacity="0.6">
<path opacity="0.6" d="M90.0868 149.503C90.5891 149.329 91.1169 149.238 91.6487 149.235H90.0645L90.0868 149.503Z" fill="#E6B8B8"/>
<path opacity="0.6" d="M101.472 114.591H99.6495L97.1929 132.411L95.329 142.376L95.5303 144.331L94.6953 149.27C95.2998 149.311 95.8914 149.463 96.4399 149.72L97.3532 144.335L97.1482 142.38L99.012 132.414L101.472 114.591Z" fill="#E6B8B8"/>
</g>
<path d="M76.0752 62.9453L65.0113 75.7711C64.3454 76.5043 63.9766 77.4588 63.9766 78.4487C63.9766 79.4387 64.3454 80.3932 65.0113 81.1264L73.8013 90.7345C73.9294 90.8736 74.015 91.0464 74.048 91.2324C74.0811 91.4185 74.0601 91.6102 73.9877 91.7847L72.6457 95.0359C72.1528 96.2377 72.0987 97.5745 72.4929 98.8121L74.2225 104.231H74.3232C74.4876 98.5419 76.2693 93.0174 79.46 88.3027L79.4898 88.258L74.0399 80.3518C73.901 80.1514 73.8409 79.9069 73.8712 79.665C73.9015 79.4232 74.0199 79.2009 74.2039 79.0409L77.3091 76.3297L76.1274 72.8812C75.6794 71.617 75.45 70.2859 75.449 68.9448V65.2207C75.4513 64.9425 75.4838 64.6653 75.5459 64.394" fill="#FFC2BF"/>
<path d="M102.84 61.0764C102.345 60.9465 101.835 60.8814 101.323 60.8828H96.432V57.3076C94.8581 57.9809 93.1738 58.3596 91.4629 58.4248C91.4629 62.2718 95.5373 62.9757 96.9315 62.9943C102.229 63.0688 102.15 64.8564 102.15 64.8564C102.624 63.653 102.858 62.3692 102.84 61.0764Z" fill="#E6B8B8"/>
<g opacity="0.6">
<path opacity="0.6" d="M92.5817 121.472H90.386V139.202L89.9723 149.045L90.3786 151.209L89.8418 156.132H90.4382C90.9703 156.133 91.4983 156.223 92.0002 156.4L92.578 151.209L92.1754 149.045L92.578 139.195L92.5817 121.472Z" fill="#E6B8B8"/>
<path opacity="0.6" d="M85.6369 156.597C86.2822 156.291 86.9876 156.132 87.702 156.131H85.5586L85.6369 156.597Z" fill="#E6B8B8"/>
</g>
<path d="M102.404 88.3049L101.047 86.2939L105.759 72.8871C106.205 71.6225 106.435 70.2917 106.437 68.9508V65.2267C106.434 64.9483 106.4 64.6711 106.337 64.3999C106.213 63.5309 105.802 62.7283 105.168 62.1207C104.534 61.513 103.714 61.1354 102.84 61.0482C102.877 63.4704 102.026 65.8223 100.446 67.6603C98.8668 69.4983 96.6686 70.6952 94.2664 71.0251C93.3403 71.1413 92.4077 71.1985 91.4743 71.1964C89.2462 71.2419 87.0288 70.8784 84.9321 70.1238C83.126 69.4169 81.5916 68.1544 80.5509 66.519C79.5103 64.8835 79.0172 62.9598 79.1429 61.0259C75.5308 61.4504 75.4711 64.9287 75.4711 65.208V68.9135C75.4632 70.265 75.6877 71.6078 76.1347 72.8834L80.8465 86.2902L79.4934 88.3012C76.1342 93.2596 74.3385 99.1095 74.3379 105.097C74.3426 106.536 74.4912 107.97 74.7815 109.38L75.7022 113.945C76.3153 116.971 77.0881 119.962 78.0172 122.906C87.6608 121.043 93.3754 129.147 101.901 126.957L104.909 126.183L107.146 109.38C107.428 107.976 107.571 106.547 107.571 105.115C107.569 99.122 105.769 93.2667 102.404 88.3049Z" fill="#89C3E8"/>
<path d="M84.6521 38.7285H74.2964C74.1453 38.729 73.9956 38.6997 73.8559 38.6423C73.7162 38.5848 73.5891 38.5004 73.4821 38.3939C73.3751 38.2873 73.2902 38.1607 73.2323 38.0213C73.1743 37.8819 73.1445 37.7324 73.1445 37.5815V31.0606C73.1445 28.1271 74.311 25.3138 76.3873 23.2396C78.4636 21.1653 81.2796 20 84.2159 20H89.692C91.0198 20.002 92.2926 20.5301 93.2311 21.4684C94.1697 22.4067 94.6973 23.6787 94.6983 25.0052V28.6809C94.6983 31.3476 93.6379 33.9052 91.7504 35.7909C89.8628 37.6766 87.3028 38.7359 84.6334 38.7359L84.6521 38.7285Z" fill="#474748"/>
<path d="M106.468 37.2423H104.428C103.15 37.2428 101.885 36.9917 100.704 36.5035C99.5232 36.0152 98.4502 35.2994 97.5463 34.3967C96.6425 33.4941 95.9255 32.4224 95.4363 31.2429C94.9471 30.0634 94.6953 28.7992 94.6953 27.5224V24.3122C94.6953 23.5119 95.0133 22.7442 95.5795 22.1779C96.1456 21.6116 96.9136 21.293 97.7148 21.292H98.3187C100.79 21.292 103.161 22.2729 104.908 24.0189C106.656 25.7649 107.638 28.133 107.638 30.6022V36.0953C107.638 36.2462 107.608 36.3957 107.55 36.5351C107.492 36.6745 107.407 36.8011 107.3 36.9077C107.193 37.0142 107.066 37.0986 106.927 37.1561C106.787 37.2135 106.637 37.2428 106.486 37.2423H106.468Z" fill="#474748"/>
<path d="M94.2778 157.287L94.1324 157L92.5817 151.213L92.0076 156.427L91.5566 158.568H86.0395L85.6369 156.598L84.7236 151.217L83.7283 157.008L83.6053 157.298C83.4603 157.632 83.3843 157.992 83.3816 158.356C83.3661 158.688 83.4166 159.021 83.5301 159.334C83.6436 159.647 83.818 159.935 84.0431 160.181C84.2683 160.427 84.5398 160.625 84.8421 160.766C85.1444 160.906 85.4715 160.986 85.8047 161H92.0337C92.4711 160.999 92.9007 160.885 93.281 160.669C93.6613 160.453 93.9793 160.143 94.2043 159.769C94.4294 159.394 94.5537 158.968 94.5652 158.531C94.5768 158.094 94.4752 157.662 94.2704 157.276L94.2778 157.287Z" fill="#F9A7A7"/>
<path d="M94.5648 158.419C94.5545 158.03 94.455 157.647 94.274 157.302L94.1286 157.015L92.5816 151.228L92.0076 156.419C91.5052 156.245 90.9775 156.154 90.4456 156.151H87.6908C86.9759 156.151 86.2702 156.312 85.6257 156.621L84.7161 151.232L83.7021 157.03L83.5791 157.317C83.4345 157.652 83.3584 158.013 83.3555 158.378C83.3555 158.503 83.3642 158.627 83.3816 158.751V158.795C83.3945 158.888 83.4131 158.98 83.4375 159.071C83.4561 159.138 83.471 159.205 83.4934 159.272C83.5158 159.339 83.5568 159.44 83.594 159.522C83.6313 159.604 83.6537 159.648 83.691 159.712C83.7282 159.775 83.7804 159.857 83.8289 159.928L83.9668 160.106C84.0153 160.162 84.0749 160.225 84.1308 160.281L84.3172 160.441C84.3741 160.49 84.4339 160.534 84.4962 160.576C84.573 160.625 84.6527 160.67 84.7347 160.71C84.8167 160.747 84.854 160.773 84.9174 160.799C85.0174 160.838 85.1194 160.872 85.2231 160.9C85.2753 160.9 85.3274 160.933 85.3871 160.944C85.5513 160.98 85.7186 160.998 85.8866 161H92.0076C92.5138 160.999 93.0084 160.848 93.4278 160.564C93.6979 160.383 93.9296 160.15 94.11 159.879C94.3941 159.462 94.5461 158.969 94.5461 158.464V158.419H94.5648Z" fill="#30302F"/>
<path d="M104.893 126.175C105.758 119.684 107.13 109.364 107.13 109.364C107.411 107.959 107.554 106.53 107.555 105.097C107.554 99.1111 105.76 93.2629 102.403 88.3047L101.046 86.2937L105.758 72.8869C106.205 71.6223 106.434 70.2915 106.437 68.9506V67.3529C106.437 67.3529 107.555 61.7072 102.839 61.0815C102.504 64.3066 102.154 64.8392 102.154 64.8392C99.2347 79.3408 96.0289 86.6624 96.0289 86.6624C96.0289 86.6624 101.893 102.341 101.471 108.262C100.402 123.211 96.6253 123.803 85.416 123.244C93.0765 125.173 95.9208 129.288 104.893 126.175Z" fill="#6DB8E8"/>
<path d="M79.5169 88.2577L74.0669 80.3515C73.9281 80.1511 73.868 79.9066 73.8983 79.6647C73.9285 79.4229 74.047 79.2007 74.231 79.0406L77.3362 76.3295L76.4303 73.7412C74.3726 74.892 70.6449 77.1115 70.7604 78.6161C70.9207 80.6531 77.4256 88.444 76.8814 90.6188C76.3371 92.7937 73.3065 95.6538 74.5404 101.62C75.0929 96.8426 76.7884 92.2685 79.4833 88.2838L79.5169 88.2577Z" fill="#E6B8B8"/>
<path d="M90.6214 161H92.0305C92.5356 160.999 93.0289 160.848 93.447 160.564C93.7914 160.333 94.0734 160.02 94.2684 159.654C94.4634 159.287 94.5654 158.879 94.5653 158.464V158.419C94.558 158.03 94.4597 157.647 94.2783 157.302L94.1329 157.015L92.5822 151.228L92.0081 156.419C91.5057 156.245 90.978 156.154 90.4462 156.151H90.3828C90.8935 157.309 91.695 159.678 90.6214 161Z" fill="#585858"/>
<path d="M96.688 154.046C96.7445 154.037 96.7996 154.02 96.852 153.998C96.9495 153.971 97.0453 153.939 97.1391 153.901C97.2024 153.875 97.2621 153.841 97.3217 153.811C97.3814 153.782 97.4857 153.726 97.564 153.677L97.7392 153.543L97.9294 153.383C97.9853 153.327 98.0375 153.268 98.0896 153.204C98.1418 153.141 98.1866 153.089 98.2313 153.029C98.276 152.97 98.3245 152.888 98.3692 152.813C98.414 152.739 98.4326 152.687 98.4661 152.623C98.4997 152.56 98.537 152.456 98.5668 152.374C98.5966 152.292 98.6041 152.24 98.6227 152.173C98.6414 152.106 98.6637 151.99 98.6786 151.897V151.852C98.6964 151.729 98.7039 151.605 98.701 151.48C98.6998 151.115 98.6237 150.753 98.4773 150.419L98.358 150.132L97.3441 144.333L96.4308 149.719C96.007 149.519 95.556 149.384 95.0925 149.316C95.0981 149.333 95.1078 149.349 95.1209 149.361C95.1339 149.373 95.1498 149.382 95.1671 149.387C95.9686 149.521 95.8008 153.856 94.5371 154.113H96.1587C96.3371 154.111 96.5148 154.089 96.688 154.046Z" fill="#585858"/>
<path d="M93.5482 87.2121C93.88 88.6124 94.2937 91.3087 94.7001 94.8056C94.7221 95.0097 94.8187 95.1986 94.9714 95.336C95.1241 95.4734 95.3221 95.5497 95.5276 95.5504H95.6245C95.7344 95.5393 95.841 95.5065 95.9382 95.4539C96.0353 95.4013 96.121 95.33 96.1903 95.2441C96.2597 95.1582 96.3113 95.0594 96.3421 94.9535C96.373 94.8475 96.3825 94.7365 96.3701 94.6268C95.9675 91.2193 95.5649 88.5379 95.2257 87.0371H93.5407C93.537 87.0956 93.5395 87.1542 93.5482 87.2121Z" fill="#6DB8E8"/>
<path d="M86.2751 95.535H86.3758C86.5809 95.5342 86.7784 95.4578 86.9305 95.3203C87.0826 95.1828 87.1784 94.994 87.1996 94.7901C87.5984 91.4385 87.9936 88.7832 88.3179 87.3419C88.3352 87.26 88.3415 87.1761 88.3365 87.0924V86.9956H86.6702V87.0999C86.3385 88.6081 85.9247 91.256 85.5519 94.5853C85.5357 94.6953 85.5416 94.8074 85.5693 94.9151C85.5971 95.0227 85.6461 95.1237 85.7134 95.2122C85.7808 95.3007 85.8652 95.3748 85.9616 95.4302C86.0581 95.4857 86.1647 95.5213 86.2751 95.535Z" fill="#6DB8E8"/>
<path d="M100.849 85.6147H81.0286C80.6601 85.6147 80.3613 85.9132 80.3613 86.2814V87.0038C80.3613 87.372 80.6601 87.6705 81.0286 87.6705H100.849C101.217 87.6705 101.516 87.372 101.516 87.0038V86.2814C101.516 85.9132 101.217 85.6147 100.849 85.6147Z" fill="#E0EBFC"/>
<path d="M90.938 88.9251C92.8465 88.9251 94.3936 87.903 94.3936 86.6422C94.3936 85.3814 92.8465 84.3594 90.938 84.3594C89.0295 84.3594 87.4824 85.3814 87.4824 86.6422C87.4824 87.903 89.0295 88.9251 90.938 88.9251Z" fill="white"/>
<g opacity="0.7">
<path opacity="0.7" d="M87.5938 87.2536C87.9963 88.2144 89.3085 88.9183 90.9226 88.9183C92.8275 88.9183 94.3745 87.8978 94.3745 86.6428C94.3503 86.2817 94.2302 85.9337 94.0264 85.6345C93.8226 85.3353 93.5425 85.0959 93.2152 84.9409C93.2977 85.1355 93.342 85.3441 93.3457 85.5554C93.3457 86.8104 91.7949 87.8308 89.89 87.8308C89.0875 87.8405 88.2962 87.6416 87.5938 87.2536Z" fill="#D3CDBF"/>
</g>
<path d="M90.8892 29.6824C97.8489 29.6824 103.627 32.8069 104.917 39.3204C105.006 39.3204 105.122 39.3204 105.226 39.3204C105.353 38.4564 105.204 36.8327 105.204 36.0581C105.143 32.3058 103.609 28.7277 100.931 26.0956C98.2534 23.4634 94.6475 21.9883 90.8911 21.9883C87.1346 21.9883 83.5287 23.4634 80.8512 26.0956C78.1736 28.7277 76.639 32.3058 76.5784 36.0581C76.5784 36.8327 76.3771 38.4601 76.53 39.3278C76.6753 39.3278 76.7909 39.3278 76.9698 39.3278C78.2596 32.8218 83.9332 29.6824 90.8892 29.6824Z" fill="#E97522"/>
<path d="M100.789 25.8472C101.535 26.7037 102.485 31.8057 101.162 32.923C103.119 34.5587 104.439 36.8301 104.89 39.3396C104.979 39.3396 105.095 39.3396 105.199 39.3396C105.326 38.4756 105.177 36.8519 105.177 36.0773C105.181 34.1635 104.794 32.2689 104.04 30.5097C103.285 28.7506 102.179 27.164 100.789 25.8472Z" fill="black" fill-opacity="0.32"/>
<path d="M74.8893 45.356C74.7937 45.3607 74.7036 45.4021 74.6377 45.4714C74.5717 45.5407 74.535 45.6327 74.5352 45.7284V48.2161C74.5588 48.292 74.606 48.3583 74.6701 48.4055C74.7341 48.4526 74.8116 48.478 74.8912 48.478C74.9707 48.478 75.0482 48.4526 75.1122 48.4055C75.1763 48.3583 75.2236 48.292 75.2472 48.2161V45.7135C75.2435 45.6198 75.2046 45.531 75.1383 45.4647C75.0719 45.3985 74.983 45.3596 74.8893 45.356Z" fill="#D8E2F2"/>
<path d="M105.885 45.356C105.79 45.3607 105.7 45.4021 105.634 45.4714C105.568 45.5407 105.531 45.6327 105.531 45.7284V48.2161C105.555 48.292 105.602 48.3583 105.666 48.4055C105.73 48.4526 105.808 48.478 105.887 48.478C105.967 48.478 106.044 48.4526 106.108 48.4055C106.172 48.3583 106.22 48.292 106.243 48.2161V45.7135C106.24 45.6198 106.201 45.531 106.134 45.4647C106.068 45.3985 105.979 45.3596 105.885 45.356Z" fill="#D8E2F2"/>
<path d="M76.6673 50.2816C76.6873 50.5226 76.6558 50.7652 76.5748 50.9931C76.4938 51.221 76.3653 51.4292 76.1976 51.6037C75.9477 51.8736 75.6203 52.0597 75.2603 52.1363C74.9003 52.2128 74.5254 52.1762 74.1871 52.0313C73.8488 51.8864 73.5638 51.6404 73.3711 51.3271C73.1784 51.0138 73.0876 50.6486 73.1111 50.2816C73.1111 49.3692 74.125 48.3786 74.6021 47.9466C74.6753 47.8752 74.7728 47.834 74.8751 47.8312C74.9774 47.8284 75.0769 47.8643 75.1539 47.9317C75.6571 48.3786 76.6673 49.3692 76.6673 50.2816Z" fill="#E0EBFC"/>
<path d="M107.664 50.2809C107.687 50.5206 107.658 50.7623 107.58 50.9902C107.503 51.218 107.378 51.4269 107.213 51.603C106.963 51.8729 106.636 52.059 106.276 52.1356C105.916 52.2121 105.541 52.1755 105.203 52.0306C104.864 51.8857 104.579 51.6397 104.387 51.3264C104.194 51.0131 104.103 50.6479 104.127 50.2809C104.127 49.3685 105.141 48.3779 105.636 47.9459C105.711 47.8807 105.806 47.8447 105.905 47.8447C106.004 47.8447 106.099 47.8807 106.173 47.9459C106.65 48.3779 107.664 49.3685 107.664 50.2809Z" fill="#E0EBFC"/>
<path d="M74.6097 49.476L74.5687 49.5282C74.4402 49.6554 74.3404 49.8086 74.2761 49.9775C74.2118 50.1465 74.1845 50.3272 74.1959 50.5076C74.2132 50.5886 74.2571 50.6615 74.3206 50.7148C74.384 50.768 74.4635 50.7987 74.5463 50.8018H74.6059C74.6961 50.7813 74.7755 50.728 74.8285 50.6523C74.8816 50.5766 74.9045 50.4838 74.893 50.3922C74.893 50.2916 75.0346 50.0942 75.1278 49.9751L75.1726 49.9192C75.2213 49.8863 75.2615 49.8423 75.29 49.7909C75.3184 49.7395 75.3343 49.682 75.3363 49.6233C75.3383 49.5646 75.3264 49.5062 75.3015 49.453C75.2766 49.3998 75.2394 49.3532 75.193 49.317C75.1466 49.2809 75.0924 49.2562 75.0346 49.2451C74.9769 49.2339 74.9173 49.2365 74.8608 49.2528C74.8043 49.269 74.7524 49.2984 74.7094 49.3385C74.6664 49.3786 74.6335 49.4282 74.6134 49.4835L74.6097 49.476Z" fill="white"/>
<path d="M106.094 49.4213C106.017 49.3676 105.924 49.3443 105.831 49.356C105.739 49.3677 105.654 49.4136 105.594 49.4846L105.553 49.5368C105.425 49.664 105.325 49.8172 105.26 49.9862C105.196 50.1551 105.169 50.3358 105.18 50.5162C105.198 50.5972 105.241 50.6701 105.305 50.7234C105.368 50.7766 105.448 50.8073 105.531 50.8104H105.59C105.681 50.7899 105.76 50.7366 105.813 50.6609C105.866 50.5852 105.889 50.4924 105.877 50.4008C105.859 50.3002 106.019 50.1028 106.112 49.9837L106.157 49.9278C106.213 49.8512 106.238 49.7561 106.226 49.662C106.214 49.5679 106.167 49.4818 106.094 49.4213Z" fill="white"/>
<path opacity="0.8" d="M150.284 37.9751C149.281 40.6713 146.183 47.6391 140.625 49.4155C140.541 49.4417 140.467 49.4941 140.415 49.5651C140.362 49.6362 140.334 49.722 140.334 49.8103C140.334 49.8985 140.362 49.9843 140.415 50.0554C140.467 50.1264 140.541 50.1788 140.625 50.205C146.254 51.8175 149.292 58.1746 150.28 60.6325C150.312 60.7076 150.365 60.7717 150.434 60.8167C150.502 60.8618 150.582 60.8858 150.664 60.8858C150.746 60.8858 150.826 60.8618 150.894 60.8167C150.962 60.7717 151.016 60.7076 151.048 60.6325C152.166 58.1336 155.618 51.5904 161.571 50.2534C161.659 50.2311 161.737 50.1809 161.793 50.1105C161.85 50.04 161.882 49.9532 161.885 49.8629C161.888 49.7726 161.862 49.6838 161.81 49.6098C161.758 49.5359 161.683 49.4807 161.597 49.4527C155.473 47.3635 152.14 40.5745 151.048 37.9341C151.011 37.8616 150.954 37.8012 150.884 37.7605C150.814 37.7197 150.733 37.7004 150.652 37.7047C150.571 37.709 150.493 37.7369 150.428 37.785C150.362 37.833 150.312 37.8991 150.284 37.9751Z" fill="#E97522"/>
<path d="M139.456 34.9307C137.592 33.7725 133.812 30.864 132.567 25.8886C132.426 25.3262 131.919 25.3411 131.792 25.9109C130.674 30.9273 127.199 33.7986 125.511 34.9382C125.351 35.0992 125.262 35.3167 125.262 35.5433C125.262 35.7699 125.351 35.9874 125.511 36.1485C127.218 37.4296 130.774 40.6658 131.777 45.9838C131.889 46.5722 132.411 46.6244 132.556 46.0509C133.618 42.0357 136.074 38.5285 139.486 36.1559C139.566 36.0742 139.629 35.9773 139.67 35.871C139.712 35.7648 139.732 35.6512 139.729 35.537C139.727 35.4229 139.701 35.3104 139.654 35.2063C139.607 35.1022 139.54 35.0085 139.456 34.9307Z" fill="#E97522"/>
<path d="M136.432 61.7392C135.384 61.0652 133.241 59.3744 132.532 56.4808C132.454 56.1531 132.16 56.1605 132.096 56.4808C131.611 58.6144 130.342 60.4883 128.54 61.7318C128.45 61.8271 128.4 61.9529 128.4 62.0837C128.4 62.2145 128.45 62.3403 128.54 62.4356C130.379 63.8482 131.639 65.8818 132.085 68.1558C132.148 68.4985 132.458 68.5283 132.525 68.1968C133.116 65.8836 134.501 63.8512 136.439 62.4543C136.486 62.407 136.523 62.3509 136.548 62.2893C136.573 62.2277 136.585 62.1617 136.585 62.0952C136.584 62.0287 136.57 61.963 136.544 61.9019C136.518 61.8408 136.479 61.7855 136.432 61.7392Z" fill="#E97522"/>
</svg>
