<svg width="180" height="180" viewBox="0 0 180 180" fill="none" xmlns="http://www.w3.org/2000/svg">
<g clip-path="url(#clip0_9777_21911)">
<path fill-rule="evenodd" clip-rule="evenodd" d="M47.1849 95.6763C27.7303 99.6286 15 106.199 15 113.642C15 117.475 16.5624 125.875 24.2909 124.199C33.7101 119.22 49.589 115.422 68.6328 113.779C67.5875 108.478 64.2781 104.684 60.2633 100.986C57.3309 98.2848 54.9901 96.2568 47.1849 95.6763Z" fill="#306694"/>
<path fill-rule="evenodd" clip-rule="evenodd" d="M132.808 95.6763C127.495 103.513 112.429 99.26 111.359 113.779C130.403 115.422 146.282 119.221 155.701 124.2C163.756 124.727 165.001 117.475 165.001 113.642C165.001 106.199 152.262 99.6286 132.808 95.6763V95.6763Z" fill="#306694"/>
<path fill-rule="evenodd" clip-rule="evenodd" d="M155.699 124.2C150.788 126.801 144.132 129.068 136.184 130.882C134.704 131.224 134.533 132.062 134.533 133.483V151.141C134.533 151.808 134.662 152.236 135.431 152.065C153.398 148.069 164.999 141.755 164.999 134.655V113.643C164.999 117.476 161.628 121.069 155.699 124.2V124.2Z" fill="#83BCDC"/>
<path fill-rule="evenodd" clip-rule="evenodd" d="M89.9954 135.527C61.7032 135.527 37.064 130.95 24.2909 124.2C18.3709 121.069 15 117.476 15 113.643V134.655C15 146.743 48.5794 156.539 89.9954 156.539V164.658C89.9954 164.786 90.0039 164.897 90.0212 165H91.2959L116.072 147.102C117.107 146.581 117.107 145.477 116.072 144.955L90.9965 126.852C90.2693 126.484 89.9954 126.561 89.9954 127.408V135.527Z" fill="#83BCDC"/>
<g filter="url(#filter0_d_9777_21911)">
<path fill-rule="evenodd" clip-rule="evenodd" d="M89.9957 15C61.4468 15 38.3047 38.142 38.3047 66.6912C38.3047 77.428 41.5812 87.4035 47.1851 95.6766C52.5066 103.513 59.924 109.819 68.6333 113.78C75.144 116.74 82.3817 118.383 89.996 118.383C97.6187 118.383 104.848 116.74 111.359 113.78C120.068 109.819 127.494 103.513 132.807 95.6766C138.419 87.4038 141.687 77.428 141.687 66.6912C141.687 38.142 118.545 15 89.9957 15V15Z" fill="white"/>
</g>
<path fill-rule="evenodd" clip-rule="evenodd" d="M157.762 123.036V140.002C157.762 141.824 156.992 143.595 155.555 145.289C161.569 142.14 165 138.513 165 134.655V113.643C165 117.005 162.399 120.187 157.762 123.036Z" fill="#69B1DA"/>
<path fill-rule="evenodd" clip-rule="evenodd" d="M89.995 15C87.6849 15 85.4007 15.1539 83.168 15.4448C108.688 18.6101 128.434 40.3665 128.434 66.7425C128.434 92.9815 108.893 114.652 83.5699 117.989C85.6746 118.254 87.8218 118.382 89.995 118.382C97.6177 118.382 104.847 116.74 111.358 113.779C120.067 109.818 127.493 103.513 132.806 95.676C138.418 87.4032 141.686 77.4274 141.686 66.6906C141.686 38.142 118.544 15 89.995 15V15Z" fill="#F5FAFF"/>
<path d="M67.34 64.6007C69.5322 64.9584 71.2121 65.7812 72.3796 67.0689C73.5472 68.3327 74.131 69.9066 74.131 71.7905C74.131 73.2452 73.7498 74.5925 72.9873 75.8325C72.2248 77.0487 71.0572 78.0264 69.4845 78.7657C67.9357 79.5049 66.0295 79.8745 63.7658 79.8745C62.0025 79.8745 60.2631 79.648 58.5474 79.1949C56.8557 78.718 55.4141 78.0503 54.2227 77.1918L56.4744 72.7563C57.4275 73.4717 58.5236 74.0321 59.7627 74.4375C61.0256 74.819 62.3123 75.0098 63.6228 75.0098C65.0763 75.0098 66.2201 74.7356 67.0541 74.1871C67.8881 73.6148 68.305 72.8159 68.305 71.7905C68.305 69.7397 66.7443 68.7143 63.6228 68.7143H60.9779V64.8869L66.1248 59.0564H55.4736V54.4063H72.9873V58.1621L67.34 64.6007Z" fill="#474748"/>
<path d="M88.8495 63.7423C90.446 63.7423 91.8995 64.0642 93.21 64.7081C94.5206 65.3519 95.5571 66.27 96.3196 67.4623C97.0821 68.6308 97.4633 69.9901 97.4633 71.5401C97.4633 73.2094 97.0463 74.676 96.2124 75.9398C95.3784 77.2037 94.2346 78.1814 92.7811 78.873C91.3514 79.5407 89.755 79.8745 87.9917 79.8745C84.489 79.8745 81.7487 78.8014 79.771 76.6552C77.7933 74.509 76.8044 71.4447 76.8044 67.4623C76.8044 64.6246 77.3405 62.1922 78.4128 60.1653C79.4851 58.1383 80.9743 56.6002 82.8806 55.5509C84.8106 54.5017 87.0386 53.9771 89.5643 53.9771C90.8987 53.9771 92.1735 54.1321 93.3887 54.4421C94.6278 54.7282 95.6762 55.1455 96.534 55.694L94.3895 59.9506C93.1505 59.116 91.5897 58.6987 89.7073 58.6987C87.5866 58.6987 85.9067 59.3187 84.6677 60.5587C83.4286 61.7988 82.7614 63.5992 82.6661 65.96C84.1434 64.4815 86.2046 63.7423 88.8495 63.7423ZM87.67 75.5464C88.9091 75.5464 89.9098 75.2125 90.6723 74.5448C91.4587 73.8771 91.8518 72.9709 91.8518 71.8263C91.8518 70.6816 91.4587 69.7755 90.6723 69.1078C89.9098 68.4162 88.8852 68.0704 87.5985 68.0704C86.3356 68.0704 85.2991 68.4281 84.489 69.1435C83.6788 69.8351 83.2737 70.7293 83.2737 71.8263C83.2737 72.9232 83.6669 73.8175 84.4532 74.509C85.2395 75.2006 86.3118 75.5464 87.67 75.5464Z" fill="#474748"/>
<path d="M110.285 79.8745C108.212 79.8745 106.365 79.3618 104.745 78.3364C103.124 77.311 101.85 75.8325 100.92 73.9009C100.015 71.9455 99.5621 69.6205 99.5621 66.9258C99.5621 64.2311 100.015 61.918 100.92 59.9864C101.85 58.031 103.124 56.5406 104.745 55.5152C106.365 54.4898 108.212 53.9771 110.285 53.9771C112.358 53.9771 114.204 54.4898 115.825 55.5152C117.445 56.5406 118.708 58.031 119.613 59.9864C120.543 61.918 121.007 64.2311 121.007 66.9258C121.007 69.6205 120.543 71.9455 119.613 73.9009C118.708 75.8325 117.445 77.311 115.825 78.3364C114.204 79.3618 112.358 79.8745 110.285 79.8745ZM110.285 74.974C111.81 74.974 113.001 74.3183 113.859 73.0067C114.741 71.6951 115.181 69.6682 115.181 66.9258C115.181 64.1834 114.741 62.1565 113.859 60.8449C113.001 59.5333 111.81 58.8775 110.285 58.8775C108.784 58.8775 107.592 59.5333 106.71 60.8449C105.853 62.1565 105.424 64.1834 105.424 66.9258C105.424 69.6682 105.853 71.6951 106.71 73.0067C107.592 74.3183 108.784 74.974 110.285 74.974Z" fill="#474748"/>
<path d="M121.928 50.3882C121.042 51.2746 121.042 52.7118 121.928 53.5984C122.371 54.0417 122.952 54.2634 123.532 54.2634C124.112 54.2634 124.693 54.0417 125.136 53.5984L125.144 53.5899C126.03 52.7036 126.026 51.2704 125.14 50.3841C124.254 49.4972 122.814 49.5019 121.928 50.3882V50.3882Z" fill="#474748"/>
</g>
<defs>
<filter id="filter0_d_9777_21911" x="14.3047" y="-9" width="151.383" height="151.383" filterUnits="userSpaceOnUse" color-interpolation-filters="sRGB">
<feFlood flood-opacity="0" result="BackgroundImageFix"/>
<feColorMatrix in="SourceAlpha" type="matrix" values="0 0 0 0 0 0 0 0 0 0 0 0 0 0 0 0 0 0 127 0" result="hardAlpha"/>
<feOffset/>
<feGaussianBlur stdDeviation="12"/>
<feColorMatrix type="matrix" values="0 0 0 0 0.702778 0 0 0 0 0.839667 0 0 0 0 0.916667 0 0 0 0.25 0"/>
<feBlend mode="normal" in2="BackgroundImageFix" result="effect1_dropShadow_9777_21911"/>
<feBlend mode="normal" in="SourceGraphic" in2="effect1_dropShadow_9777_21911" result="shape"/>
</filter>
<clipPath id="clip0_9777_21911">
<rect width="180" height="180" fill="white"/>
</clipPath>
</defs>
</svg>
