<svg width="180" height="180" viewBox="0 0 180 180" fill="none" xmlns="http://www.w3.org/2000/svg">
<path d="M112.47 109.111L110.176 102.071C110.117 101.866 110.059 101.661 110.059 101.426L109.088 64.1719V67.9559C109.088 69.3053 108.853 70.684 108.382 71.9747L103.559 85.6736L104.941 87.727C108.382 92.8017 110.206 98.7565 110.206 104.858C110.206 106.325 110.059 107.791 109.764 109.199L108.382 115.975H110.559C111.676 115.975 112.588 115.066 112.588 113.951V110.138C112.647 109.786 112.588 109.434 112.47 109.111Z" fill="#FFCBC9"/>
<path d="M117.116 65.4027C116.499 60.7093 112.852 61.1493 112.234 56.4852C111.616 51.7918 115.264 51.3518 114.646 46.6584C114.028 41.965 110.381 42.405 109.764 37.7409V34.8955H75.6459V37.7409C75.0283 42.4343 71.3812 41.9943 70.7636 46.6584C70.1459 51.3518 73.793 51.7918 73.1753 56.4852C72.5577 61.1787 68.9106 60.7386 68.293 65.4027V66.5174C68.293 68.7175 70.1459 70.4775 72.4106 70.4775H112.411C114.999 70.4775 117.087 68.4535 117.087 65.9894L117.116 65.4027Z" fill="#474748"/>
<path d="M108.558 50.3251C110.028 47.0691 101.381 37.3302 99.1459 34.8955H97.2341L87.94 38.7089L76.293 41.7596C76.293 41.7596 80.7341 52.1438 80.2341 54.9305C79.7341 57.7173 75.0871 62.4107 78.6459 67.9841C79.2341 68.9228 80.44 69.7441 81.9988 70.4775H110.616C113.616 65.0214 112.205 62.3813 110.234 59.976C107.764 56.9252 106.852 54.0799 108.558 50.3251Z" fill="#30302F"/>
<path d="M91.8242 114.538H93.5007H104.06L101.56 132.725L99.6772 142.904L99.883 144.899L98.9419 150.384C98.2948 150.091 97.5889 149.915 96.8242 149.915H94.0301C93.4713 149.915 92.9419 150.003 92.4419 150.179L91.8536 144.869L92.2654 142.669L91.8536 132.608L91.8242 114.538Z" fill="#FFCBC9"/>
<path d="M90.0597 151.087L90.2068 150.794L91.795 144.868L92.3833 150.207L92.8244 152.378H98.4715L98.8833 150.354L99.8244 144.868L100.854 150.794L100.971 151.087C101.119 151.439 101.207 151.791 101.207 152.172C101.266 153.639 100.089 154.871 98.6186 154.871H92.3539C90.9127 154.871 89.7656 153.727 89.7656 152.29C89.7656 151.879 89.8833 151.468 90.0597 151.087Z" fill="#F9A7A7"/>
<path d="M89.7657 152.231C89.7657 151.82 89.8834 151.439 90.0599 151.087L90.2069 150.794L91.7951 144.868L92.3834 150.178C92.8834 150.002 93.4128 149.914 93.9716 149.914H96.7657C97.5304 149.914 98.2363 150.09 98.8834 150.383L99.8246 144.897L100.854 150.823L100.972 151.116C101.119 151.468 101.207 151.82 101.207 152.202C101.207 152.348 101.207 152.466 101.177 152.612C101.177 152.642 101.177 152.642 101.177 152.671C101.177 152.759 101.148 152.847 101.119 152.964C101.089 153.023 101.089 153.111 101.06 153.17C101.03 153.258 101.001 153.346 100.942 153.434C100.913 153.492 100.883 153.551 100.854 153.639C100.825 153.727 100.766 153.786 100.707 153.844C100.648 153.903 100.619 153.962 100.56 154.02C100.501 154.079 100.442 154.138 100.383 154.196C100.325 154.255 100.266 154.314 100.177 154.372C100.119 154.431 100.06 154.46 100.001 154.519C99.9128 154.578 99.854 154.607 99.7657 154.666C99.7069 154.695 99.6481 154.724 99.5893 154.754C99.501 154.783 99.3834 154.812 99.2657 154.842C99.2069 154.871 99.1481 154.871 99.0893 154.9C98.9128 154.93 98.7657 154.959 98.5893 154.959H92.3246C91.7952 154.959 91.2951 154.783 90.8834 154.519C90.6187 154.343 90.3834 154.108 90.1775 153.815C89.8834 153.404 89.7363 152.906 89.7363 152.378C89.7657 152.26 89.7657 152.26 89.7657 152.231Z" fill="#404040"/>
<path d="M94.9404 121.578H93.2639H82.7051L85.2051 139.765L87.0874 149.943L86.8815 151.938L87.8227 157.424C88.4698 157.13 89.1757 156.954 89.9404 156.954H92.7345C93.2933 156.954 93.8227 157.042 94.3227 157.218L94.9109 151.909L94.4992 149.709L94.9109 139.647L94.9404 121.578Z" fill="#FFCBC9"/>
<path d="M103.883 59.7424H98.8827V56.105C97.1474 56.8383 95.265 57.249 93.265 57.249C91.265 57.249 89.3827 56.8383 87.6474 56.105V59.7424H82.6474C79.765 59.7424 77.4121 61.7371 77.4121 64.2011V67.9559C77.4121 69.3052 77.6474 70.6839 78.118 71.9746L82.9415 85.6735H93.265H103.589L108.412 71.9746C108.883 70.6839 109.118 69.3052 109.118 67.9559V64.1718C109.118 61.7077 106.765 59.7424 103.883 59.7424Z" fill="#FFCBC9"/>
<path d="M107.647 37.7416C107.617 37.7416 107.588 37.7416 107.559 37.7416V36.4216C107.559 28.6188 101.176 22.312 93.2646 22.312C85.3528 22.312 78.9705 28.6481 78.9705 36.4216V37.7416C78.9411 37.7416 78.9116 37.7416 78.8822 37.7416C76.4705 37.7416 74.5293 39.6777 74.5293 42.0537C74.5293 44.4297 76.4705 46.3658 78.8822 46.3658C79.0293 46.3658 79.2058 46.3658 79.3528 46.3364C80.8234 52.5846 86.4999 57.2486 93.2646 57.2486C100.029 57.2486 105.706 52.5846 107.176 46.3364C107.323 46.3658 107.5 46.3658 107.647 46.3658C110.059 46.3658 112 44.4297 112 42.0537C112 39.6483 110.059 37.7416 107.647 37.7416Z" fill="#FFCBC9"/>
<path d="M93.2655 57.2189C100.03 57.2189 105.707 52.5548 107.177 46.3067C107.324 46.336 107.501 46.336 107.648 46.336C110.06 46.336 112.001 44.4 112.001 42.0239C112.001 39.6479 110.06 37.7118 107.648 37.7118C107.618 37.7118 107.589 37.7118 107.56 37.7118V36.3918C107.56 28.589 101.177 22.2822 93.2655 22.2822C91.1479 22.2822 89.1184 22.7516 87.2949 23.5729L88.6773 36.9492C96.1773 37.2718 97.942 34.1918 97.942 34.1918C97.942 34.1918 104.942 35.4531 105.236 40.9386C105.53 46.424 101.913 57.2189 93.2655 57.2189Z" fill="#E6B8B8"/>
<g opacity="0.6">
<path opacity="0.6" d="M92.381 150.178C92.881 150.002 93.4104 149.914 93.9692 149.914H92.3516L92.381 150.178Z" fill="#E6B8B8"/>
<path opacity="0.6" d="M104.029 114.537H102.176L99.6759 132.724L97.7935 142.902L97.9994 144.897L97.1465 149.943C97.7935 149.972 98.3818 150.148 98.9406 150.412L99.8818 144.927L99.6759 142.932L101.558 132.753L104.029 114.537Z" fill="#E6B8B8"/>
</g>
<path d="M104.971 87.7276L103.589 85.6742L108.412 71.9753C108.883 70.6846 109.118 69.3059 109.118 67.9565V64.1725C109.118 63.8791 109.089 63.6151 109.03 63.3218H77.5594C77.5006 63.5858 77.4712 63.8791 77.4712 64.1725V67.9565C77.4712 69.3059 77.7065 70.6846 78.177 71.9753L83.0006 85.6742L81.6182 87.7276C78.177 92.8023 76.3535 98.7571 76.3535 104.859C76.3535 106.325 76.5006 107.792 76.7947 109.2L79.2947 121.55H93.3535H107.412L109.912 109.2C110.206 107.763 110.353 106.296 110.353 104.859C110.265 98.7571 108.412 92.773 104.971 87.7276Z" fill="#83BCDC"/>
<path d="M86.8233 37.1257H76.2351C75.588 37.1257 75.0586 36.5977 75.0586 35.9523V29.2935C75.0586 23.0454 80.1174 18 86.3821 18H91.9703C94.7939 18 97.088 20.288 97.088 23.1041V26.8588C97.1174 32.5203 92.4998 37.1257 86.8233 37.1257Z" fill="#474748"/>
<path d="M109.149 35.6001H107.06C101.56 35.6001 97.1191 31.1707 97.1191 25.6853V22.3999C97.1191 20.6985 98.5015 19.3198 100.207 19.3198H100.825C106.09 19.3198 110.325 23.5732 110.325 28.7947V34.4268C110.325 35.0721 109.796 35.6001 109.149 35.6001Z" fill="#474748"/>
<path d="M96.6765 158.128L96.5294 157.835L94.9412 151.909L94.353 157.248L93.9118 159.419H88.2647L87.853 157.395L86.9118 151.909L85.8824 157.835L85.7648 158.128C85.6177 158.48 85.5295 158.832 85.5295 159.213C85.4706 160.68 86.6471 161.912 88.1177 161.912H94.3824C95.8236 161.912 96.9706 160.768 96.9706 159.331C96.9706 158.92 96.8824 158.509 96.6765 158.128Z" fill="#F9A7A7"/>
<path d="M96.9706 159.272C96.9706 158.861 96.8529 158.48 96.6765 158.128L96.5294 157.835L94.9412 151.909L94.3529 157.219C93.8529 157.043 93.3235 156.955 92.7647 156.955H89.9412C89.1765 156.955 88.4706 157.131 87.8235 157.424L86.8824 151.939L85.8529 157.864L85.7353 158.157C85.5882 158.509 85.5 158.861 85.5 159.243C85.5 159.389 85.5 159.507 85.5294 159.653C85.5294 159.683 85.5294 159.683 85.5294 159.712C85.5294 159.8 85.5588 159.888 85.5882 160.005C85.6176 160.064 85.6176 160.152 85.6471 160.211C85.6765 160.299 85.7059 160.387 85.7647 160.475C85.7941 160.533 85.8235 160.592 85.8529 160.68C85.8824 160.768 85.9412 160.827 86 160.885C86.0588 160.944 86.0882 161.003 86.1471 161.061C86.2059 161.12 86.2647 161.179 86.3235 161.237C86.3824 161.296 86.4412 161.355 86.5294 161.413C86.5882 161.472 86.6471 161.501 86.7059 161.56C86.7941 161.619 86.8529 161.648 86.9412 161.707C87 161.736 87.0588 161.765 87.1176 161.795C87.2059 161.824 87.3235 161.853 87.4412 161.883C87.5 161.912 87.5588 161.912 87.6176 161.941C87.7941 161.971 87.9412 162 88.1176 162H94.3823C94.9118 162 95.4118 161.824 95.8235 161.56C96.0882 161.384 96.3235 161.149 96.5294 160.856C96.8235 160.445 96.9706 159.947 96.9706 159.419C96.9706 159.301 96.9706 159.301 96.9706 159.272Z" fill="#404040"/>
<path d="M76.8531 49.4167C76.3531 49.4167 75.9707 49.0354 75.9707 48.5367V44.3126C75.9707 43.814 76.3531 43.4326 76.8531 43.4326C77.3531 43.4326 77.7354 43.814 77.7354 44.3126V48.5367C77.7354 49.0061 77.3531 49.4167 76.8531 49.4167Z" fill="#E0EBFC"/>
<path d="M108.558 49.4167C108.058 49.4167 107.676 49.0354 107.676 48.5367V44.3126C107.676 43.814 108.058 43.4326 108.558 43.4326C109.058 43.4326 109.44 43.814 109.44 44.3126V48.5367C109.44 49.0061 109.029 49.4167 108.558 49.4167Z" fill="#E0EBFC"/>
<path d="M76.8531 49.4167C76.3531 49.4167 75.9707 49.0354 75.9707 48.5367V44.3126C75.9707 43.814 76.3531 43.4326 76.8531 43.4326C77.3531 43.4326 77.7354 43.814 77.7354 44.3126V48.5367C77.7354 49.0061 77.3531 49.4167 76.8531 49.4167Z" fill="white"/>
<path d="M108.558 49.4167C108.058 49.4167 107.676 49.0354 107.676 48.5367V44.3126C107.676 43.814 108.058 43.4326 108.558 43.4326C109.058 43.4326 109.44 43.814 109.44 44.3126V48.5367C109.44 49.0061 109.029 49.4167 108.558 49.4167Z" fill="white"/>
<path d="M81.5583 87.7264L81.5877 87.6678L76.0289 79.6009C75.7347 79.1903 75.7936 78.6036 76.2053 78.2516L79.3818 75.4942L78.1465 71.9741C77.6759 70.6834 77.4406 69.3047 77.4406 67.9554V64.1713C77.4406 63.878 77.47 63.614 77.5289 63.3206H78.2347L77.823 62.6753L66.7642 74.9075C65.3524 76.4622 65.3524 78.8383 66.7936 80.3636L75.7641 90.1611C76.0289 90.4545 76.1171 90.8651 75.9406 91.2465L74.5583 94.5612C74.0583 95.7932 73.9994 97.1426 74.4112 98.4039L76.1759 103.919H76.2936C76.47 98.1693 78.2936 92.5372 81.5583 87.7264Z" fill="#FFCBC9"/>
<path d="M138.266 40.9395C138.295 41.0568 138.295 41.2035 138.295 41.3208V52.673C138.295 52.8197 138.266 52.937 138.266 53.0837H146.119V40.9395H138.266Z" fill="#30302F"/>
<path d="M148.764 62.8514H159.352C160.823 62.8514 162 61.678 162 60.2113V34.2802C162 32.8135 160.823 31.6401 159.352 31.6401H148.764C147.294 31.6401 146.117 32.8135 146.117 34.2802V60.182C146.117 61.6487 147.294 62.8514 148.764 62.8514Z" fill="#6B6B6B"/>
<path d="M136.205 39.2085H126.352C125.176 39.2085 124.234 40.1472 124.234 41.3205V52.6727C124.234 53.8461 125.176 54.7848 126.352 54.7848H136.205C137.381 54.7848 138.323 53.8461 138.323 52.6727V41.3205C138.323 40.1472 137.352 39.2085 136.205 39.2085Z" fill="#6B6B6B"/>
<path d="M149.941 31.6404H158.147V28.6483C158.147 28.0616 157.677 27.5923 157.088 27.5923H151C150.412 27.5923 149.941 28.0616 149.941 28.6483V31.6404Z" fill="#ED6E24"/>
<path d="M146.118 53.0837H142V40.9395H146.118V53.0837Z" fill="#30302F"/>
<path d="M45.7357 88.2256C45.7063 88.3429 45.7063 88.4896 45.7063 88.6363V99.9885C45.7063 100.135 45.7357 100.252 45.7357 100.399H37.8828V88.2549L45.7357 88.2256Z" fill="#30302F"/>
<path d="M35.2353 110.137H24.6471C23.1765 110.137 22 108.964 22 107.497V81.5951C22 80.1284 23.1765 78.9551 24.6471 78.9551H35.2353C36.7059 78.9551 37.8823 80.1284 37.8823 81.5951V107.497C37.8823 108.934 36.7059 110.137 35.2353 110.137Z" fill="#6B6B6B"/>
<path d="M47.8234 86.4937H57.6763C58.8528 86.4937 59.794 87.4323 59.794 88.6057V99.9579C59.794 101.131 58.8528 102.07 57.6763 102.07H47.8234C46.6469 102.07 45.7057 101.131 45.7057 99.9579V88.6057C45.6763 87.4323 46.6469 86.4937 47.8234 86.4937Z" fill="#6B6B6B"/>
<path d="M34.0594 78.9265H25.8535V75.9344C25.8535 75.3478 26.3241 74.8784 26.9123 74.8784H33.0006C33.5888 74.8784 34.0594 75.3478 34.0594 75.9344V78.9265Z" fill="#ED6E24"/>
<path d="M37.8828 88.2256H42.0005V100.37H37.8828V88.2256Z" fill="#30302F"/>
<path d="M40.3813 79.0446V79.074C40.2637 79.5433 40.5284 80.0127 40.999 80.13L43.6166 80.834C44.0872 80.9513 44.5578 80.6873 44.6755 80.218V80.1887C44.7931 79.7193 44.5284 79.25 44.0578 79.1326L41.4402 78.4286C40.9696 78.3113 40.499 78.5753 40.3813 79.0446Z" fill="#83BCDC" fill-opacity="0.42"/>
<path d="M39.9103 74.7901C39.6456 74.35 39.7927 73.822 40.2044 73.558L42.5574 72.2087C42.9692 71.974 43.4986 72.1207 43.7633 72.5313L43.7927 72.5607C44.028 72.9714 43.8809 73.4994 43.4691 73.7634L41.1162 75.1127C40.675 75.3474 40.1456 75.2301 39.9103 74.7901Z" fill="#83BCDC" fill-opacity="0.42"/>
<path d="M36.4698 72.3271H36.4404C35.9698 72.2098 35.7051 71.7111 35.8228 71.2711L36.5286 68.6604C36.6463 68.191 37.1463 67.927 37.5875 68.0444H37.6169C38.0875 68.1617 38.3522 68.6604 38.2345 69.1004L37.5286 71.7111C37.411 72.1511 36.9404 72.4444 36.4698 72.3271Z" fill="#83BCDC" fill-opacity="0.42"/>
<path d="M143.617 31.7595V31.7888C143.735 32.2581 143.47 32.7275 142.999 32.8448L140.382 33.5488C139.911 33.6662 139.44 33.4022 139.323 32.9328V32.9035C139.205 32.4342 139.47 31.9648 139.94 31.8475L142.558 31.1435C143.029 30.9968 143.499 31.2901 143.617 31.7595Z" fill="#83BCDC" fill-opacity="0.42"/>
<path d="M144.086 27.5039C144.351 27.0639 144.204 26.5359 143.792 26.2719L141.439 24.9225C141.028 24.6879 140.498 24.8345 140.234 25.2452L140.204 25.2745C139.969 25.6852 140.116 26.2132 140.528 26.4772L142.881 27.8266C143.322 28.0613 143.851 27.9146 144.086 27.5039Z" fill="#83BCDC" fill-opacity="0.42"/>
<path d="M147.529 25.0112H147.558C148.029 24.8938 148.294 24.4245 148.176 23.9552L147.47 21.3444C147.352 20.8751 146.882 20.6111 146.411 20.7284H146.382C145.911 20.8458 145.647 21.3151 145.764 21.7845L146.47 24.3952C146.588 24.8645 147.058 25.1285 147.529 25.0112Z" fill="#83BCDC" fill-opacity="0.42"/>
<path d="M107.325 121.578L109.825 109.228C110.119 107.791 110.266 106.324 110.266 104.887C110.266 98.7853 108.442 92.8012 105.001 87.7558L103.619 85.7024L108.442 72.0035C108.913 70.7128 109.148 69.3341 109.148 67.9848V66.3421L100.619 64.2007C97.1481 77.1369 95.5304 85.7024 95.5304 85.7024C95.5304 85.7024 101.707 99.02 101.266 105.063C100.825 111.076 100.001 121.607 82.7657 121.607H82.7363H93.3246H107.325V121.578Z" fill="#306694"/>
<path d="M96.4694 67.7501L109.116 67.2807V64.1713C109.116 61.7073 106.764 59.7126 103.881 59.7126H98.8812V56.0752C97.3224 56.7499 95.5871 57.1312 93.793 57.1899C93.793 61.1206 97.9694 61.854 99.3812 61.854C100.822 61.854 100.587 63.702 100.587 63.702L96.4694 67.7501Z" fill="#E6B8B8"/>
<path d="M75.2934 63.3218H109.999C110.558 63.3218 111.058 63.7618 111.235 64.4071L112.882 71.4179C113.117 72.4739 112.352 73.442 111.44 73.266L75.1758 66.1378C74.8817 66.0792 74.6758 65.7858 74.6758 65.4632V64.0258C74.6758 63.6445 74.9405 63.3218 75.2934 63.3218Z" fill="white"/>
<g opacity="0.6">
<path opacity="0.6" d="M94.9427 121.579H93.2662H92.678V139.678L92.2662 149.74L92.678 151.94L92.1191 156.956H92.7368C93.2956 156.956 93.825 157.044 94.325 157.22L94.9133 151.91L94.5015 149.71L94.9133 139.649V121.579H94.9427Z" fill="#E6B8B8"/>
<path opacity="0.6" d="M87.8539 157.426C88.5009 157.133 89.2068 156.957 89.9715 156.957H87.7656L87.8539 157.426Z" fill="#E6B8B8"/>
</g>
<path d="M112.882 71.4179L111.235 64.4071C111.088 63.7618 110.588 63.3218 110 63.3218H103.617C104.176 63.3218 104.676 63.7618 104.852 64.4071L106.5 71.4179C106.558 71.7113 106.558 72.0339 106.47 72.2979L111.441 73.266C112.352 73.4713 113.117 72.4739 112.882 71.4179Z" fill="#C3D3ED"/>
<path d="M81.5884 87.6686L76.0295 79.6018C75.7354 79.1618 75.7942 78.6045 76.206 78.2524L79.3825 75.4657L78.4413 72.8257C76.3531 73.999 72.5295 76.2577 72.6472 77.7831C72.7942 79.8658 79.4707 87.8153 78.9119 90.0447C78.3531 92.274 75.2354 95.1781 76.5295 101.28C77.0884 96.4101 78.8237 91.746 81.5884 87.6686Z" fill="#E6B8B8"/>
<path d="M92.9404 161.912H94.3816C94.911 161.912 95.411 161.736 95.8227 161.472C96.0874 161.296 96.3227 161.061 96.5286 160.768C96.8227 160.357 96.9698 159.859 96.9698 159.331C96.9698 159.301 96.9698 159.301 96.9698 159.272C96.9698 158.861 96.8521 158.48 96.6757 158.128L96.5286 157.835L94.9404 151.909L94.3521 157.219C93.8521 157.043 93.3227 156.955 92.7639 156.955H92.7051C93.2051 158.157 94.0286 160.563 92.9404 161.912Z" fill="#585858"/>
<path d="M99.1471 154.814C99.2059 154.814 99.2647 154.785 99.3235 154.756C99.4412 154.726 99.5294 154.697 99.6471 154.668C99.7059 154.638 99.7647 154.609 99.8235 154.58C99.9118 154.55 100 154.492 100.059 154.433C100.118 154.404 100.176 154.345 100.235 154.286C100.294 154.228 100.353 154.169 100.441 154.11C100.5 154.052 100.559 153.993 100.618 153.934C100.676 153.876 100.706 153.817 100.765 153.758C100.824 153.7 100.853 153.612 100.912 153.553C100.941 153.494 100.971 153.436 101 153.348C101.029 153.26 101.088 153.172 101.118 153.084C101.147 153.025 101.147 152.937 101.176 152.878C101.206 152.79 101.235 152.702 101.235 152.585C101.235 152.556 101.235 152.556 101.235 152.526C101.235 152.409 101.265 152.262 101.265 152.116C101.265 151.734 101.176 151.382 101.029 151.03L100.912 150.737L99.8823 144.812L98.9412 150.297C98.5 150.092 98.0588 149.945 97.5588 149.886C97.5882 149.916 97.5882 149.945 97.6471 149.974C98.4706 150.121 98.2941 154.521 97 154.785H98.6471C98.7941 154.873 98.9706 154.844 99.1471 154.814Z" fill="#585858"/>
</svg>
