<svg width="180" height="180" viewBox="0 0 180 180" fill="none" xmlns="http://www.w3.org/2000/svg">
<path d="M95.742 159H87.4183L84.6446 158.73C84.2771 158.73 83.9247 158.583 83.6648 158.323C83.4049 158.063 83.2585 157.71 83.2578 157.342V143.173H96.8514L97.1207 147.615V157.612C97.12 157.978 96.9748 158.33 96.7166 158.59C96.4584 158.849 96.1082 158.997 95.742 159Z" fill="#696969"/>
<path d="M97.1288 143.173V147.615H88.2423C88.0219 147.616 87.8106 147.704 87.6547 147.86C87.4989 148.016 87.411 148.227 87.4102 148.448V159H84.3673C83.9997 158.999 83.6474 158.853 83.3874 158.593C83.1275 158.333 82.9812 157.98 82.9805 157.612V143.173L89.8204 142.014L97.1288 143.173Z" fill="#474748"/>
<path d="M98.2389 142.896H81.8717C80.9608 142.896 80.0589 142.716 79.2174 142.367C78.376 142.018 77.6114 141.507 76.9675 140.862C76.3236 140.217 75.8129 139.452 75.4646 138.609C75.1162 137.767 74.9371 136.864 74.9375 135.953V129.012L90.1953 127.832L105.453 129.012V136.233C105.454 137.087 105.296 137.935 104.987 138.731C103.986 141.33 101.188 142.896 98.2389 142.896Z" fill="#696969"/>
<path d="M104.983 138.732C104.481 140.039 103.594 141.163 102.44 141.956C101.287 142.749 99.92 143.173 98.5205 143.173H81.5931C80.6823 143.174 79.7803 142.994 78.9387 142.646C78.0971 142.297 77.3323 141.786 76.6882 141.142C76.044 140.497 75.533 139.732 75.1843 138.89C74.8357 138.047 74.6562 137.145 74.6563 136.233V129.012L76.9452 128.136L79.0995 129.012V136.233C79.1009 136.895 79.3644 137.53 79.8322 137.998C80.3 138.466 80.9342 138.73 81.5958 138.732H104.983Z" fill="#474748"/>
<g filter="url(#filter0_d_9777_24702)">
<path d="M148.867 114.851H31.2424C30.5068 114.851 29.8013 114.559 29.2811 114.038C28.761 113.517 28.4688 112.811 28.4688 112.075V30.7195L86.4544 29.4932L151.918 30.7195V110.409L151.649 112.075C151.649 112.44 151.577 112.802 151.437 113.139C151.297 113.477 151.092 113.783 150.834 114.041C150.575 114.299 150.269 114.503 149.931 114.642C149.594 114.781 149.232 114.852 148.867 114.851Z" fill="white"/>
</g>
<path d="M151.918 110.409V112.353C151.918 113.089 151.626 113.795 151.106 114.316C150.586 114.836 149.88 115.129 149.145 115.129H30.9651C30.2294 115.129 29.524 114.836 29.0038 114.316C28.4836 113.795 28.1914 113.089 28.1914 112.353V30.7195L30.2892 29.4932L32.9066 30.7195V109.021C32.9073 109.389 33.0537 109.742 33.3136 110.002C33.5735 110.262 33.9259 110.409 34.2935 110.409H151.918Z" fill="#D2E2EB"/>
<path d="M119.045 73.3404C119.042 66.1016 116.337 59.1251 111.46 53.7799C106.583 48.4347 99.8863 45.1068 92.684 44.4493C91.8196 44.3711 90.9417 44.5409 90.0557 44.5409C74.0439 44.5409 61.7617 57.3221 61.7617 73.3485C61.7617 89.3748 74.0439 102.355 90.0557 102.355C93.8627 102.356 97.6325 101.606 101.15 100.148C104.667 98.6895 107.863 96.5523 110.555 93.8579C113.247 91.1635 115.382 87.9648 116.839 84.4444C118.295 80.9239 119.045 77.1508 119.045 73.3404Z" fill="#E97522"/>
<path d="M128.754 60.1519H115.885L115.715 60.4214C113.418 60.4214 111.832 62.2839 111.832 64.5857V68.4723H132.637L132.906 64.8633V64.308C132.904 63.2064 132.466 62.1505 131.688 61.3715C130.91 60.5926 129.855 60.154 128.754 60.1519Z" fill="#208DBE"/>
<path d="M132.915 64.8714V68.4804L123.239 69.0868L111.555 68.4804V64.3161C111.555 63.2117 111.993 62.1525 112.773 61.3715C113.554 60.5906 114.612 60.1519 115.715 60.1519H115.885V64.0385C115.885 64.2594 115.972 64.4712 116.129 64.6274C116.285 64.7836 116.496 64.8714 116.717 64.8714H132.915Z" fill="#7EB4D6"/>
<path d="M92.8288 102.223C91.916 102.312 90.9896 102.355 90.0552 102.355C82.3669 102.355 74.9935 99.2984 69.557 93.857C64.1206 88.4156 61.0664 81.0355 61.0664 73.3403C61.0664 65.645 64.1206 58.2649 69.557 52.8235C74.9935 47.3821 82.3669 44.3252 90.0552 44.3252C90.9896 44.3252 91.916 44.3683 92.8288 44.4573C85.6517 45.145 78.9881 48.4852 74.1389 53.8257C69.2897 59.1662 66.6028 66.1237 66.6028 73.3403C66.6028 80.5568 69.2897 87.5144 74.1389 92.8549C78.9881 98.1954 85.6517 101.536 92.8288 102.223Z" fill="#EE7E3B"/>
<path d="M135.634 128.734H44.4751C43.0038 128.734 41.5928 128.149 40.5525 127.108C39.5122 126.067 38.9277 124.654 38.9277 123.182V74.3105C38.9277 71.723 40.4169 69.2729 42.8109 68.6503C43.264 68.5342 43.7299 68.4754 44.1977 68.4751H135.912C137.383 68.4751 138.794 69.0601 139.834 70.1013C140.874 71.1426 141.459 72.5549 141.459 74.0274V123.46C141.46 123.928 141.401 124.394 141.284 124.848C140.681 127.241 138.219 128.734 135.634 128.734Z" fill="#696969"/>
<path d="M141.284 124.848C140.977 126.04 140.282 127.096 139.31 127.85C138.337 128.604 137.142 129.013 135.912 129.012H44.1977C42.7265 129.012 41.3155 128.427 40.2752 127.386C39.2348 126.344 38.6504 124.932 38.6504 123.46V74.0329C38.6501 72.8018 39.0587 71.6055 39.8118 70.6321C40.565 69.6588 41.6199 68.9635 42.8109 68.6558V123.46C42.8116 123.828 42.9579 124.18 43.2179 124.44C43.4778 124.701 43.8301 124.847 44.1977 124.848H141.284Z" fill="#474748"/>
<path d="M107.671 120.403H48.8536C48.6714 120.403 48.4909 120.368 48.3225 120.298C48.1541 120.229 48.0011 120.126 47.8722 119.997C47.7434 119.868 47.6412 119.715 47.5716 119.547C47.5021 119.378 47.4664 119.197 47.4668 119.015V78.4774C47.4664 78.2951 47.5021 78.1144 47.5716 77.9458C47.6412 77.7773 47.7434 77.6241 47.8722 77.4951C48.0011 77.3662 48.1541 77.2639 48.3225 77.1943C48.4909 77.1247 48.6714 77.089 48.8536 77.0894L50.5178 76.8198H107.949C108.317 76.8198 108.669 76.9661 108.929 77.2264C109.189 77.4867 109.336 77.8398 109.336 78.2079V117.349L109.066 119.015C109.066 119.198 109.03 119.379 108.96 119.548C108.89 119.717 108.787 119.87 108.657 119.999C108.528 120.128 108.374 120.23 108.205 120.3C108.035 120.369 107.854 120.404 107.671 120.403Z" fill="white"/>
<path d="M109.335 117.349V119.292C109.335 119.661 109.189 120.014 108.929 120.274C108.669 120.534 108.316 120.68 107.949 120.68H48.5841C48.4019 120.681 48.2214 120.645 48.053 120.576C47.8845 120.506 47.7315 120.404 47.6027 120.275C47.4738 120.146 47.3717 119.993 47.3021 119.824C47.2325 119.655 47.1969 119.475 47.1973 119.292V78.1996C47.1969 78.0172 47.2325 77.8366 47.3021 77.668C47.3717 77.4994 47.4738 77.3463 47.6027 77.2173C47.7315 77.0883 47.8845 76.9861 48.053 76.9165C48.2214 76.8468 48.4019 76.8112 48.5841 76.8115H50.5257V116.516C50.5257 116.737 50.6133 116.949 50.7694 117.105C50.9254 117.261 51.1371 117.349 51.3578 117.349H109.335Z" fill="#E8E8E8"/>
<path d="M55.5164 95.5523C54.965 95.5523 54.4363 95.3331 54.0464 94.9429C53.6565 94.5527 53.4375 94.0234 53.4375 93.4716V87.9165C53.4375 86.6298 53.9482 85.3958 54.8572 84.4859C55.7662 83.5761 56.9991 83.0649 58.2847 83.0649H63.8347C64.3735 83.0843 64.8837 83.3122 65.258 83.7006C65.6323 84.0889 65.8414 84.6075 65.8414 85.1471C65.8414 85.6867 65.6323 86.2052 65.258 86.5936C64.8837 86.9819 64.3735 87.2098 63.8347 87.2292H58.2793C58.0957 87.2292 57.9197 87.3022 57.7899 87.4321C57.6601 87.562 57.5872 87.7382 57.5872 87.9219V93.4769C57.5851 94.0263 57.3663 94.5525 56.9785 94.9412C56.5907 95.3298 56.0652 95.5495 55.5164 95.5523Z" fill="#E8E8E8"/>
<path d="M63.8396 114.435H58.2788C56.9933 114.435 55.7604 113.924 54.8513 113.014C53.9423 112.105 53.4316 110.871 53.4316 109.584V104.015C53.451 103.476 53.6787 102.965 54.0667 102.591C54.4547 102.216 54.9728 102.007 55.5119 102.007C56.051 102.007 56.5691 102.216 56.9571 102.591C57.3451 102.965 57.5727 103.476 57.5921 104.015V109.57C57.5914 109.661 57.6086 109.752 57.6427 109.836C57.6769 109.92 57.7273 109.997 57.791 110.062C57.8548 110.127 57.9307 110.178 58.0144 110.214C58.0981 110.249 58.1879 110.268 58.2788 110.269H63.8288C64.3809 110.269 64.9104 110.488 65.3007 110.879C65.6911 111.269 65.9104 111.799 65.9104 112.352C65.9104 112.905 65.6911 113.435 65.3007 113.825C64.9104 114.216 64.3809 114.435 63.8288 114.435H63.8396Z" fill="#E8E8E8"/>
<path d="M98.2383 114.435H92.691C92.1389 114.435 91.6094 114.216 91.2191 113.825C90.8287 113.435 90.6094 112.905 90.6094 112.352C90.6094 111.799 90.8287 111.269 91.2191 110.879C91.6094 110.488 92.1389 110.269 92.691 110.269H98.2383C98.4221 110.269 98.5984 110.196 98.7286 110.066C98.8588 109.936 98.9323 109.76 98.933 109.576V104.015C98.9524 103.476 99.1801 102.965 99.5681 102.591C99.9561 102.216 100.474 102.007 101.013 102.007C101.552 102.007 102.07 102.216 102.458 102.591C102.846 102.965 103.074 103.476 103.094 104.015V109.57C103.094 110.86 102.582 112.096 101.672 113.009C100.761 113.921 99.5265 114.434 98.2383 114.435Z" fill="#E8E8E8"/>
<path d="M101.013 95.5522C100.461 95.5522 99.9325 95.333 99.5426 94.9428C99.1527 94.5526 98.9337 94.0233 98.9337 93.4715V87.9164C98.933 87.7325 98.8595 87.5563 98.7292 87.4264C98.599 87.2966 98.4227 87.2237 98.2389 87.2237H92.6916C92.4121 87.2338 92.1335 87.1874 91.8723 87.0873C91.6112 86.9872 91.3728 86.8354 91.1715 86.6411C90.9703 86.4467 90.8102 86.2138 90.7008 85.9562C90.5915 85.6985 90.5352 85.4215 90.5352 85.1416C90.5352 84.8617 90.5915 84.5846 90.7008 84.327C90.8102 84.0694 90.9703 83.8364 91.1715 83.6421C91.3728 83.4477 91.6112 83.296 91.8723 83.1959C92.1335 83.0958 92.4121 83.0494 92.6916 83.0595H98.2389C99.5245 83.0595 100.757 83.5706 101.666 84.4804C102.575 85.3903 103.086 86.6243 103.086 87.911V93.4661C103.087 94.0177 102.869 94.5471 102.48 94.9382C102.092 95.3293 101.564 95.5501 101.013 95.5522Z" fill="#E8E8E8"/>
<path d="M133.191 112.911C133.192 111.236 132.652 109.606 131.652 108.264C130.653 106.921 129.247 105.937 127.644 105.458C126.941 105.248 126.195 105.415 125.425 105.415C121.135 105.415 117.934 108.617 117.934 112.911C117.934 117.204 121.135 120.406 125.425 120.406C126.195 120.406 126.941 120.573 127.644 120.363C129.247 119.884 130.653 118.9 131.652 117.558C132.652 116.215 133.192 114.585 133.191 112.911Z" fill="#208DBE"/>
<path d="M127.644 120.358C126.484 120.705 125.259 120.776 124.067 120.565C122.875 120.355 121.748 119.868 120.777 119.145C119.806 118.421 119.018 117.48 118.475 116.397C117.931 115.314 117.648 114.12 117.648 112.908C117.648 111.696 117.931 110.501 118.475 109.418C119.018 108.336 119.806 107.395 120.777 106.671C121.748 105.947 122.875 105.461 124.067 105.25C125.259 105.04 126.484 105.111 127.644 105.458C126.041 105.936 124.634 106.919 123.634 108.262C122.635 109.604 122.094 111.233 122.094 112.908C122.094 114.582 122.635 116.212 123.634 117.554C124.634 118.896 126.041 119.88 127.644 120.358Z" fill="#A2CDE8"/>
<path d="M133.192 96.6632H117.657C117.118 96.6438 116.608 96.4159 116.234 96.0276C115.86 95.6392 115.65 95.1206 115.65 94.581C115.65 94.0414 115.86 93.5229 116.234 93.1345C116.608 92.7462 117.118 92.5183 117.657 92.4989H133.192C133.472 92.4888 133.75 92.5352 134.012 92.6354C134.273 92.7355 134.511 92.8872 134.712 93.0815C134.914 93.2759 135.074 93.5088 135.183 93.7664C135.292 94.0241 135.349 94.3011 135.349 94.581C135.349 94.861 135.292 95.138 135.183 95.3956C135.074 95.6533 134.914 95.8862 134.712 96.0805C134.511 96.2749 134.273 96.4266 134.012 96.5267C133.75 96.6268 133.472 96.6732 133.192 96.6632Z" fill="#89C3E8"/>
<path d="M133.192 88.3341H117.657C117.118 88.3147 116.608 88.0868 116.234 87.6984C115.86 87.3101 115.65 86.7915 115.65 86.2519C115.65 85.7123 115.86 85.1938 116.234 84.8054C116.608 84.4171 117.118 84.1892 117.657 84.1698H133.192C133.472 84.1597 133.75 84.2061 134.012 84.3062C134.273 84.4064 134.511 84.5581 134.712 84.7524C134.914 84.9468 135.074 85.1797 135.183 85.4373C135.292 85.695 135.349 85.972 135.349 86.2519C135.349 86.5319 135.292 86.8089 135.183 87.0665C135.074 87.3242 134.914 87.5571 134.712 87.7514C134.511 87.9458 134.273 88.0975 134.012 88.1976C133.75 88.2977 133.472 88.3441 133.192 88.3341Z" fill="#89C3E8"/>
<path d="M78.4034 110.107C84.0757 110.107 88.6741 109.496 88.6741 108.743C88.6741 107.99 84.0757 107.379 78.4034 107.379C72.7311 107.379 68.1328 107.99 68.1328 108.743C68.1328 109.496 72.7311 110.107 78.4034 110.107Z" fill="#E8E8E8"/>
<path d="M88.2504 98.7465C88.25 96.4814 87.4815 94.2836 86.0706 92.5126C84.6598 90.7416 82.6902 89.5023 80.4841 88.9975C79.7705 88.8358 79.0273 89.0272 78.2652 89.0272C72.7502 89.0272 68.5547 93.2265 68.5547 98.7465C68.5547 104.267 72.7502 108.466 78.2652 108.466C78.9546 108.466 79.6278 108.673 80.2768 108.539C82.5289 108.074 84.552 106.847 86.0046 105.063C87.4573 103.279 88.2505 101.048 88.2504 98.7465Z" fill="#E97522"/>
<path d="M80.4838 108.495C79.0215 108.828 77.5033 108.826 76.0417 108.491C74.5801 108.155 73.2128 107.495 72.041 106.559C70.8692 105.622 69.9232 104.434 69.273 103.081C68.6228 101.729 68.2852 100.247 68.2852 98.7464C68.2852 97.2456 68.6228 95.764 69.273 94.4116C69.9232 93.0593 70.8692 91.8707 72.041 90.9343C73.2128 89.9978 74.5801 89.3375 76.0417 89.0022C77.5033 88.6669 79.0215 88.6653 80.4838 88.9975C78.2772 89.5015 76.307 90.7406 74.8958 92.5117C73.4847 94.2828 72.7161 96.4811 72.7161 98.7464C72.7161 101.012 73.4847 103.21 74.8958 104.981C76.307 106.752 78.2772 107.991 80.4838 108.495Z" fill="#EE7E3B"/>
<path d="M153.86 30.4336H26.25C23.5679 30.4336 21.3867 28.5469 21.3867 25.8516C21.3867 23.4258 22.927 21.3854 25.2779 21.0485C25.5054 21.0163 25.7349 21.0001 25.9646 21H154.145C154.865 21.0008 155.576 21.1616 156.226 21.4708C156.876 21.78 157.45 22.2299 157.905 22.788C158.36 23.3461 158.686 23.9985 158.859 24.6979C159.032 25.3974 159.047 26.1265 158.904 26.8327C158.454 29.0482 156.208 30.4336 153.86 30.4336Z" fill="#6B6B6B"/>
<path d="M158.892 26.83C158.671 27.9269 158.077 28.9133 157.212 29.6221C156.346 30.331 155.263 30.7186 154.145 30.7194H25.9642C24.7183 30.7495 23.5086 30.2981 22.5865 29.459C21.6644 28.6199 21.1006 27.4575 21.0122 26.2132C20.9238 24.969 21.3177 23.7385 22.1119 22.7772C22.9062 21.816 24.0399 21.1979 25.2775 21.0513V21.9731C25.2775 23.2598 25.7882 24.4938 26.6972 25.4036C27.6062 26.3135 28.8391 26.8246 30.1247 26.8246L158.892 26.83Z" fill="#474748"/>
<defs>
<filter id="filter0_d_9777_24702" x="4.46875" y="5.49316" width="171.449" height="133.358" filterUnits="userSpaceOnUse" color-interpolation-filters="sRGB">
<feFlood flood-opacity="0" result="BackgroundImageFix"/>
<feColorMatrix in="SourceAlpha" type="matrix" values="0 0 0 0 0 0 0 0 0 0 0 0 0 0 0 0 0 0 127 0" result="hardAlpha"/>
<feOffset/>
<feGaussianBlur stdDeviation="12"/>
<feColorMatrix type="matrix" values="0 0 0 0 0.816667 0 0 0 0 0.816667 0 0 0 0 0.816667 0 0 0 0.25 0"/>
<feBlend mode="normal" in2="BackgroundImageFix" result="effect1_dropShadow_9777_24702"/>
<feBlend mode="normal" in="SourceGraphic" in2="effect1_dropShadow_9777_24702" result="shape"/>
</filter>
</defs>
</svg>
