<svg width="93" height="36" viewBox="0 0 93 36" fill="none" xmlns="http://www.w3.org/2000/svg">
<path d="M89.9735 30C91.5936 30 92.9978 31.2857 92.9978 33C92.9978 34.6071 91.7017 36 89.9735 36C88.3533 36 86.9492 34.7143 86.9492 33C87.0572 31.2857 88.3533 30 89.9735 30Z" fill="#E97522"/>
<path d="M68.2626 30C69.8828 30 71.2869 31.2857 71.2869 33C71.2869 34.6071 69.9908 36 68.2626 36C66.6424 36 65.2383 34.7143 65.2383 33C65.3463 31.2857 66.6424 30 68.2626 30Z" fill="#E97522"/>
<path d="M46.5536 30C48.1737 30 49.5779 31.2857 49.5779 33C49.5779 34.6071 48.2818 36 46.5536 36C44.8254 36 43.5293 34.7143 43.5293 33C43.5293 31.2857 44.9334 30 46.5536 30Z" fill="#E97522"/>
<path d="M89.9755 15C91.5956 15 92.9998 16.2857 92.9998 18C92.9998 19.6071 91.7036 21 89.9755 21C88.2473 21 86.9512 19.7143 86.9512 18C86.9512 16.2857 88.3553 15 89.9755 15Z" fill="#E97522"/>
<path d="M24.8427 30C26.4628 30 27.867 31.2857 27.867 33C27.867 34.6071 26.5708 36 24.8427 36C23.2225 36 21.8184 34.7143 21.8184 33C21.8184 31.2857 23.1145 30 24.8427 30Z" fill="#E97522"/>
<path d="M46.0009 15C47.621 15 49.0252 16.2857 49.0252 18C49.0252 19.6071 47.729 21 46.0009 21C44.3807 21 42.9766 19.7143 42.9766 18C42.9766 16.2857 44.2727 15 46.0009 15Z" fill="#E97522"/>
<path d="M46.0009 0C47.621 0 49.0252 1.28571 49.0252 3C49.0252 4.60714 47.729 6 46.0009 6C44.3807 6 42.9766 4.71429 42.9766 3C42.9766 1.28571 44.2727 0 46.0009 0Z" fill="#E97522"/>
<path d="M3.0243 30C4.64446 30 6.0486 31.2857 6.0486 33C6.0486 34.6071 4.75248 36 3.0243 36C1.40414 36 0 34.7143 0 33C0.108011 31.2857 1.40414 30 3.0243 30Z" fill="#E97522"/>
<path d="M25.0126 15C26.6327 15 28.0369 16.2857 28.0369 18C28.0369 19.6071 26.7408 21 25.0126 21C23.3924 21 21.9883 19.7143 21.9883 18C22.0963 16.2857 23.3924 15 25.0126 15Z" fill="#E97522"/>
</svg>
