<svg width="432" height="400" viewBox="0 0 432 400" fill="none" xmlns="http://www.w3.org/2000/svg">
<path d="M309.105 0H122.898C113.375 0 105.656 7.71923 105.656 17.2414V382.759C105.656 392.281 113.375 400 122.898 400H309.105C318.627 400 326.346 392.281 326.346 382.759V17.2414C326.346 7.71923 318.627 0 309.105 0Z" fill="#208DBE"/>
<path d="M105.656 302.571H326.346V323.261H105.656V302.571Z" fill="#4798CC"/>
<path d="M253.932 331.035H178.07C168.547 331.035 160.828 338.754 160.828 348.276V355.172C160.828 364.695 168.547 372.414 178.07 372.414H253.932C263.454 372.414 271.173 364.695 271.173 355.172V348.276C271.173 338.754 263.454 331.035 253.932 331.035Z" fill="#F2FAFF"/>
<g filter="url(#filter0_d_3032_47154)">
<path d="M407.379 48.2759H24.6207C19.8596 48.2759 16 52.1355 16 56.8966V294.828C16 299.589 19.8596 303.448 24.6207 303.448H407.379C412.14 303.448 416 299.589 416 294.828V56.8966C416 52.1355 412.14 48.2759 407.379 48.2759Z" fill="white"/>
</g>
<path d="M16 248.276V294.827C16 297.114 16.9082 299.306 18.5249 300.923C20.1416 302.54 22.3343 303.448 24.6207 303.448H407.379C409.666 303.448 411.858 302.54 413.475 300.923C415.092 299.306 416 297.114 416 294.827V248.276H16Z" fill="#474748"/>
<path d="M36.6895 268.965H64.2757V282.759H36.6895V268.965Z" fill="#FFF5F1"/>
<path d="M78.0703 268.965H140.139V282.759H78.0703V268.965Z" fill="#FFF5F1"/>
<path d="M153.93 268.965H167.723V282.759H153.93V268.965Z" fill="#FFF5F1"/>
<path d="M181.518 268.965H195.311V282.759H181.518V268.965Z" fill="#FFF5F1"/>
<path d="M84.9648 200V89.6553L195.31 144.828L84.9648 200Z" fill="#E97522"/>
<path d="M374.62 227.586H250.482V89.6553C250.482 73.1936 257.022 57.4061 268.662 45.7659C280.302 34.1257 296.09 27.5863 312.551 27.5863C329.013 27.5863 344.801 34.1257 356.441 45.7659C368.081 57.4061 374.62 73.1936 374.62 89.6553V227.586Z" fill="#635C5C"/>
<path d="M388.181 303.448C388.336 301.23 388.414 298.931 388.414 296.552C388.414 247.034 367.724 172.414 312.552 172.414C257.379 172.414 236.689 247.034 236.689 296.552C236.689 298.931 236.767 301.23 236.922 303.448H388.181Z" fill="#89C3E8"/>
<path d="M331.398 175.629L333.242 179.31L312.553 213.793L340.139 234.483L352.975 189.569C346.891 183.397 339.525 178.638 331.398 175.629Z" fill="white"/>
<path d="M272.131 189.569L284.967 234.483L312.553 213.793L291.864 179.31L293.708 175.629C285.581 178.638 278.215 183.397 272.131 189.569Z" fill="white"/>
<path d="M256.241 212.069H255.879C242.414 237.5 236.689 270.5 236.689 296.552C236.689 298.931 236.767 301.23 236.922 303.448H280.026L264.698 219.147C264.337 217.165 263.294 215.372 261.749 214.079C260.205 212.786 258.256 212.075 256.241 212.069Z" fill="#6DB8E8"/>
<path d="M298.76 144.827H326.346L333.243 179.31L312.553 213.793L291.863 179.31L298.76 144.827Z" fill="#FFC2BF"/>
<path d="M326.343 144.827H298.757L294.541 165.914L295.696 166.603C300.787 169.658 306.613 171.271 312.55 171.271C318.487 171.271 324.312 169.658 329.403 166.603L330.558 165.914L326.343 144.827Z" fill="#E6B8B8"/>
<path d="M284.967 96.5516C293.5 96.5544 301.825 93.9192 308.802 89.0071C315.779 84.0949 321.067 77.146 323.941 69.1119C330.285 69.7946 336.152 72.7981 340.415 77.545C344.678 82.292 347.036 88.4472 347.036 94.8275V128.172C347.036 131.15 346.265 134.076 344.798 136.667C343.331 139.258 341.218 141.425 338.665 142.957L321.424 153.302C318.744 154.909 315.678 155.759 312.553 155.759C309.428 155.759 306.362 154.909 303.682 153.302L286.441 142.957C283.888 141.425 281.775 139.258 280.308 136.667C278.841 134.076 278.07 131.15 278.07 128.172V96.5516H284.967Z" fill="#FFCFCD"/>
<path d="M174.619 193.104H233.24C237.813 193.104 242.198 194.92 245.431 198.153C248.665 201.387 250.481 205.772 250.481 210.345V227.586H209.102C199.957 227.586 191.186 223.953 184.719 217.487C178.252 211.02 174.619 202.249 174.619 193.104Z" fill="#FFC2BF"/>
<path d="M250.485 227.586H222.898V286.207C222.898 290.78 224.715 295.165 227.948 298.398C231.182 301.632 235.567 303.448 240.14 303.448H264.278L250.485 227.586Z" fill="#89C3E8"/>
<defs>
<filter id="filter0_d_3032_47154" x="0.967033" y="48.2759" width="430.066" height="290.249" filterUnits="userSpaceOnUse" color-interpolation-filters="sRGB">
<feFlood flood-opacity="0" result="BackgroundImageFix"/>
<feColorMatrix in="SourceAlpha" type="matrix" values="0 0 0 0 0 0 0 0 0 0 0 0 0 0 0 0 0 0 127 0" result="hardAlpha"/>
<feOffset dy="20.044"/>
<feGaussianBlur stdDeviation="7.51648"/>
<feComposite in2="hardAlpha" operator="out"/>
<feColorMatrix type="matrix" values="0 0 0 0 0.222083 0 0 0 0 0.291442 0 0 0 0 0.341667 0 0 0 0.15 0"/>
<feBlend mode="normal" in2="BackgroundImageFix" result="effect1_dropShadow_3032_47154"/>
<feBlend mode="normal" in="SourceGraphic" in2="effect1_dropShadow_3032_47154" result="shape"/>
</filter>
</defs>
</svg>
