<svg width="493" height="519" viewBox="0 0 493 519" fill="none" xmlns="http://www.w3.org/2000/svg">
<path d="M283.336 46.3714L333.102 458.062C333.848 464.235 329.573 469.768 323.585 470.359L116.304 493.008C103.606 493.794 96.6537 487.338 95.8701 480.774L43.6217 43.0782C42.8425 36.5509 49.0722 30.6398 61.8241 30.6396L270.991 35.0243C277.046 35.1252 282.594 40.2311 283.336 46.3714Z" fill="#275475"/>
<path d="M292.665 45.6601L342.704 459.411C343.454 465.615 339.165 471.177 333.155 471.772L118.262 493.066C111.525 493.734 105.351 488.883 104.563 482.285L52.021 42.3266C51.2376 35.7657 56.1861 30.4921 62.9971 30.6063L280.272 34.255C286.349 34.357 291.918 39.489 292.665 45.6601Z" fill="#316594"/>
<path d="M288.589 68.486L334.968 452.115C335.669 457.911 331.652 463.098 326.027 463.642L123.927 483.195C117.664 483.801 111.925 479.273 111.191 473.132L62.6349 66.7118C61.9048 60.6024 66.4989 55.6592 72.8254 55.7263L276.999 57.8902C282.683 57.9505 287.891 62.7183 288.589 68.486Z" fill="url(#paint0_linear_3032_47252)"/>
<path d="M180.213 45.3791C180.478 47.5817 178.89 49.3448 176.664 49.3168C174.435 49.289 172.411 47.477 172.146 45.27C171.881 43.063 173.475 41.3002 175.704 41.3325C177.931 41.365 179.949 43.1766 180.213 45.3791Z" fill="white"/>
<g style="mix-blend-mode:soft-light" opacity="0.5">
<g style="mix-blend-mode:soft-light" opacity="0.5">
<path d="M253.646 325.998C212.272 249.864 150.465 227.076 131.857 148.611C121.798 106.198 128.651 65.6032 140.194 31.9028L62.9968 30.6063C56.1859 30.4921 51.2375 35.7657 52.0211 42.3265L104.563 482.285C105.351 488.883 111.525 493.734 118.262 493.066L287.189 476.327C288.438 408.108 272.089 359.935 253.646 325.998Z" fill="white"/>
</g>
</g>
<g opacity="0.8">
<path opacity="0.8" d="M264.907 273.53C264.683 271.338 262.904 269.491 260.937 269.544L145.287 272.612C143.216 272.667 141.731 274.652 141.971 276.903L143.303 289.456C143.542 291.705 145.414 293.485 147.482 293.421L262.999 289.836C264.964 289.775 266.376 287.942 266.152 285.752L264.907 273.53Z" fill="#47A7E3"/>
<path opacity="0.8" d="M256.313 300.432C256.088 298.239 254.312 296.495 252.338 296.559L160.612 299.535C158.555 299.601 157.077 301.49 157.314 303.731L163.667 363.771C163.904 366.003 165.756 367.739 167.805 367.642L259.175 363.326C261.141 363.233 262.556 361.382 262.332 359.197L256.313 300.432ZM229.558 346.068C229.851 348.891 228.007 351.091 225.448 351.204L199.567 352.349C196.976 352.463 194.638 350.432 194.34 347.588L191.337 318.816C191.039 315.966 192.9 313.425 195.496 313.332L221.434 312.406C223.998 312.315 226.318 314.688 226.611 317.516L229.558 346.068Z" fill="#47A7E3"/>
<path opacity="0.8" d="M207.424 346.712C206.929 346.725 206.436 346.639 205.975 346.457C205.514 346.276 205.094 346.004 204.742 345.657L197.158 338.475C195.575 336.975 195.31 334.45 196.567 332.835C197.825 331.221 200.124 331.13 201.704 332.63L206.422 337.109L218.15 322.006C219.396 320.403 221.674 320.317 223.239 321.814C224.803 323.31 225.063 325.82 223.821 327.423L209.86 345.438C209.573 345.816 209.206 346.126 208.785 346.346C208.364 346.567 207.899 346.691 207.424 346.712Z" fill="#47A7E3"/>
<path opacity="0.8" d="M261.643 149.481H118.691C108.95 149.481 101.495 157.327 102.565 167.311L106.696 205.799C107.763 215.749 116.915 223.892 126.614 223.737L268.961 221.469C278.04 221.324 284.694 213.369 283.724 203.793L279.969 166.675C278.996 157.069 270.759 149.481 261.643 149.481Z" fill="white"/>
</g>
<path d="M426.428 217.823C426.428 217.823 422.473 247.126 453.497 267.787L420.485 275.624C420.485 275.624 409.919 255.961 417.569 223.391L426.428 217.823Z" fill="#DB590D"/>
<path d="M420.619 223.386C420.619 223.386 418.84 219.015 419.127 217.048C419.414 215.08 424.12 212.454 427.328 209.742C430.536 207.031 427.208 212.47 426.462 213.707C425.716 214.944 423.099 216.8 423.475 221.007L420.619 223.386Z" fill="url(#paint1_linear_3032_47252)"/>
<path d="M183.277 178.962L187.274 178.905L187.497 194.552L183.499 194.608L183.38 186.181L179.651 192.516L179.247 192.522L175.363 186.317L175.482 194.721L171.463 194.778L171.24 179.131L175.26 179.074L179.352 185.701L183.277 178.962Z" fill="#303030"/>
<path d="M133.109 179.668L128.213 179.737L123.248 195.455L127.605 195.394L128.246 193.127L133.479 193.053L134.185 195.301L138.519 195.24L133.109 179.668ZM129.23 189.67L130.727 184.329L132.397 189.626L129.23 189.67Z" fill="#47A7E3"/>
<path d="M145.842 179.487L139.441 179.577L139.589 189.965L143.721 189.906L143.628 183.386L145.897 183.354C146.393 183.33 146.89 183.41 147.353 183.59C147.817 183.771 148.236 184.047 148.584 184.401C149.283 185.114 149.641 186.066 149.658 187.258C149.675 188.45 149.344 189.413 148.666 190.145C148.328 190.508 147.916 190.796 147.459 190.989C147.001 191.183 146.507 191.277 146.009 191.267L145.607 191.272L143.741 191.299L139.609 191.357L139.664 195.224L146.064 195.133C148.235 195.103 150.039 194.329 151.478 192.81C152.916 191.292 153.62 189.423 153.588 187.203C153.556 184.983 152.8 183.134 151.319 181.657C149.838 180.18 148.012 179.457 145.842 179.487Z" fill="#47A7E3"/>
<path d="M161.74 179.263L155.34 179.353L155.395 183.22L159.527 183.162L161.13 183.139L161.795 183.13C162.292 183.105 162.788 183.186 163.252 183.366C163.715 183.546 164.135 183.822 164.483 184.176C165.181 184.889 165.539 185.842 165.557 187.034C165.574 188.226 165.243 189.188 164.564 189.92C164.226 190.284 163.815 190.572 163.357 190.765C162.899 190.958 162.405 191.053 161.908 191.042L159.639 191.074L159.547 184.554L155.415 184.612L155.562 194.999L161.963 194.909C164.133 194.879 165.938 194.104 167.376 192.586C168.815 191.068 169.518 189.199 169.486 186.978C169.455 184.758 168.699 182.91 167.218 181.432C165.737 179.955 163.911 179.232 161.74 179.263Z" fill="#47A7E3"/>
<path d="M243.987 181.976L247.872 181.921L248.039 193.7L252.059 193.643L251.891 181.864L255.776 181.81L255.721 177.943L243.932 178.109L243.987 181.976Z" fill="#303030"/>
<path d="M268.023 186.833C267.744 186.262 267.309 185.78 266.768 185.443C266.281 185.124 265.766 184.85 265.229 184.626C264.623 184.393 264.006 184.193 263.378 184.026C262.311 183.728 261.592 183.463 261.222 183.229C260.852 182.996 260.664 182.708 260.66 182.365C260.656 182.222 260.687 182.08 260.749 181.951C260.812 181.821 260.905 181.709 261.02 181.623C261.337 181.403 261.719 181.296 262.105 181.317C263.242 181.301 264.067 181.87 264.577 183.026L267.918 181.011C267.415 179.915 266.587 178.998 265.544 178.384C264.475 177.777 263.258 177.477 262.028 177.517C260.471 177.539 259.178 178.004 258.151 178.913C257.123 179.822 256.619 180.999 256.64 182.444C256.659 183.785 257.093 184.826 257.942 185.567C258.791 186.308 259.938 186.876 261.381 187.273C262.403 187.542 263.064 187.734 263.365 187.849C264.073 188.122 264.43 188.49 264.437 188.952C264.447 189.652 263.838 190.011 262.61 190.028C261.128 190.049 260.085 189.371 259.482 187.993L256.074 190.031C256.512 191.201 257.333 192.19 258.405 192.837C259.508 193.522 260.89 193.853 262.552 193.829C264.349 193.804 265.787 193.352 266.868 192.472C267.948 191.593 268.478 190.385 268.456 188.85C268.462 188.155 268.314 187.466 268.023 186.833Z" fill="#303030"/>
<path d="M198.501 178.747L193.606 178.816L188.641 194.534L192.997 194.473L193.639 192.206L198.871 192.132L199.577 194.38L203.911 194.319L198.501 178.747ZM194.623 188.75L196.119 183.408L197.789 188.705L194.623 188.75Z" fill="#303030"/>
<path d="M237.082 187.792L242.494 187.716L242.442 184.028L237.029 184.104L236.999 181.936L242.972 181.852L242.919 178.12L232.926 178.26L233.148 193.906L243.254 193.764L243.201 190.009L237.115 190.095L237.082 187.792Z" fill="#303030"/>
<path d="M231.56 178.281L227.069 178.345L222.873 184.976L222.779 178.405L218.76 178.462L218.982 194.107L223.002 194.05L222.902 187.054L227.516 193.986L232.007 193.923L226.683 185.951L231.56 178.281Z" fill="#303030"/>
<path d="M214.249 188.383C215.046 187.929 215.71 187.276 216.176 186.489C216.642 185.706 216.879 184.808 216.858 183.898C216.836 182.333 216.275 181.048 215.175 180.042C214.075 179.037 212.724 178.546 211.122 178.568L210.874 178.572L210.252 178.58L208.854 178.6L206.151 178.638L204.834 178.657L205.056 194.303L209.076 194.246L209.004 189.195L210.442 189.174L213.253 194.187L217.565 194.127L214.249 188.383ZM212.385 185.279C212.233 185.444 212.045 185.572 211.837 185.656C211.628 185.74 211.404 185.778 211.179 185.766L208.956 185.797L208.942 184.775L208.906 182.288L210.305 182.268L210.927 182.259L211.129 182.257C211.355 182.246 211.58 182.283 211.79 182.364C212 182.446 212.191 182.571 212.349 182.731C212.659 183.082 212.832 183.532 212.839 183.999C212.845 184.466 212.685 184.92 212.386 185.279L212.385 185.279Z" fill="#303030"/>
<path d="M366.131 49.4358L251.793 201.591L372.426 291.387L486.764 139.232L366.131 49.4358Z" fill="white"/>
<path d="M369.337 108.929L348.094 93.1161L363.982 71.9727L385.226 87.786L369.337 108.929ZM354.724 92.1643L368.381 102.33L378.595 88.7378L364.938 78.5721L354.724 92.1643Z" fill="#D8DEE8"/>
<path d="M389.032 100.036L381.939 109.475L454.016 163.126L461.109 153.688L389.032 100.036Z" fill="#D8DEE8"/>
<path d="M344.371 142.152L323.127 126.339L339.015 105.196L360.259 121.009L344.371 142.152ZM329.758 125.387L343.414 135.553L353.628 121.961L339.971 111.796L329.758 125.387Z" fill="#D8DEE8"/>
<path d="M364.064 133.262L356.971 142.701L429.047 196.352L436.14 186.913L364.064 133.262Z" fill="#D8DEE8"/>
<path d="M319.402 175.377L298.158 159.564L314.046 138.421L335.29 154.234L319.402 175.377ZM304.789 158.612L318.445 168.778L328.659 155.186L315.003 145.021L304.789 158.612Z" fill="#D8DEE8"/>
<path d="M339.095 166.487L332.002 175.926L404.078 229.577L411.171 220.138L339.095 166.487Z" fill="#D8DEE8"/>
<path d="M294.435 208.604L273.191 192.79L289.08 171.646L310.323 187.46L294.435 208.604ZM279.822 191.838L293.479 202.004L303.692 188.411L290.036 178.246L279.822 191.838Z" fill="#D8DEE8"/>
<path d="M314.13 199.714L307.037 209.153L379.113 262.805L386.206 253.366L314.13 199.714Z" fill="#D8DEE8"/>
<path d="M353.972 95.7241L353.941 95.7015C353.668 95.5083 353.441 95.2575 353.277 94.967C353.112 94.6766 353.015 94.3535 352.99 94.021L352.512 86.195C352.494 85.8864 352.538 85.5774 352.64 85.2856C352.743 84.9938 352.902 84.7251 353.109 84.4947C353.316 84.2643 353.567 84.0767 353.846 83.9429C354.126 83.809 354.43 83.7314 354.74 83.7145C355.05 83.6975 355.361 83.7417 355.653 83.8443C355.946 83.9469 356.216 84.106 356.447 84.3125C356.678 84.5191 356.866 84.7689 357 85.0478C357.134 85.3266 357.211 85.629 357.228 85.9377L357.527 91.088L382.824 86.0869C383.129 86.0266 383.443 86.0268 383.748 86.0873C384.053 86.1479 384.343 86.2676 384.602 86.4398C384.861 86.6119 385.083 86.8331 385.255 87.0906C385.428 87.3482 385.548 87.637 385.609 87.9408C385.669 88.2445 385.669 88.5571 385.608 88.8607C385.547 89.1644 385.427 89.4531 385.254 89.7105C385.081 89.9679 384.859 90.1888 384.6 90.3607C384.341 90.5326 384.051 90.6521 383.746 90.7124L355.816 96.1955C355.493 96.2516 355.161 96.2386 354.843 96.1574C354.525 96.0761 354.228 95.9284 353.972 95.7241Z" fill="#47A7E3"/>
<path d="M303.186 163.305L303.156 163.282C302.883 163.089 302.656 162.838 302.491 162.548C302.327 162.257 302.229 161.934 302.205 161.602L301.726 153.775C301.692 153.153 301.907 152.543 302.325 152.078C302.743 151.614 303.33 151.334 303.955 151.3C304.58 151.266 305.194 151.48 305.66 151.896C306.127 152.312 306.408 152.896 306.442 153.518L306.742 158.669L332.038 153.667C332.655 153.546 333.294 153.673 333.817 154.02C334.339 154.368 334.701 154.908 334.823 155.521C334.945 156.135 334.818 156.771 334.469 157.291C334.119 157.811 333.577 158.171 332.961 158.293L305.031 163.776C304.707 163.832 304.376 163.819 304.057 163.738C303.739 163.657 303.442 163.509 303.186 163.305Z" fill="#47A7E3"/>
<path d="M278.501 196.154L278.47 196.131C278.197 195.938 277.971 195.687 277.806 195.397C277.642 195.106 277.544 194.783 277.519 194.451L277.041 186.625C277.023 186.316 277.067 186.007 277.169 185.715C277.272 185.424 277.431 185.155 277.638 184.924C277.845 184.694 278.096 184.506 278.376 184.373C278.656 184.239 278.959 184.161 279.269 184.144C279.58 184.127 279.89 184.171 280.183 184.274C280.476 184.377 280.746 184.536 280.977 184.742C281.208 184.949 281.395 185.199 281.529 185.478C281.663 185.757 281.741 186.059 281.757 186.368L282.057 191.518L307.353 186.517C307.97 186.395 308.609 186.522 309.131 186.87C309.654 187.217 310.016 187.757 310.138 188.371C310.26 188.984 310.133 189.621 309.783 190.14C309.434 190.66 308.892 191.021 308.275 191.142L280.346 196.625C280.022 196.682 279.69 196.669 279.372 196.587C279.054 196.506 278.757 196.358 278.501 196.154Z" fill="#47A7E3"/>
<path d="M342.471 139.563C342.221 139.378 342.011 139.145 341.852 138.879C341.693 138.613 341.589 138.318 341.545 138.012L337.624 110.954C337.534 110.335 337.695 109.706 338.071 109.205C338.448 108.705 339.008 108.373 339.63 108.284C340.252 108.195 340.884 108.355 341.387 108.729C341.89 109.104 342.223 109.662 342.313 110.281L346.234 137.338C346.3 137.8 346.228 138.271 346.026 138.692C345.824 139.112 345.502 139.464 345.099 139.702C344.696 139.94 344.231 140.054 343.763 140.029C343.296 140.004 342.846 139.842 342.471 139.563Z" fill="#EE6E23"/>
<path d="M326.919 127.984C326.544 127.705 326.26 127.321 326.104 126.881C325.948 126.442 325.926 125.966 326.042 125.514C326.158 125.062 326.405 124.655 326.754 124.343C327.102 124.031 327.536 123.829 327.999 123.763L355.185 119.86C355.493 119.816 355.806 119.832 356.108 119.909C356.409 119.985 356.693 120.12 356.942 120.306C357.191 120.491 357.401 120.723 357.56 120.99C357.718 121.256 357.823 121.551 357.867 121.857C357.912 122.163 357.895 122.476 357.818 122.776C357.742 123.076 357.606 123.358 357.42 123.605C357.234 123.853 357 124.062 356.733 124.22C356.465 124.379 356.169 124.483 355.861 124.527L328.676 128.429C328.368 128.474 328.054 128.458 327.753 128.381C327.451 128.305 327.168 128.17 326.919 127.984Z" fill="#EE6E23"/>
<path d="M457.345 240.36C455.196 236.149 454.31 236.173 453.782 233.95C452.58 228.884 455.684 222.45 458.317 222.36C460.015 222.303 460.155 224.929 463.748 229.022C468.15 234.037 470.822 233.379 473.412 237.731C474.018 238.75 476.745 243.333 475.068 246.753C472.928 251.119 464.489 251.81 460.962 248.443C459.289 246.846 459.992 245.549 457.345 240.36Z" fill="#303030"/>
<path d="M465.393 244.276C465.393 244.276 463.642 253.58 464.888 261.144C466.015 267.981 478.74 275.083 481.179 277.119C483.617 279.155 474.71 281.365 466.539 280.301C458.368 279.237 435.995 272.112 432.595 268.14C429.195 264.169 436.553 266.126 442.742 265.374C448.93 264.622 454.838 254.3 455.019 249.031C455.2 243.762 465.393 244.276 465.393 244.276Z" fill="url(#paint2_linear_3032_47252)"/>
<path d="M461.628 251.24C461.628 251.24 456.147 253.588 451.239 249.683C446.845 246.185 453.242 235.613 457.68 235.515C459.16 235.483 461.331 236.553 462.621 238.103C463.382 239.018 463.432 239.624 464.706 241.097C465.88 242.454 466.393 242.581 466.575 243.237C466.803 244.057 466.435 245.422 463.468 247.749C464.954 247.489 466.241 247.889 466.746 248.754C466.906 249.066 466.976 249.416 466.949 249.765C466.785 251.367 464.678 252.091 461.628 251.24Z" fill="url(#paint3_linear_3032_47252)"/>
<path d="M373.311 231.764C373.311 231.764 369.918 231.293 370.976 224.844C371.805 219.788 371.177 218.088 369.978 218.984C368.779 219.88 368.61 222.802 368.61 222.802C368.61 222.802 364.236 219.089 362.435 214.224C360.635 209.359 359.477 213.456 359.091 215.889C358.705 218.321 361.664 225.875 363.336 227.283C365.008 228.691 367.452 234.898 367.452 234.898L373.311 231.764Z" fill="url(#paint4_linear_3032_47252)"/>
<path d="M463.362 491.552C465.228 495.341 464.705 496.969 464.24 497.686C462.878 499.787 459.598 497.803 451.037 498.812C449.27 499.079 447.469 499.016 445.725 498.627C443.677 498.147 441.261 497.062 441.365 496.515C441.402 496.317 441.766 496.237 441.904 496.208C444.28 495.704 459.152 491.161 459.152 491.161L463.362 491.552Z" fill="#303030"/>
<path d="M464.505 483.219L463.177 491.69C463.177 491.69 459.521 494.261 458.56 491.139C457.869 488.894 457.889 482.841 457.889 482.841L464.505 483.219Z" fill="url(#paint5_linear_3032_47252)"/>
<path d="M433.789 484.348L437.03 493.157L441.741 492.41L440.649 484.253L433.789 484.348Z" fill="url(#paint6_linear_3032_47252)"/>
<path d="M438.5 498.008C440.78 495.315 442.816 495.559 443.226 493.709C443.549 492.255 442.655 490.471 441.305 489.794C439.408 488.842 437.11 490.329 436.591 490.665C433.064 492.946 434.025 496.514 430.699 498.062C430.03 498.373 428.97 498.703 427.852 499.746C427.377 500.189 426.201 501.285 426.477 502.04C426.795 502.914 428.892 502.884 430.885 502.855C433.277 502.821 434.473 502.804 435.623 502.089C437.217 501.099 436.74 500.086 438.5 498.008Z" fill="#303030"/>
<path d="M482.007 348.165C481.46 359.637 479.866 371.036 477.245 382.221C474.893 392.221 473.612 393.93 472.797 400.862C471.022 415.946 475.87 418.214 476.401 435.318C476.986 454.205 471.623 469.091 469.519 474.768C468.032 478.779 466.307 482.698 464.354 486.506C462.584 487.977 459.939 487.341 457.15 486.714C456.486 469.581 455.547 453.45 454.883 436.317C452.11 410.505 449.336 384.693 446.562 358.881C458.377 355.309 470.192 351.737 482.007 348.165Z" fill="url(#paint7_linear_3032_47252)"/>
<path style="mix-blend-mode:multiply" opacity="0.3" d="M457.15 486.714C456.486 469.581 455.547 453.45 454.883 436.317C452.11 410.505 449.336 384.693 446.562 358.881C458.377 355.309 470.192 351.737 482.007 348.165C481.963 349.05 481.9 349.902 481.846 350.77C465.079 364.646 461.615 375.847 461.61 383.538C461.604 392.866 466.627 397.597 465.335 411.095C464.411 420.745 461.455 422.386 461.268 431.108C461.028 442.34 465.735 448.758 467.954 455.299C470.098 461.62 470.718 470.522 466.042 483.065C465.435 484.358 464.864 485.514 464.354 486.506C462.584 487.976 459.939 487.341 457.15 486.714Z" fill="url(#paint8_linear_3032_47252)"/>
<path d="M461.967 358.149C451.335 371.107 445.271 383.222 441.772 391.709C437.562 401.92 434.51 409.573 435.466 419.484C436.519 430.393 441.49 434.313 444.791 443.613C447.992 452.632 449.552 466.51 441.2 487.161C439.098 487.886 436.996 488.61 434.895 489.333C433.498 483.753 431.239 475.405 427.862 465.464C421.169 445.764 414.497 432.8 412.693 428.773C406.339 414.592 405.697 389.276 432.143 340.431C442.084 346.337 452.026 352.243 461.967 358.149Z" fill="url(#paint9_linear_3032_47252)"/>
<path d="M364.801 233.879C367.598 231.929 370.396 229.979 373.194 228.029C376.598 248.856 384.336 257.03 390.908 260.606C406.764 269.231 420.914 253.86 451.263 260.133C459.626 261.861 474.203 265.081 482.286 276.939C484.41 280.056 485.166 282.416 488.694 304.775C493.204 333.357 493.365 338.345 492.729 344.499C491.565 355.761 490.86 362.586 485.642 368.627C471.788 384.668 442.34 376.397 438.648 375.309C431.828 373.298 421.228 370.173 417.016 361.203C415.035 356.983 415.245 353.124 418.291 337.69C424.324 307.116 425.094 305.138 423.411 301.789C417.728 290.491 399.721 296.956 384.509 286.449C375.615 280.306 365.589 266.919 364.801 233.879Z" fill="#EE6E23"/>
<path style="mix-blend-mode:multiply" opacity="0.3" d="M452.449 371.223C449.479 365.162 453.47 359.577 449.092 352.292C443.513 343.007 433.475 346.16 429.698 339.3C423.238 327.567 448.664 311.205 443.497 292.528C441.031 283.61 432.417 277.155 425.222 274.71C409.247 269.281 398.799 283.12 383.822 278.793C380.273 277.767 376.199 275.642 372.078 271.232C375.72 278.88 380.244 283.5 384.509 286.447C399.721 296.954 417.728 290.489 423.411 301.787C425.095 305.136 424.324 307.114 418.291 337.688C415.245 353.122 415.035 356.981 417.017 361.201C421.228 370.171 431.828 373.296 438.649 375.307C440.67 375.903 450.41 378.643 461.083 378.377C456.321 376.451 453.758 373.897 452.449 371.223Z" fill="url(#paint10_linear_3032_47252)"/>
<path d="M123.917 54.4721C123.917 86.4266 98.0459 114.052 66.0339 116.182C33.9129 118.319 7.79297 93.9922 7.79297 61.84C7.79297 29.6878 33.9129 2.04654 66.034 0.107536C98.0459 -1.82487 123.917 22.5176 123.917 54.4721Z" fill="#303030"/>
<path d="M130.79 56.5202C130.79 88.4745 104.919 116.1 72.907 118.23C40.7859 120.367 14.666 96.0401 14.666 63.8881C14.666 31.736 40.7859 4.09486 72.907 2.15587C104.919 0.22355 130.79 24.5659 130.79 56.5202Z" fill="#47A7E3"/>
<path d="M70.8593 91.5953C69.6471 91.689 68.4322 91.4511 67.3459 90.9075C66.2597 90.3638 65.3433 89.535 64.696 88.5106L42.8083 53.5295C40.757 50.2515 41.8623 45.7613 45.2757 43.5014C48.6863 41.2429 53.1127 42.0679 55.1613 45.3447L70.3406 69.6271L90.3695 29.0277C92.1669 25.3842 96.4856 23.7127 100.013 25.2932C103.539 26.8729 104.943 31.1048 103.148 34.746L77.2646 87.2544C76.6884 88.4325 75.8221 89.4463 74.7464 90.2016C73.6706 90.9569 72.4204 91.4291 71.1121 91.5743C71.0278 91.5827 70.9436 91.5897 70.8593 91.5953Z" fill="white"/>
<path d="M94.8466 504.142C94.8466 504.142 94.2458 508.899 94.649 510.493C95.0525 512.087 108.95 513.239 113.668 512.685C118.385 512.13 110.858 507.335 107.852 506.434C104.847 505.534 94.8466 504.142 94.8466 504.142Z" fill="#EE6E23"/>
<path d="M101.842 496.203L100.377 505.747C100.377 505.747 96.6417 507.419 94.846 505.767L94.6484 495.776L101.842 496.203Z" fill="url(#paint11_linear_3032_47252)"/>
<path d="M44.7851 498.296C44.7851 498.296 47.5099 500.309 46.7834 502.719C46.0573 505.129 39.6993 514.786 35.1681 517.526C30.6369 520.267 32.0575 514.557 33.376 511.001C34.6946 507.444 38.0638 499.61 39.3791 498.296C40.6942 496.983 44.7851 498.296 44.7851 498.296Z" fill="#EE6E23"/>
<path d="M49.6837 488.607C48.3666 492.261 47.0998 495.265 46.1088 497.481C43.9165 502.384 42.7183 504.223 41.3613 505.818C40.1778 507.207 37.3763 510.171 36.6231 509.678C35.8582 509.177 37.908 505.574 41.8587 495.02C42.4324 493.488 44.2443 488.607 44.2443 488.607H49.6837Z" fill="url(#paint12_linear_3032_47252)"/>
<path d="M121.008 372.971C122.067 383.333 122.193 393.768 121.385 404.151C120.04 421.403 116.575 432.319 112.228 450.713C109.572 461.954 105.993 478.498 102.754 499.19C100.997 500.199 98.9534 500.597 96.9443 500.324C95.6998 500.137 94.5098 499.687 93.4545 499.004C84.9562 473.159 87.466 457.142 91.5673 447.163C93.3154 442.91 95.4349 439.554 96.5678 433.016C98.0668 424.365 96.2134 419.529 93.5701 399.492C91.6859 385.21 92.012 383.002 93.2657 380.86C98.2766 372.297 113.603 372.464 121.008 372.971Z" fill="#303030"/>
<path d="M91.7545 375.977C86.5485 402.736 81.4389 416.79 77.5721 424.739C74.7857 430.35 72.3988 436.148 70.4292 442.092C67.7665 450.118 66.6568 456.023 66.0886 458.621C64.2938 466.824 59.8576 478.8 47.9215 494.508C47.7728 494.595 45.7376 495.741 43.7917 494.72C43.0698 494.329 42.4864 493.727 42.1211 492.994C43.6815 477.976 45.4728 465.356 47.0277 455.616C47.3541 453.573 48.7907 444.635 51.0438 432.827C51.9257 428.206 53.2176 421.435 54.7653 414.481C56.6923 405.821 59.6472 394.039 64.2014 379.921C73.3857 378.606 82.57 377.291 91.7545 375.977Z" fill="#303030"/>
<path d="M96.8926 265.282C99.8451 262.566 105.494 259.434 108.327 252.155C109.18 249.964 112.201 242.201 107.744 236.262C105.099 232.737 100.185 230.343 95.8546 231.191C92.1538 231.915 91.5751 234.48 85.2864 239.643C82.8386 241.653 78.9042 244.883 74.5251 246.679C67.0228 249.756 62.5155 246.861 54.9835 247.191C45.7303 247.597 34.9814 252.736 29.8026 260.211C20.6107 273.476 33.9261 286.932 23.858 302.472C20.5588 307.564 18.9331 306.422 11.1193 316.278C3.29518 326.147 -0.616999 331.08 0.0791812 337.127C1.04536 345.519 10.1269 353.535 18.6789 354.08C27.033 354.613 32.3436 348.071 36.5966 350.932C39.6237 352.969 37.8928 356.929 41.108 361.689C45.2523 367.826 53.3982 369.049 54.7137 369.246C66.9247 371.079 83.3891 356.828 90.3819 339.944C102.991 309.498 80.8412 280.049 96.8926 265.282Z" fill="#515356"/>
<path d="M146.297 278.587C146.38 270.089 126.983 263.297 118.108 261.109C104.303 257.705 93.2472 259.843 90.562 260.408C73.3446 264.039 62.6215 274.322 58.5857 278.644C61.8904 280.785 71.0104 287.32 75.5271 299.718C76.9326 303.576 81.084 316.763 75.1467 329.115C71.7257 336.232 65.6736 341.575 61.0775 345.634C54.1835 351.721 50.6132 352.657 48.3019 358.11C45.7849 364.049 48.3211 366.944 45.1954 371.01C41.8386 375.376 37.9056 373.347 32.2156 377.762C26.3871 382.284 28.4613 386.006 23.1571 391.004C15.4498 398.265 5.23262 395.907 4.75679 399.175C4.34736 401.985 11.609 405.799 17.7785 407.345C29.9963 410.408 40.653 405.267 43.822 403.683C52.5957 399.296 51.0802 396.456 57.7693 393.112C68.9702 387.512 76.6249 393.743 102.137 394.385C115.952 394.733 122.937 394.811 126.765 390.159C130.26 385.91 128.422 381.249 126.325 361.161C125.327 351.6 124.967 341.983 124.231 332.4C122.15 305.289 122.086 302.903 123.934 299.155C130.552 285.728 146.223 286.214 146.297 278.587Z" fill="url(#paint13_linear_3032_47252)"/>
<g style="mix-blend-mode:multiply" opacity="0.3">
<path style="mix-blend-mode:multiply" opacity="0.3" d="M23.1569 391.003C28.4612 386.005 26.387 382.283 32.2155 377.761C37.9054 373.346 41.8384 375.375 45.1953 371.009C48.321 366.944 45.7847 364.048 48.3017 358.109C50.613 352.656 54.1832 351.721 61.0774 345.633C65.6735 341.575 71.7255 336.231 75.1465 329.114C81.0838 316.762 76.9324 303.575 75.5269 299.718C71.0103 287.32 61.8904 280.785 58.5855 278.643C58.9036 278.302 59.2789 277.913 59.6802 277.504C81.4544 280.482 94.1497 293.004 95.7198 296.712C99.3491 305.283 93.6035 308.432 93.4551 333.152C93.3845 344.967 94.6649 349.633 90.8132 354.565C86.4078 360.205 81.3311 358.459 74.9607 365.834C70.0659 371.5 70.8498 375.092 66.2794 377.48C61.3649 380.046 58.2347 377.055 52.6915 378.231C43.4312 380.197 41.4514 390.824 35.3293 396.638C30.6999 401.035 22.1405 404.109 5.26007 400.809C4.86965 400.244 4.68105 399.691 4.75665 399.174C5.23247 395.906 15.4496 398.265 23.1569 391.003Z" fill="url(#paint14_linear_3032_47252)"/>
</g>
<path d="M89.1151 303.381C91.4298 308.273 80.7936 319.667 68.972 325.077C66.5636 326.18 49.2666 334.096 41.5575 326.484C35.1875 320.194 39.2988 307.189 40.7665 302.546C47.9733 279.746 70.1063 268.148 79.3819 263.965C86.3042 281.192 82.2274 288.869 80.6227 291.266C78.9463 293.77 74.2681 299.029 69.2994 303.663C65.8044 306.921 63.6282 308.507 63.9209 309.016C64.285 309.649 68.3818 308.453 84.2939 300.745C86.1385 301.042 88.3242 301.71 89.1151 303.381Z" fill="#47A7E3"/>
<path d="M155.694 275.277L147.887 313.975C147.765 314.581 147.467 315.139 147.03 315.58C146.593 316.02 146.037 316.324 145.429 316.454L87.2132 328.889C86.7276 328.992 86.2244 328.982 85.7436 328.858C85.2629 328.734 84.8178 328.5 84.4439 328.174C84.07 327.849 83.7776 327.441 83.59 326.984C83.4023 326.526 83.3246 326.031 83.3631 325.538L86.4355 286.181C86.4871 285.516 86.7483 284.883 87.182 284.374C87.6157 283.865 88.1998 283.505 88.851 283.345C98.0855 281.076 133.63 272.581 152.377 271.477C152.865 271.448 153.353 271.531 153.803 271.719C154.254 271.908 154.655 272.196 154.976 272.564C155.297 272.931 155.528 273.366 155.653 273.837C155.777 274.307 155.792 274.8 155.694 275.277Z" fill="#EE6E23"/>
<path d="M97.136 243.656C97.136 243.656 95.7298 254.844 91.581 257.408C87.4319 259.97 80.7248 263.318 79.9859 264.227C79.2469 265.135 105.688 267.964 118.791 261.383C114.473 260.487 113.299 260.157 113.299 260.157C112.127 259.827 109.941 259.214 107.749 257.971C106.257 257.126 103.853 255.474 101.648 252.355L101.696 246.161L97.136 243.656Z" fill="url(#paint15_linear_3032_47252)"/>
<path d="M95.3271 248.491C95.3271 248.491 98.6278 253 103.804 251.121C108.439 249.438 105.673 237.524 101.997 236.165C100.771 235.712 98.5183 235.912 97.0132 236.847C95.9545 237.504 93.1274 241 94.748 244.917C93.5771 244.579 92.5464 244.886 92.2884 245.463C91.9608 246.195 92.9522 247.192 93.1769 247.417C93.7634 247.99 94.5153 248.365 95.3271 248.491Z" fill="url(#paint16_linear_3032_47252)"/>
<path style="mix-blend-mode:multiply" opacity="0.3" d="M103.268 308.736C109.52 306.981 114.705 311.338 119.687 307.89C124.789 304.359 121.459 298.327 126.764 292.395C132.436 286.052 139.631 289.159 144.881 283.379C146.83 281.233 148.583 277.736 148.61 271.774C149.925 271.648 151.185 271.548 152.376 271.477C152.864 271.448 153.352 271.531 153.803 271.719C154.253 271.908 154.654 272.196 154.975 272.564C155.296 272.931 155.527 273.366 155.652 273.837C155.777 274.307 155.791 274.8 155.694 275.276L147.886 313.974C147.764 314.581 147.466 315.139 147.029 315.58C146.593 316.02 146.036 316.324 145.428 316.454L89.4805 328.404C93.4307 314.61 98.7021 310.017 103.268 308.736Z" fill="url(#paint17_linear_3032_47252)"/>
<path d="M151.987 295.865C151.987 295.865 155.7 292.449 156.104 288.48C156.508 284.512 153.706 281.336 150.991 280.526C148.276 279.717 146.827 280.911 148.649 284.818C150.472 288.726 153.363 291.263 151.987 295.865Z" fill="url(#paint18_linear_3032_47252)"/>
<defs>
<linearGradient id="paint0_linear_3032_47252" x1="49.1728" y1="239.062" x2="252.173" y2="281.933" gradientUnits="userSpaceOnUse">
<stop stop-color="#DBEDFC"/>
<stop offset="1" stop-color="#CEDFED"/>
</linearGradient>
<linearGradient id="paint1_linear_3032_47252" x1="423.968" y1="214.467" x2="425.323" y2="234.265" gradientUnits="userSpaceOnUse">
<stop offset="0.0036" stop-color="#F36F56"/>
<stop offset="1" stop-color="#FFC444"/>
</linearGradient>
<linearGradient id="paint2_linear_3032_47252" x1="457.923" y1="245.808" x2="456.758" y2="270.389" gradientUnits="userSpaceOnUse">
<stop stop-color="#FF928E"/>
<stop offset="0.8277" stop-color="#FEB3B1"/>
</linearGradient>
<linearGradient id="paint3_linear_3032_47252" x1="460.859" y1="258.414" x2="456.544" y2="234.451" gradientUnits="userSpaceOnUse">
<stop offset="0.2552" stop-color="#FF928E"/>
<stop offset="0.8277" stop-color="#FEB3B1"/>
</linearGradient>
<linearGradient id="paint4_linear_3032_47252" x1="29445.6" y1="29898" x2="28653.7" y2="28633.1" gradientUnits="userSpaceOnUse">
<stop stop-color="#FF928E"/>
<stop offset="0.8277" stop-color="#FEB3B1"/>
</linearGradient>
<linearGradient id="paint5_linear_3032_47252" x1="17134.2" y1="26417" x2="17097.8" y2="27023.5" gradientUnits="userSpaceOnUse">
<stop stop-color="#FF928E"/>
<stop offset="0.8277" stop-color="#FEB3B1"/>
</linearGradient>
<linearGradient id="paint6_linear_3032_47252" x1="19491" y1="23959.4" x2="19535.6" y2="24384" gradientUnits="userSpaceOnUse">
<stop stop-color="#FF928E"/>
<stop offset="0.8277" stop-color="#FEB3B1"/>
</linearGradient>
<linearGradient id="paint7_linear_3032_47252" x1="464.794" y1="362.229" x2="472.603" y2="496.84" gradientUnits="userSpaceOnUse">
<stop stop-color="#47A7E3"/>
<stop offset="0.9964" stop-color="#299BE3"/>
</linearGradient>
<linearGradient id="paint8_linear_3032_47252" x1="464.794" y1="362.229" x2="472.603" y2="496.84" gradientUnits="userSpaceOnUse">
<stop stop-color="#311944"/>
<stop offset="1" stop-color="#893976"/>
</linearGradient>
<linearGradient id="paint9_linear_3032_47252" x1="3766.11" y1="342589" x2="-33126.3" y2="341993" gradientUnits="userSpaceOnUse">
<stop stop-color="#47A7E3"/>
<stop offset="0.9964" stop-color="#299BE3"/>
</linearGradient>
<linearGradient id="paint10_linear_3032_47252" x1="406.427" y1="272.174" x2="430.08" y2="395.951" gradientUnits="userSpaceOnUse">
<stop stop-color="#FF9085"/>
<stop offset="1" stop-color="#FB6FBB"/>
</linearGradient>
<linearGradient id="paint11_linear_3032_47252" x1="4525.53" y1="29519.5" x2="4495.38" y2="30075.9" gradientUnits="userSpaceOnUse">
<stop stop-color="#FF928E"/>
<stop offset="0.8277" stop-color="#FEB3B1"/>
</linearGradient>
<linearGradient id="paint12_linear_3032_47252" x1="4607.46" y1="56469" x2="3494.1" y2="58628.6" gradientUnits="userSpaceOnUse">
<stop stop-color="#FF928E"/>
<stop offset="0.8277" stop-color="#FEB3B1"/>
</linearGradient>
<linearGradient id="paint13_linear_3032_47252" x1="70978.2" y1="222910" x2="69959" y2="309043" gradientUnits="userSpaceOnUse">
<stop stop-color="#47A7E3"/>
<stop offset="0.9964" stop-color="#299BE3"/>
</linearGradient>
<linearGradient id="paint14_linear_3032_47252" x1="67.874" y1="259.321" x2="48.4271" y2="378.81" gradientUnits="userSpaceOnUse">
<stop stop-color="#FFC444"/>
<stop offset="0.9964" stop-color="#F36F56"/>
</linearGradient>
<linearGradient id="paint15_linear_3032_47252" x1="24581.3" y1="30637.8" x2="24393.2" y2="33691.9" gradientUnits="userSpaceOnUse">
<stop stop-color="#FF928E"/>
<stop offset="0.8277" stop-color="#FEB3B1"/>
</linearGradient>
<linearGradient id="paint16_linear_3032_47252" x1="8899.34" y1="22113.9" x2="8470.87" y2="20549.6" gradientUnits="userSpaceOnUse">
<stop stop-color="#FF928E"/>
<stop offset="0.8277" stop-color="#FEB3B1"/>
</linearGradient>
<linearGradient id="paint17_linear_3032_47252" x1="37897.8" y1="94782.2" x2="60948.2" y2="94782.2" gradientUnits="userSpaceOnUse">
<stop stop-color="#FF9085"/>
<stop offset="1" stop-color="#FB6FBB"/>
</linearGradient>
<linearGradient id="paint18_linear_3032_47252" x1="7749.01" y1="25552.2" x2="7148.07" y2="24984.7" gradientUnits="userSpaceOnUse">
<stop stop-color="#FF928E"/>
<stop offset="0.8277" stop-color="#FEB3B1"/>
</linearGradient>
</defs>
</svg>
