<svg width="539" height="361" viewBox="0 0 539 361" fill="none" xmlns="http://www.w3.org/2000/svg">
<g clip-path="url(#clip0_3032_47326)">
<path d="M531.488 320.178L39.0312 315.886V328.671C39.0312 332.142 41.1385 335.064 44.0703 335.612L183.333 360.726C184.982 361 186.631 361.091 188.372 361L526.174 332.324C529.198 332.05 531.488 329.128 531.488 325.566V320.178Z" fill="#BFC8D6"/>
<path d="M352.738 299.449L44.0706 322.827C38.5734 323.284 34.084 318.809 34.084 312.873V76.7116C34.084 70.7757 38.5734 66.0269 44.0706 66.0269H352.738C357.319 66.0269 360.984 70.319 360.984 75.7071V289.312C360.984 294.517 357.319 299.175 352.738 299.449Z" fill="#BFC8D6"/>
<path d="M357.685 299.449L49.0178 322.827C43.5206 323.284 39.0312 318.809 39.0312 312.873V76.7116C39.0312 70.7757 43.5206 66.0269 49.0178 66.0269H357.685C362.266 66.0269 365.931 70.319 365.931 75.7071V289.312C365.931 294.517 362.266 299.175 357.685 299.449Z" fill="white"/>
<path d="M348.064 284.471L60.5604 304.745C56.071 305.019 52.4062 301.457 52.4062 296.617V89.7706C52.4062 84.9305 56.071 81.0036 60.5604 81.0036L348.064 79.7251C351.82 79.7251 354.844 83.2867 354.844 87.6702V276.07C354.844 280.362 351.82 284.197 348.064 284.471Z" fill="#D8DEE8"/>
<path d="M214.209 72.4191C214.209 74.6108 212.651 76.4373 210.636 76.4373C208.712 76.4373 207.062 74.7022 207.062 72.5104C207.062 70.3187 208.62 68.4922 210.636 68.4922C212.651 68.4922 214.209 70.2273 214.209 72.4191Z" fill="white"/>
<path opacity="0.48" d="M283.29 234.7C259.469 221.002 240.778 238.353 222.729 221.184C211.826 210.773 217.14 203.011 203.672 187.486C188.738 170.317 179.026 176.071 164.001 160.637C145.035 141.094 154.564 125.843 138.164 111.779C118.374 94.7018 97.0267 110.501 78.153 94.1539C69.9988 87.122 65.601 76.8938 63.2189 65.9351H44.8949C41.6882 65.9351 39.0312 68.7661 39.0312 72.2363V317.165C39.0312 320.635 41.6882 323.192 44.8949 323.009L359.518 299.083C361.075 298.991 362.45 297.987 363.274 296.617C340.278 295.704 326.076 287.485 317.098 278.9C299.323 262.188 302.347 245.659 283.29 234.7Z" fill="white"/>
<path d="M369.962 298.444L39.0312 323.01L183.333 349.037C184.982 349.311 186.631 349.402 188.372 349.311L531.58 320.179L375.276 298.626C373.536 298.352 371.703 298.261 369.962 298.444Z" fill="url(#paint0_linear_3032_47326)"/>
<path d="M87.3145 323.649L362.816 302.827L448.114 314.516L174.903 336.708L87.3145 323.649Z" fill="#D8DEE8"/>
<g opacity="0.75">
<path opacity="0.75" d="M111.045 97.2589L79.4355 97.3502V87.1221H111.045V97.2589Z" fill="white"/>
<path opacity="0.75" d="M276.968 96.6197L131.201 97.1676V87.1221H276.968V96.6197Z" fill="white"/>
<path opacity="0.75" d="M161.712 113.971L131.201 114.337V104.291L161.712 104.108V113.971Z" fill="white"/>
<path opacity="0.75" d="M322.044 112.51L181.133 113.788V103.925L322.044 103.104V112.51Z" fill="white"/>
<path opacity="0.75" d="M161.712 130.957L131.201 131.414V121.368L161.712 121.003V130.957Z" fill="white"/>
<path opacity="0.75" d="M322.044 128.492L181.133 130.683V120.821L322.044 119.085V128.492Z" fill="white"/>
<path opacity="0.75" d="M111.045 148.948L79.4355 149.678V139.45L111.045 138.902V148.948Z" fill="white"/>
<path opacity="0.75" d="M276.968 145.478L131.201 148.583V138.537L276.968 135.889V145.478Z" fill="white"/>
<path opacity="0.75" d="M161.712 164.838L131.201 165.66V155.706L161.712 154.975V164.838Z" fill="white"/>
<path opacity="0.75" d="M322.044 160.455L181.133 164.382V154.519L322.044 151.14V160.455Z" fill="white"/>
<path opacity="0.75" d="M161.712 181.824L131.201 182.828V172.783L161.712 171.87V181.824Z" fill="white"/>
<path opacity="0.75" d="M322.044 176.527L181.133 181.185V171.322L322.044 167.121V176.527Z" fill="white"/>
<path opacity="0.75" d="M161.712 198.81L131.201 199.997V189.952L161.712 188.856V198.81Z" fill="white"/>
<path opacity="0.75" d="M322.044 192.509L181.133 197.988V188.125L322.044 183.103V192.509Z" fill="white"/>
<path opacity="0.75" d="M211.094 213.513L181.592 214.792V205.02L211.094 203.742V213.513Z" fill="white"/>
<path opacity="0.75" d="M343.575 207.486L229.875 212.691V203.011L343.575 198.262V207.486Z" fill="white"/>
<path opacity="0.75" d="M111.045 235.248L79.4355 236.892V226.664L111.045 225.203V235.248Z" fill="white"/>
<path opacity="0.75" d="M276.968 226.846L131.201 234.243V224.198L276.968 217.257V226.846Z" fill="white"/>
<path opacity="0.75" d="M161.712 249.677L131.201 251.412V241.367L161.712 239.723V249.677Z" fill="white"/>
<path opacity="0.75" d="M322.044 240.545L181.133 248.49V238.627L322.044 231.139V240.545Z" fill="white"/>
<path opacity="0.75" d="M161.712 266.572L131.201 268.49V258.444L161.712 256.709V266.572Z" fill="white"/>
<path opacity="0.75" d="M322.044 256.526L181.133 265.385V255.522L322.044 247.12V256.526Z" fill="white"/>
<path opacity="0.75" d="M111.045 287.028L79.4355 289.22V278.992L111.045 276.891V287.028Z" fill="white"/>
<path opacity="0.75" d="M276.968 275.613L131.201 285.658V275.613L276.968 266.115V275.613Z" fill="white"/>
</g>
<path d="M476.15 154.61C476.15 154.61 483.296 145.751 496.672 145.204C510.049 144.656 528.281 136.345 536.069 135.523C537.993 135.341 538.909 134.793 539.093 134.062C539.459 132.601 530.755 130.592 523.059 130.409C509.408 130.044 501.437 135.523 499.604 132.784C497.589 129.679 506.384 121.186 504.735 119.359C503.452 117.898 497.497 122.647 491.084 125.569C486.503 127.67 468.637 149.678 468.637 149.678L476.15 154.61Z" fill="url(#paint1_linear_3032_47326)"/>
<path d="M485.129 149.952C484.396 186.299 466.713 219.267 438.402 235.522C437.211 236.161 436.02 236.801 434.829 237.44C383.156 263.741 331.299 219.267 325.069 213.696C323.419 212.235 315.723 205.203 307.661 193.514C298.59 180.363 289.062 161.368 287.504 137.898C286.863 128.309 284.756 98.9942 300.056 90.1359C315.723 81.0036 340.736 98.7203 350.814 105.935C393.692 136.437 394.7 173.788 418.338 177.623C428.874 179.358 445.732 174.518 470.928 140.455C475.692 143.651 480.456 146.847 485.129 149.952Z" fill="#4299D5"/>
<path opacity="0.3" d="M438.404 235.613C437.213 236.252 436.022 236.892 434.831 237.531C383.157 263.832 331.3 219.358 325.07 213.787C323.421 212.326 315.725 205.294 307.662 193.605C310.136 182.281 313.526 167.304 313.526 167.304C313.526 167.304 335.698 164.564 346.234 190.774C350.082 200.271 354.663 209.495 362.451 216.161C370.33 222.919 376.377 221.823 386.272 220.271C395.342 218.901 404.871 225.75 412.75 229.129C420.996 232.6 429.425 236.161 438.404 235.613Z" fill="#288CCA"/>
<path d="M158.869 297.804C159.785 297.713 160.701 297.531 161.618 297.439C161.984 297.439 162.351 297.348 162.717 297.348C163.45 297.348 164.091 297.348 164.733 297.348L316.73 286.572C321.128 247.942 322.96 246.938 324.976 218.353C326.992 189.13 326.717 164.382 325.984 146.117C322.777 127.852 323.144 107.305 319.937 89.04C306.652 85.1131 290.252 82.0994 272.295 79.9077C258.735 78.2639 244.259 77.0767 229.508 76.3461C201.656 74.9762 176.185 76.894 153.738 80.4556C128.818 84.3825 107.654 90.4098 91.0703 96.0719C97.7586 110.866 106.462 131.87 114.8 157.898C128.085 199.45 138.438 231.869 139.079 274.243C139.171 278.718 139.171 287.211 139.354 299.083L158.869 297.804Z" fill="#4299D5"/>
<path d="M227.493 24.9312C226.943 37.9904 224.928 48.3099 223.278 55.3417C221.354 63.3782 220.072 65.3873 218.606 67.0311C216.315 69.4968 213.017 71.4146 194.601 74.8849C184.615 76.8027 183.332 76.62 183.057 77.6246C181.775 82.4647 207.795 101.003 235.83 98.7202C253.055 97.3503 269.088 88.218 268.355 82.9213C267.714 77.5332 250.49 79.3597 245.909 69.4055C242.702 62.4649 247.191 53.2413 252.23 45.7528C248.199 36.8032 231.524 33.9721 227.493 24.9312Z" fill="url(#paint2_linear_3032_47326)"/>
<path d="M261.302 37.26C267.349 32.9678 270.922 23.0136 268.174 15.0685C265.792 8.21927 259.561 5.29694 255.805 3.47048C244.902 -1.64361 229.052 -1.55229 220.623 7.48869C215.584 12.8767 217.6 28.219 217.874 30.9587C218.149 34.0637 219.89 35.6162 221.081 38.3559C222.822 42.1001 225.387 47.9448 229.693 57.7164C230.976 55.7073 232.625 53.2415 234.824 50.6845C235.649 49.6799 239.13 45.8444 243.253 43.196C251.499 37.6253 255.622 41.3695 261.302 37.26Z" fill="#30302F"/>
<path d="M261.302 37.26C267.349 32.9678 270.922 23.0136 268.174 15.0685C265.792 8.21927 259.561 5.29694 255.805 3.47048C244.902 -1.64361 229.052 -1.55229 220.623 7.48869C215.584 12.8767 217.6 28.219 217.874 30.9587C218.149 34.0637 219.89 35.6162 221.081 38.3559C222.822 42.1001 225.387 47.9448 229.693 57.7164C230.976 55.7073 232.625 53.2415 234.824 50.6845C235.649 49.6799 239.13 45.8444 243.253 43.196C251.499 37.6253 255.622 41.3695 261.302 37.26Z" fill="black" fill-opacity="0.2"/>
<path d="M222.088 48.1272C222.088 48.1272 225.386 63.2868 240.504 67.2137C254.063 70.7753 266.066 40.73 259.744 31.3237C257.637 28.2187 252.231 25.3877 247.192 25.2051C244.26 25.1138 242.886 25.9357 238.03 25.6617C233.541 25.3877 232.533 24.5658 230.975 25.2051C228.96 26.027 226.761 28.9493 226.394 38.8122C224.745 35.3419 221.996 33.2415 219.523 33.6068C219.156 33.6981 217.965 33.9721 217.141 34.794C214.3 37.625 215.95 43.1957 222.088 48.1272Z" fill="url(#paint3_linear_3032_47326)"/>
<path d="M231.066 23.1046C231.525 23.8352 228.776 25.6617 227.493 29.0406C225.019 35.7072 228.959 46.118 235.464 49.0404C239.312 50.7755 241.237 48.6751 248.108 50.1362C252.323 51.0495 255.621 52.7846 257.545 53.9718C257.179 62.0996 252.781 68.8575 246.917 70.6839C240.504 72.6017 234.64 68.1269 232.258 66.3004C230.608 65.0219 225.386 61.095 224.103 54.4284C222.82 47.4879 227.127 45.0222 224.745 39.8167C223.553 37.1684 221.354 35.5246 220.255 30.8671C219.98 29.5886 219.797 28.4927 219.797 27.8534C224.286 25.2051 230.333 22.1001 231.066 23.1046Z" fill="#30302F"/>
<path d="M231.066 23.1046C231.525 23.8352 228.776 25.6617 227.493 29.0406C225.019 35.7072 228.959 46.118 235.464 49.0404C239.312 50.7755 241.237 48.6751 248.108 50.1362C252.323 51.0495 255.621 52.7846 257.545 53.9718C257.179 62.0996 252.781 68.8575 246.917 70.6839C240.504 72.6017 234.64 68.1269 232.258 66.3004C230.608 65.0219 225.386 61.095 224.103 54.4284C222.82 47.4879 227.127 45.0222 224.745 39.8167C223.553 37.1684 221.354 35.5246 220.255 30.8671C219.98 29.5886 219.797 28.4927 219.797 27.8534C224.286 25.2051 230.333 22.1001 231.066 23.1046Z" fill="black" fill-opacity="0.2"/>
<path d="M251.863 55.159C251.863 55.159 248.473 55.707 243.617 53.7892C243.342 53.6979 243.068 53.6979 242.976 53.7892C242.701 54.2458 245.175 57.4421 248.382 57.6248C250.672 57.7161 252.963 56.2549 252.78 55.6157C252.78 55.3417 252.321 55.2504 251.863 55.159Z" fill="url(#paint4_linear_3032_47326)"/>
<path opacity="0.6" d="M199.091 294.973L164.917 297.348C164.275 297.348 163.543 297.348 162.901 297.348C162.535 297.348 162.168 297.348 161.802 297.439C160.886 297.53 159.969 297.713 159.053 297.804H158.962L139.446 299.174C139.263 287.302 139.263 278.809 139.172 274.334C138.622 239.632 131.659 211.595 121.855 179.815C135.873 173.514 143.386 174.792 147.509 177.897C159.236 186.39 146.41 208.673 159.694 232.965C173.712 258.627 199.824 255.613 203.764 274.334C205.138 281.366 202.847 288.398 199.091 294.973Z" fill="#306694"/>
<path d="M121.397 270.773L136.514 270.134C136.514 270.134 153.097 255.979 160.702 256.983C168.306 257.988 179.576 263.558 180.95 264.746C182.324 265.933 176.827 272.234 171.33 271.504C165.833 270.773 153.464 273.695 151.265 278.718C149.066 283.741 139.538 286.663 137.888 283.65L117.549 287.576L121.397 270.773Z" fill="url(#paint5_linear_3032_47326)"/>
<path d="M123.321 270.407C124.054 279.266 122.221 285.202 119.106 289.311C105.363 307.393 58.6372 299.266 30.968 274.517C10.4452 256.252 -0.365995 228.034 0.0921046 202.92C0.916684 153.971 44.6194 106.3 109.944 90.2271C119.656 120.272 127.077 145.204 136.697 175.34C97.9422 181.185 74.121 211.869 77.7858 234.335C80.4428 251.138 99.3165 266.389 123.321 270.407Z" fill="#4299D5"/>
</g>
<defs>
<linearGradient id="paint0_linear_3032_47326" x1="38.9958" y1="323.863" x2="531.482" y2="323.863" gradientUnits="userSpaceOnUse">
<stop offset="0.494" stop-color="#EBEFF2"/>
<stop offset="1" stop-color="white"/>
</linearGradient>
<linearGradient id="paint1_linear_3032_47326" x1="501.807" y1="153.623" x2="504.321" y2="138.808" gradientUnits="userSpaceOnUse">
<stop stop-color="#F5928F"/>
<stop offset="1" stop-color="#F8B2B1"/>
</linearGradient>
<linearGradient id="paint2_linear_3032_47326" x1="221.799" y1="100.693" x2="230.658" y2="55.4078" gradientUnits="userSpaceOnUse">
<stop stop-color="#F5928F"/>
<stop offset="1" stop-color="#F8B2B1"/>
</linearGradient>
<linearGradient id="paint3_linear_3032_47326" x1="238.069" y1="12.0111" x2="238.738" y2="41.7535" gradientUnits="userSpaceOnUse">
<stop stop-color="#F5928F"/>
<stop offset="1" stop-color="#F8B2B1"/>
</linearGradient>
<linearGradient id="paint4_linear_3032_47326" x1="250.098" y1="50.0522" x2="243.219" y2="65.3188" gradientUnits="userSpaceOnUse">
<stop stop-color="#F5928F"/>
<stop offset="1" stop-color="#F8B2B1"/>
</linearGradient>
<linearGradient id="paint5_linear_3032_47326" x1="150.783" y1="280.638" x2="144.613" y2="261.723" gradientUnits="userSpaceOnUse">
<stop stop-color="#F5928F"/>
<stop offset="1" stop-color="#F8B2B1"/>
</linearGradient>
<clipPath id="clip0_3032_47326">
<rect width="539" height="361" fill="white"/>
</clipPath>
</defs>
</svg>
