<svg width="132" height="35" viewBox="0 0 132 35" fill="none" xmlns="http://www.w3.org/2000/svg">
<path d="M5.06663 20.3921V29.8219H0V15.7892C0.449459 16.5835 1.0215 17.3371 1.69569 18.0295C2.47202 18.8238 3.30965 19.4756 4.229 19.9847C4.49459 20.1273 4.78061 20.2699 5.06663 20.3921Z" fill="#303030"/>
<path d="M30.1546 24.8328C30.1546 27.6231 29.2353 29.9856 27.3966 31.8594C25.5579 33.7535 23.2697 34.6903 20.5321 34.6903H12.4623V21.289H17.6719V29.8023H20.5321C21.9009 29.8023 23.0246 29.3542 23.903 28.4377C24.7815 27.5212 25.2106 26.3196 25.2106 24.8124C25.2106 23.3053 24.7815 22.1037 23.903 21.1872C23.045 20.2707 21.9213 19.8226 20.5321 19.8226H9.60208C7.96768 19.8226 6.49672 19.4967 5.18921 18.8246C5.10749 18.7839 5.00534 18.7431 4.92362 18.682C4.12685 18.2543 3.4118 17.6841 2.73761 16.9916C2.26772 16.5232 1.87956 16.014 1.53225 15.4845C0.572039 13.9977 0.0612899 12.2869 0 10.352V9.57808C0.0817198 6.95077 1.00107 4.73079 2.75804 2.93851C4.59674 1.0444 6.88489 0.0871582 9.60208 0.0871582H17.6719V13.4885H12.4623V4.97519H9.60208C8.23327 4.97519 7.10962 5.42326 6.23114 6.33976C5.35265 7.25627 4.92362 8.45791 4.92362 9.96505C4.92362 11.4722 5.35265 12.6738 6.23114 13.5903C7.08919 14.5069 8.21284 14.9549 9.60208 14.9549H20.5117C23.2493 14.9549 25.5374 15.8918 27.3761 17.7859C29.2353 19.68 30.1546 22.0222 30.1546 24.8328Z" fill="#303030"/>
<path d="M50.686 19.7404H54.4859V34.6285H50.686V26.604L47.0699 32.5918H46.6817L43.086 26.6243V34.6285H39.2656V19.7404H43.086L46.8656 26.0948L50.686 19.7404Z" fill="#303030"/>
<path d="M49.2359 0.0456543H44.5779L39.6543 14.9338H43.8016L44.4349 12.7953H49.3994L50.0327 14.9338H54.1391L49.2359 0.0456543ZM45.4155 9.51621L46.9069 4.46525L48.4187 9.51621H45.4155Z" fill="#47A7E3"/>
<path d="M61.3293 0.0456543H55.2411V9.92355H59.1637V3.73205H61.3088C62.3508 3.73205 63.1884 4.07828 63.8422 4.77075C64.4959 5.46322 64.8228 6.35936 64.8228 7.4999C64.8228 8.64044 64.4959 9.53658 63.8422 10.2291C63.1884 10.9215 62.3508 11.2678 61.3088 11.2678H60.9207H59.1433H55.2207V14.9542H61.3088C63.3723 14.9542 65.0884 14.2413 66.4776 12.8156C67.8669 11.39 68.5615 9.61805 68.5615 7.52027C68.5615 5.40212 67.8669 3.63021 66.4776 2.2249C65.1088 0.758492 63.3927 0.0456543 61.3293 0.0456543Z" fill="#47A7E3"/>
<path d="M76.428 0.0456543H70.3398V3.73204H74.2624H75.7946H76.428C77.4699 3.73204 78.3075 4.07828 78.9613 4.77075C79.6151 5.46322 79.9419 6.35936 79.9419 7.4999C79.9419 8.64044 79.6151 9.53658 78.9613 10.2291C78.3075 10.9215 77.4699 11.2678 76.428 11.2678H74.2828V5.05589H70.3603V14.9338H76.4484C78.5118 14.9338 80.228 14.2209 81.6172 12.7953C83.0064 11.3696 83.701 9.59768 83.701 7.4999C83.701 5.38175 83.0064 3.60984 81.6172 2.20453C80.2075 0.758492 78.4914 0.0456543 76.428 0.0456543Z" fill="#47A7E3"/>
<path d="M108.299 23.4267H111.997V34.6285H115.817V23.4267H119.494V19.7404H108.299V23.4267Z" fill="#303030"/>
<path d="M131.057 28.3758C130.791 27.8259 130.403 27.3778 129.893 27.0316C129.361 26.6854 128.891 26.4206 128.442 26.2373C127.993 26.054 127.421 25.8503 126.685 25.6467C125.684 25.3412 124.989 25.0968 124.642 24.8524C124.295 24.6283 124.111 24.3432 124.111 24.0173C124.111 23.7322 124.233 23.5082 124.458 23.3249C124.683 23.1416 125.03 23.0397 125.5 23.0397C126.583 23.0397 127.359 23.5896 127.829 24.6894L131.037 22.8157C130.526 21.7159 129.79 20.8605 128.81 20.2902C127.85 19.6996 126.726 19.4144 125.48 19.4144C124.009 19.4144 122.763 19.8421 121.782 20.6975C120.801 21.5529 120.29 22.6528 120.29 24.0377C120.29 25.3208 120.679 26.3188 121.475 27.0316C122.272 27.7445 123.355 28.2944 124.724 28.7017C125.684 28.9665 126.317 29.1701 126.603 29.272C127.278 29.5367 127.604 29.9033 127.604 30.331C127.604 31.0031 127.012 31.329 125.847 31.329C124.438 31.329 123.457 30.6773 122.906 29.3534L119.637 31.2475C120.045 32.3881 120.781 33.2842 121.802 33.9563C122.844 34.6284 124.152 34.9543 125.725 34.9543C127.441 34.9543 128.81 34.547 129.852 33.7119C130.894 32.8973 131.404 31.7567 131.404 30.2903C131.445 29.5571 131.323 28.9054 131.057 28.3758Z" fill="#303030"/>
<path d="M65.15 19.7404H60.492L55.5684 34.6285H59.7156L60.349 32.49H65.3134L65.9468 34.6285H70.0736L65.15 19.7404ZM61.3296 29.2109L62.821 24.16L64.3328 29.2109H61.3296Z" fill="#303030"/>
<path d="M101.659 28.8647H106.808V25.3616H101.659V23.3045H107.339V19.7404H97.8594V34.6285H107.441V31.0643H101.659V28.8647Z" fill="#303030"/>
<path d="M96.5504 19.7404H92.2805L88.2149 25.993V19.7404H84.3945V34.6285H88.2149V27.9685L92.5052 34.6285H96.7547L91.8106 26.9706L96.5504 19.7404Z" fill="#303030"/>
<path d="M79.982 29.1295C80.7583 28.6814 81.3917 28.0907 81.8411 27.3575C82.2906 26.604 82.5153 25.7893 82.5153 24.8932C82.5153 23.4064 82.0046 22.1844 80.9626 21.2068C79.9411 20.2292 78.6541 19.7404 77.1422 19.7404H76.8971H76.3046H74.9767H72.4025H71.1562V34.6285H74.9767V29.8219H76.3455L78.9401 34.6285H83.0261L79.982 29.1295ZM78.2455 26.1355C77.939 26.441 77.5713 26.604 77.1014 26.5836H74.9767V25.606V23.2434H76.3046H76.8971H77.0809C77.5508 23.2434 77.939 23.4064 78.225 23.7119C78.5315 24.0174 78.6745 24.4247 78.6745 24.9339C78.6949 25.4227 78.5519 25.83 78.2455 26.1355Z" fill="#303030"/>
</svg>
