<svg width="274" height="30" viewBox="0 0 274 30" fill="none" xmlns="http://www.w3.org/2000/svg">
<path d="M113.687 0.62207L121.185 0.62207L121.185 29.3775H113.687L113.687 13.8863L106.492 25.4474H105.753L98.6252 13.9518L98.6252 29.3775H91.0605L91.0605 0.62207H98.6252L106.123 12.9037L113.687 0.62207Z" fill="white" fill-opacity="0.9"/>
<path d="M19.4152 0.62207H10.2031L0.453125 29.3775H8.65657L9.93416 25.2181H19.7514L21.029 29.3775H29.1652L19.4152 0.62207ZM11.8505 18.8972L14.8092 9.1046L17.8014 18.8972H11.8505Z" fill="white" fill-opacity="0.9"/>
<path d="M43.319 0.62207L31.3164 0.62207L31.3164 19.716H39.0828L39.0828 7.72906H43.3526C45.4035 7.72906 47.0845 8.38408 48.3621 9.72688C49.6397 11.0697 50.3121 12.8055 50.3121 14.9998C50.3121 17.1941 49.6733 18.9627 48.3621 20.2727C47.0509 21.6155 45.4035 22.2705 43.3526 22.2705H42.613H39.1164H31.3164L31.3164 29.3775H43.3526C47.4207 29.3775 50.85 28.002 53.5733 25.2509C56.3302 22.4998 57.675 19.0937 57.675 14.9998C57.675 10.9059 56.2966 7.4998 53.5733 4.74871C50.8164 1.99762 47.4207 0.62207 43.319 0.62207Z" fill="white" fill-opacity="0.9"/>
<path d="M73.2081 0.62207L61.1719 0.62207V7.72906H68.9383H71.9641H73.2081C75.2589 7.72906 76.94 8.38408 78.2176 9.72687C79.4951 11.0697 80.1676 12.8055 80.1676 14.9998C80.1676 17.1941 79.5288 18.9627 78.2176 20.2727C76.9064 21.6155 75.2589 22.2705 73.2081 22.2705H68.9383L68.9383 10.2836H61.1719L61.1719 29.3775H73.2081C77.2762 29.3775 80.7055 28.002 83.4288 25.2509C86.1857 22.4998 87.5305 19.0937 87.5305 14.9998C87.5305 10.9059 86.152 7.4998 83.4288 4.74871C80.7055 1.99762 77.2762 0.62207 73.2081 0.62207Z" fill="white" fill-opacity="0.9"/>
<path d="M227.662 7.72906H234.958V29.3775H242.522V7.72906H249.818V0.62207L227.662 0.62207V7.72906Z" fill="white" fill-opacity="0.9"/>
<path d="M272.68 17.2926C272.176 16.2445 271.403 15.3603 270.36 14.7052C269.318 14.0502 268.377 13.5262 267.503 13.1659C266.628 12.8057 265.485 12.4127 264.04 12.0197C262.056 11.4301 260.711 10.9389 260.005 10.5131C259.299 10.0873 258.963 9.53057 258.963 8.9083C258.963 8.35153 259.198 7.89301 259.669 7.5655C260.14 7.20524 260.812 7.04148 261.72 7.04148C263.872 7.04148 265.384 8.12227 266.326 10.2511L272.647 6.64847C271.638 4.51965 270.159 2.8821 268.242 1.76856C266.359 0.556769 264.14 0 261.686 0C258.761 0 256.307 0.818777 254.357 2.45633C252.407 4.09389 251.432 6.25546 251.432 8.9083C251.432 11.3646 252.205 13.2969 253.785 14.6725C255.365 16.048 257.484 17.1288 260.207 17.9148C262.123 18.4389 263.367 18.7991 263.905 19.0284C265.216 19.5524 265.889 20.2402 265.889 21.0917C265.889 22.369 264.746 23.024 262.426 23.024C259.635 23.024 257.685 21.7467 256.609 19.1921L250.154 22.8603C250.961 25.0546 252.407 26.7904 254.458 28.0677C256.509 29.345 259.097 30 262.224 30C265.586 30 268.309 29.214 270.36 27.6092C272.411 26.0044 273.453 23.81 273.453 20.9935C273.453 19.5852 273.184 18.3406 272.68 17.2926Z" fill="white" fill-opacity="0.9"/>
<path d="M142.298 0.62207H133.086L123.336 29.4103H131.539L132.817 25.2509H142.634L143.912 29.4103H152.048L142.298 0.62207ZM134.733 18.8972L137.692 9.1046L140.684 18.8972H134.733Z" fill="white" fill-opacity="0.9"/>
<path d="M214.549 18.2422H224.702V11.4627H214.549V7.46705H225.745V0.62207L206.984 0.62207V29.3775H225.98V22.4998H214.549V18.2422Z" fill="white" fill-opacity="0.9"/>
<path d="M204.396 0.62207H195.957L187.922 12.7072V0.62207H180.357V29.3775H187.922V16.5391L196.395 29.3775H204.833L195.05 14.6068L204.396 0.62207Z" fill="white" fill-opacity="0.9"/>
<path d="M171.617 18.733C173.164 17.8814 174.374 16.7352 175.282 15.2941C176.19 13.8531 176.627 12.281 176.627 10.5452C176.627 7.6631 175.618 5.30502 173.567 3.40546C171.516 1.53865 168.995 0.588867 166.002 0.588867H165.532H164.355L161.733 0.588867H156.656H154.168V29.3771H161.733V20.1085H164.422L169.566 29.4098H177.669L171.617 18.733ZM168.188 13.0015C167.583 13.5911 166.843 13.8858 165.902 13.8531H161.733V11.9862V7.40109H164.355H165.532H165.902C166.843 7.40109 167.583 7.69585 168.188 8.31813C168.793 8.90764 169.062 9.69367 169.062 10.6762C169.096 11.5932 168.793 12.3793 168.188 13.0015Z" fill="white" fill-opacity="0.9"/>
</svg>
