<svg width="37" height="43" viewBox="0 0 37 43" fill="none" xmlns="http://www.w3.org/2000/svg">
<path d="M22.2803 26.6386H11.7354V31.4815H28.063V35.5432H11.7354V42.7294H5.6126V35.5432H0V31.4815H5.6126V26.6386H0V21.4834H5.6126V0.549805H22.2803C26.1921 0.549805 29.5937 1.79957 32.4851 4.45532C35.3764 7.11107 36.737 10.0793 36.737 13.6723C36.737 17.2654 35.3764 20.3898 32.4851 22.8893C29.5937 25.3889 26.3622 26.6386 22.2803 26.6386ZM11.7354 5.8613V21.6396H22.2803C24.4913 21.6396 26.5323 20.8585 28.2331 19.2963C29.9339 17.7341 30.7843 15.8594 30.7843 13.6723C30.7843 11.4852 29.9339 9.6106 28.4032 8.04839C26.7024 6.48619 24.8315 5.70508 22.4504 5.70508H11.7354V5.8613Z" fill="#585858"/>
</svg>
