<svg width="84" height="65" viewBox="0 0 84 65" fill="none" xmlns="http://www.w3.org/2000/svg">
<path fill-rule="evenodd" clip-rule="evenodd" d="M83.5936 4.74608C83.385 7.54806 81.6645 17.3428 79.9701 27.9172L74.6261 59.2994C74.6261 59.2994 74.209 63.9044 70.5595 64.6841C66.936 65.4881 60.9404 61.8821 59.8716 61.078C59.0113 60.4689 43.8397 51.4782 38.2872 47.0925C36.8013 45.8986 35.0808 43.4865 38.4957 40.7089C46.1858 34.1059 55.3878 25.9193 60.9404 20.7295C63.495 18.3418 66.0758 12.7378 55.3879 19.5356L25.2531 38.516C25.2531 38.516 21.8382 40.514 15.4254 38.7109C9.01267 36.9079 1.53113 34.5201 1.53113 34.5201C1.53113 34.5201 -3.60429 31.5233 5.15459 28.3314L54.9708 9.15614C59.8976 7.15821 76.5552 0.774562 76.5552 0.774562C76.5552 0.774562 84.2453 -2.02741 83.5936 4.74608Z" fill="#83BCDC"/>
</svg>
