<svg width="48" height="37" viewBox="0 0 48 37" fill="none" xmlns="http://www.w3.org/2000/svg">
<path fill-rule="evenodd" clip-rule="evenodd" d="M47.9775 2.58298C47.8577 4.17507 46.8699 9.74047 45.897 15.7489L42.8286 33.5803C42.8286 33.5803 42.5891 36.1969 40.4936 36.6399C38.4131 37.0968 34.9705 35.0478 34.3568 34.5909C33.8629 34.2448 25.1516 29.1363 21.9635 26.6443C21.1103 25.966 20.1225 24.5954 22.0833 23.0171C26.4987 19.2653 31.7824 14.6137 34.9705 11.6648C36.4373 10.3081 37.9191 7.1239 31.7824 10.9864L14.4796 21.7711C14.4796 21.7711 12.5188 22.9064 8.83677 21.8819C5.1547 20.8574 0.858955 19.5007 0.858955 19.5007C0.858955 19.5007 -2.0897 17.7978 2.93947 15.9842L31.5429 5.08879C34.3718 3.95356 43.9362 0.326357 43.9362 0.326357C43.9362 0.326357 48.3517 -1.26573 47.9775 2.58298Z" fill="#B5DFFF"/>
</svg>
