<svg width="70" height="70" viewBox="0 0 70 70" fill="none" xmlns="http://www.w3.org/2000/svg">
<rect width="70" height="70" rx="10" fill="url(#paint0_linear_9777_30765)"/>
<path d="M32.3398 54.1514C32.3398 55.2559 33.2353 56.1514 34.3398 56.1514C35.4444 56.1514 36.3398 55.2559 36.3398 54.1514H32.3398ZM35.7541 15.756C34.973 14.975 33.7067 14.975 32.9256 15.756L20.1977 28.4839C19.4167 29.265 19.4167 30.5313 20.1977 31.3124C20.9788 32.0934 22.2451 32.0934 23.0261 31.3124L34.3398 19.9987L45.6536 31.3124C46.4346 32.0934 47.7009 32.0934 48.482 31.3124C49.263 30.5313 49.263 29.265 48.482 28.4839L35.7541 15.756ZM36.3398 54.1514V17.1702H32.3398V54.1514H36.3398Z" fill="white"/>
<defs>
<linearGradient id="paint0_linear_9777_30765" x1="35" y1="0" x2="35" y2="70" gradientUnits="userSpaceOnUse">
<stop stop-color="#F1924E"/>
<stop offset="1" stop-color="#ED7F32"/>
</linearGradient>
</defs>
</svg>
