<svg width="1920" height="1003" viewBox="0 0 1920 1003" fill="none" xmlns="http://www.w3.org/2000/svg">
<path d="M1751.5 318.5C1902.38 398.251 2162.5 210.5 2249 -13V735H-138V121.5C42.5486 -99.3769 162 449 504.5 288C948.921 79.0898 951.712 350.433 1127 425.5C1346.5 519.5 1246 51.3072 1751.5 318.5Z" fill="#F5FAFF"/>
<path d="M347 354.5C196.12 434.251 -51.5 210.5 -138 -13V735H2249V333.704C2068.45 112.827 1644 167.5 1514 280C1363.09 410.595 1065.19 558.458 952 405C796 193.5 592 225 347 354.5Z" fill="#DBEDFC"/>
<path d="M395.377 349.431C257.184 414.417 36.4629 302.474 -119 167V1002.5H1976V388.832C1817.54 170.778 1522.11 274.408 1360.15 349.431C1198.19 424.455 1057.68 550.781 917.253 457.919C812.778 388.832 678.31 216.383 395.377 349.431Z" fill="url(#paint0_linear_9777_30532)"/>
<defs>
<linearGradient id="paint0_linear_9777_30532" x1="928.25" y1="347.812" x2="929.187" y2="758.179" gradientUnits="userSpaceOnUse">
<stop stop-color="#45A3DF"/>
<stop offset="1" stop-color="#4495CE"/>
</linearGradient>
</defs>
</svg>
